<svg xmlns="http://www.w3.org/2000/svg" xmlns:xlink="http://www.w3.org/1999/xlink" width="873" height="696.685" viewBox="0 0 873 696.685"><defs><style>.a{fill:#f2f2f2;}.b{fill:#f5f5f5;}.c{fill:url(#a);}.aa,.ao,.d,.m{fill:#fff;}.e{fill:#ff5252;}.f{fill:#ff0;}.g{fill:#21d59b;}.aa,.h{opacity:0.2;}.i,.j{fill:#7ec2eb;}.ak,.j,.m{opacity:0.5;}.k{fill:#f99600;}.l{fill:#96e9fc;}.n{fill:url(#j);}.o,.p,.q,.r,.s,.t{fill:none;}.ao,.o,.p,.q,.r,.s,.t{stroke:#7ec2eb;stroke-miterlimit:10;}.p{stroke-dasharray:11.51 11.51;}.q{stroke-dasharray:13.06 13.06;}.r{stroke-dasharray:9.79 9.79;}.s{stroke-dasharray:11.28 11.28;}.t{stroke-dasharray:11.93 11.93;}.u{fill:url(#k);}.v{fill:url(#l);}.w{fill:url(#m);}.x{fill:url(#n);}.y{fill:#ca7070;}.z{fill:#575988;}.ab{fill:#656691;}.ac{fill:#263238;}.ad{fill:url(#o);}.ae{fill:url(#p);}.af{fill:#2f296b;}.ag{fill:#f6b9ad;}.ah{fill:#5659b0;}.ai{fill:#fccc63;}.aj{fill:#69f0ae;}.ak{fill:#bee0f5;}.al{fill:url(#u);}.am{fill:#ef5350;}.an{fill:#56595a;}.ao{stroke-width:3px;}.ap{fill:#c4c7c8;}.aq{fill:url(#aa);}.ar{fill:#4c4981;}.as{fill:#985454;}.at{fill:#3f3d56;}</style><linearGradient id="a" x1="0.5" y1="1" x2="0.5" gradientUnits="objectBoundingBox"><stop offset="0" stop-color="gray" stop-opacity="0.251"/><stop offset="0.54" stop-color="gray" stop-opacity="0.122"/><stop offset="1" stop-color="gray" stop-opacity="0.102"/></linearGradient><linearGradient id="j" x1="0.516" y1="0.999" x2="0.516" y2="-0.001" xlink:href="#a"/><linearGradient id="k" x1="1.221" y1="1.356" x2="1.221" y2="0.356" xlink:href="#a"/><linearGradient id="l" x1="1.26" y1="1.627" x2="1.26" y2="0.627" xlink:href="#a"/><linearGradient id="m" x1="0.506" y1="0.964" x2="0.506" y2="0.023" xlink:href="#a"/><linearGradient id="n" xlink:href="#a"/><linearGradient id="o" x1="0.498" x2="0.498" y2="0.007" xlink:href="#a"/><linearGradient id="p" xlink:href="#a"/><linearGradient id="u" xlink:href="#a"/><linearGradient id="aa" x1="0" y1="0.5" x2="1" y2="0.5" xlink:href="#a"/></defs><ellipse class="a" cx="65.646" cy="16.657" rx="65.646" ry="16.657" transform="translate(296.879 663.372)"/><ellipse class="a" cx="65.646" cy="16.657" rx="65.646" ry="16.657" transform="translate(301.778 479.17)"/><ellipse class="a" cx="65.646" cy="16.657" rx="65.646" ry="16.657" transform="translate(0 487.009)"/><rect class="b" width="375.263" height="14.207" transform="translate(22.163 3.919)"/><rect class="c" width="388" height="476.182" transform="translate(15.304)"/><rect class="d" width="375.263" height="450.217" transform="translate(22.163 18.126)"/><ellipse class="e" cx="4.021" cy="3.016" rx="4.021" ry="3.016" transform="translate(26.137 8.042)"/><circle class="f" cx="3.429" cy="3.429" r="3.429" transform="translate(35.88 7.838)"/><circle class="g" cx="3.429" cy="3.429" r="3.429" transform="translate(45.316 7.838)"/><g class="h" transform="translate(32.941 35.273)"><rect class="i" width="145.99" height="8.818"/></g><rect class="b" width="145.99" height="8.818" transform="translate(136.799 71.525)"/><rect class="j" width="145.99" height="8.818" transform="translate(32.941 355.667)"/><rect class="c" width="48.99" height="10.778" transform="translate(198.527 354.687)"/><rect class="c" width="48.99" height="10.778" transform="translate(198.527 409.556)"/><rect class="c" width="48.99" height="10.778" transform="translate(298.466 409.556)"/><rect class="i" width="46.051" height="8.818" transform="translate(200.486 355.667)"/><rect class="i" width="46.051" height="8.818" transform="translate(200.486 410.535)"/><rect class="i" width="46.051" height="8.818" transform="translate(299.446 410.535)"/><rect class="b" width="145.99" height="8.818" transform="translate(32.941 383.101)"/><rect class="j" width="145.99" height="8.818" transform="translate(200.486 383.101)"/><rect class="b" width="145.99" height="8.818" transform="translate(200.486 437.97)"/><rect class="j" width="145.99" height="8.818" transform="translate(32.941 410.535)"/><rect class="b" width="145.99" height="8.818" transform="translate(32.941 437.97)"/><rect class="b" width="82.303" height="8.818" transform="translate(136.799 86.222)"/><rect class="b" width="28.414" height="8.818" transform="translate(233.799 86.222)"/><rect class="b" width="82.303" height="8.818" transform="translate(136.799 115.616)"/><rect class="b" width="28.414" height="8.818" transform="translate(233.799 115.616)"/><rect class="b" width="145.99" height="8.818" transform="translate(136.799 100.919)"/><g class="h" transform="translate(238.698 35.273)"><rect class="i" width="145.99" height="8.818"/></g><rect class="c" width="17.636" height="10.778" transform="translate(321.001 70.545)"/><rect class="c" width="17.636" height="10.778" transform="translate(321.001 85.242)"/><rect class="c" width="17.636" height="10.778" transform="translate(321.001 99.939)"/><rect class="e" width="15.677" height="8.818" transform="translate(321.981 71.525)"/><path class="k" d="M0,0H15.677V8.818H0Z" transform="translate(321.981 86.222)"/><rect class="g" width="15.677" height="8.818" transform="translate(321.981 100.919)"/><rect class="c" width="17.636" height="10.778" transform="translate(321.001 114.636)"/><path class="l" d="M0,0H15.677V8.818H0Z" transform="translate(321.981 115.616)"/><rect class="c" width="359.586" height="146.97" transform="translate(30.001 178.323)"/><rect class="j" width="351.747" height="139.131" transform="translate(32.941 181.263)"/><path class="m" d="M44.4,195.778h340.97V185H33.62V324.131H44.4Z" transform="translate(-0.679 -3.737)"/><rect class="n" width="362.525" height="148.929" transform="translate(31.82 201.946) rotate(-5.2)"/><rect class="d" width="351.747" height="139.131" transform="translate(38.026 205.305) rotate(-5.2)"/><path class="j" d="M219.875,417.659,213.8,340.481s31.354-33.313,94.648-8.622,93.14,7.26,103.427-9.416,63.687-35.273,80.99-7.378,38.055-3.469,38.055-3.469l7.015,77.081Z" transform="translate(-155.698 -98.647)"/><line class="o" x2="0.529" y2="5.859" transform="translate(96.05 225.02)"/><line class="p" x2="5.624" y2="61.786" transform="translate(97.607 242.108)"/><line class="o" x2="0.539" y2="5.849" transform="translate(103.741 309.508)"/><line class="o" x2="0.539" y2="5.849" transform="translate(156.297 234.583)"/><line class="q" x2="4.066" y2="44.591" transform="translate(157.992 253.18)"/><line class="o" x2="0.529" y2="5.859" transform="translate(162.637 304.139)"/><line class="o" x2="0.588" y2="5.849" transform="translate(217.77 245.047)"/><line class="r" x2="3.312" y2="33.411" transform="translate(219.308 260.45)"/><line class="o" x2="0.578" y2="5.859" transform="translate(223.1 298.633)"/><line class="o" x2="0.529" y2="5.859" transform="translate(273.021 210.5)"/><line class="s" x2="5.516" y2="60.542" transform="translate(274.549 227.362)"/><line class="o" x2="0.539" y2="5.859" transform="translate(280.565 293.401)"/><line class="o" x2="0.529" y2="5.849" transform="translate(312.898 202.417)"/><line class="t" x2="5.83" y2="64.01" transform="translate(314.486 219.906)"/><line class="o" x2="0.539" y2="5.849" transform="translate(320.845 289.736)"/><circle class="k" cx="4.899" cy="4.899" r="4.899" transform="translate(90.541 220.208) rotate(-5.2)"/><circle class="e" cx="4.899" cy="4.899" r="4.899" transform="translate(150.504 230.496) rotate(-5.2)"/><circle class="g" cx="4.899" cy="4.899" r="4.899" transform="translate(212.431 240.598) rotate(-5.2)"/><circle class="u" cx="6.859" cy="6.859" r="6.859" transform="translate(265.206 204.312) rotate(-5.2)"/><circle class="v" cx="6.859" cy="6.859" r="6.859" transform="translate(305.832 196.683) rotate(-5.2)"/><circle class="l" cx="4.899" cy="4.899" r="4.899" transform="translate(267.335 206.086) rotate(-5.2)"/><circle class="l" cx="4.899" cy="4.899" r="4.899" transform="translate(307.96 198.457) rotate(-5.2)"/><circle class="g" cx="4.899" cy="4.899" r="4.899" transform="translate(370.054 210.514) rotate(-5.2)"/><g class="h" transform="translate(385.315 312.236)"><path class="w" d="M547.76,413.2l.068.225C548.583,413,547.76,413.2,547.76,413.2Z" transform="translate(-547.76 -413.154)"/></g><g class="h" transform="translate(318.382 307.659)"><path class="x" d="M538.267,577.691l15.951-2.577-2.195-9.8h0v-.137h-.059L540.658,513.25V475.381a13.984,13.984,0,0,0-.078-1.44c16.892-22.4,6.859-57.544,5.879-60.61-.176.088-.441.206-.813.353a20.651,20.651,0,0,0-.774-4.047s-4.9-3.116-7.574.892c-2.332,3.5-.6,5.634-.118,6.134l-.333.108a11.286,11.286,0,0,1,1.548,3.86,8.473,8.473,0,0,0-.529-.98c-.617-.108-.98-.206-.98-.206l-.118-.108-.333.108c1.7,2.479,2.293,6.859,2.214,12.052a17,17,0,0,0-1.96-2.263,17.293,17.293,0,0,0-11.464-4.781h-.813a10.149,10.149,0,0,0-1.333.088h-.333l-.558.078-.637.118-.461.1-.794.216-.294.088c-.333.108-.656.216-.98.343a16.9,16.9,0,0,1-3.361,1.215,1.636,1.636,0,0,0-.48.049h0a5.6,5.6,0,0,1-3.674-1.048l-.353-.274a5.166,5.166,0,0,1-.382-.363,2.489,2.489,0,0,0-.167,1.068,3.282,3.282,0,0,0,1.146,2.224,3.11,3.11,0,0,0,.607.411,2.625,2.625,0,0,0,1.039.294h.284c-.225.108-.451.206-.686.294h-.049c-.255.088-.5.167-.764.235h0a8.5,8.5,0,0,1-3.919.059h0l-.421-.1c-.206-.059-.421-.118-.617-.186a4.694,4.694,0,0,0,.216.431l.078.127.176.274.108.137.2.245.118.127.245.245.1.088.362.3.127.088.265.186.176.108.235.137.2.1.245.108.206.088.274.1.343.1.255.069h1.7a4.9,4.9,0,0,0,1.47-.362l-.9.372h0l-.451.157-.461.167-.46.137-.47.137-.461.118-.49.118-.451.088-.519.088-.431.069-.559.069h-2.351a4.125,4.125,0,0,1,1.479.784,3.921,3.921,0,0,0,.911.49,3.509,3.509,0,0,0,.441.1h2.195a6.408,6.408,0,0,1,2.538.813,4.559,4.559,0,0,1,1.088.98c-.137.225-.274.441-.392.676s-.206.392-.3.6a12.217,12.217,0,0,0-.519,1.244,13.8,13.8,0,0,0-.843,4.752v1.137a3.24,3.24,0,0,0,.078.705v.186q.059.431.157.852v.167q.078.353.176.7l.059.206a13.719,13.719,0,0,0,.6,1.627l.069.157q.167.362.343.705v.069q.216.392.451.774v.059q.216.353.46.686l.059.078a13.886,13.886,0,0,0,1.146,1.382h0a13.853,13.853,0,0,0,3.694,2.773,6.157,6.157,0,0,0-.108.637h0a6.221,6.221,0,0,0,0,.666v5.173q-.441.235-.862.5c-12.277-5.575-30.56-45.071-30.56-45.071h-.441c1.783-1.333,0-7.133,0-7.133A8.365,8.365,0,0,0,484.8,409.9h-1.578l-.2.059h-.1l-.294.108h0l-.274.127-.1.049-.186.108-.127.6-.176.118-.108.088-.167.137-.108.1-.167.157-.1.108-.167.2-.078.1-.245.333c-2.675,4.007,0,6.241,0,6.241a39.932,39.932,0,0,0-.245,4.654c-.2,28.865,30.7,51.234,32.275,52.351-.7,1.8-6.437,17.773.069,37.712a.625.625,0,0,0,.078.137,57.887,57.887,0,0,0-17.362,54.751l.127.6h.284a3.95,3.95,0,0,1-.108.392,4.508,4.508,0,0,1-.284.686,5.319,5.319,0,0,1-.715,1.048h0c-.3.353-.656.705-1.029,1.068l-.392.372c-1.558,1.489-3.135,2.939-1.96,3.527h16.862v-7.358h.294s-.118-.225-.294-.666v-.078h-.059c-.882-2.273-2.939-9.308.353-20.145,4.007-13.374,19.6-20.057,19.6-20.057l.284.98h-.059l12.228,40.172a1.633,1.633,0,0,1-.049.48,6.54,6.54,0,0,1-.265,1.117,7.1,7.1,0,0,1-.333.823c-.755,1.558-2.058,3.39-2.626,4.762a4.586,4.586,0,0,0-.206.578,1.781,1.781,0,0,0-.069.686.793.793,0,0,0,.519.656h.225l.47-.078Zm-4.723-114.372q-.461-.255-.98-.48v-4.86a6.183,6.183,0,0,0-.108-1.107,13.828,13.828,0,0,0,2.939-1.891c-.588,3-1.244,5.869-1.842,8.338Z" transform="translate(-479.447 -408.482)"/></g><path class="y" d="M480.353,422.9s-2.939-2.469,0-6.917,8.4-.98,8.4-.98,1.96,6.418,0,7.9S480.353,422.9,480.353,422.9Z" transform="translate(-161.057 -100.929)"/><path class="z" d="M511.146,591.75H497.536a4.468,4.468,0,0,1-1.284,3.5c-1.832,2.116-5.516,4.674-3.782,5.546h18.675Z" transform="translate(-161.319 -104.526)"/><path class="aa" d="M497.242,595.248a4.469,4.469,0,0,0,1.284-3.5h-.98a4.468,4.468,0,0,1-1.284,3.5c-1.832,2.116-5.516,4.674-3.782,5.546h.98C491.726,599.921,495.41,597.374,497.242,595.248Z" transform="translate(-161.319 -104.526)"/><path class="z" d="M560.659,588.89l-12.737,2.067a6.486,6.486,0,0,1-.578,4.488c-1.391,2.939-4.517,6.6-2.636,7.4l18.44-2.939Z" transform="translate(-162.371 -104.468)"/><path class="ab" d="M554.311,416.939s14.57,45.962-9.867,71.408l-7.055-5.4s14.442-50.166,6.359-61.943C558.015,416.253,554.311,416.939,554.311,416.939Z" transform="translate(-162.235 -100.994)"/><path class="y" d="M544.353,420.891s-2.939-2.469,0-6.917,8.4-.98,8.4-.98,1.96,6.418,0,7.9S544.353,420.891,544.353,420.891Z" transform="translate(-162.349 -100.889)"/><path class="aa" d="M548.323,595.454a6.485,6.485,0,0,0,.578-4.5L560.659,589v-.157l-12.737,2.116a6.486,6.486,0,0,1-.578,4.488c-1.391,2.939-4.517,6.6-2.636,7.4l.774-.127C544.081,601.734,546.991,598.217,548.323,595.454Z" transform="translate(-162.371 -104.467)"/><rect class="y" width="13.825" height="20.488" rx="6.912" transform="translate(362.996 358.763)"/><path class="aa" d="M538.369,486.05s14.266-49.548,6.5-61.727c-.686-.127-1.127-.225-1.127-.225l-.127-.118-.362.118c8.083,11.758-6.359,61.943-6.359,61.943l7.055,5.4.617-.666Z" transform="translate(-162.225 -101.136)"/><circle class="y" cx="15.304" cy="15.304" r="15.304" transform="translate(354.854 335.316)"/><path class="aa" d="M526.536,473.737v-6.663a6.845,6.845,0,0,1,.157-1.45,15.3,15.3,0,0,1,6.133-28.894h-.862a15.3,15.3,0,0,0-7.006,28.914,6.859,6.859,0,0,0-.157,1.45v6.663a6.859,6.859,0,0,0,7.78,6.859,6.937,6.937,0,0,1-6.046-6.878Z" transform="translate(-161.816 -101.394)"/><path class="ab" d="M547.459,529s-29.521,3.331-30.609,0c-7.652-23.456,0-41.965,0-41.965a15.3,15.3,0,0,1,15.3-15.3h0a15.3,15.3,0,0,1,15.3,15.3Z" transform="translate(-161.751 -102.101)"/><path class="ac" d="M547.1,530.18l13.335,61.228H547.1l-13.825-45.423s-17.284,7.407-21.722,22.222,0,23.2,0,23.2H497.227l-.147-.666a63.687,63.687,0,0,1,19.4-60.561h0" transform="translate(-161.392 -103.282)"/><path class="aa" d="M518.569,529c-7.652-23.456,0-41.965,0-41.965a15.3,15.3,0,0,1,14.317-15.275H531.9a15.3,15.3,0,0,0-15.3,15.3s-7.652,18.518,0,41.965c.392,1.2,4.429,1.528,9.445,1.479C521.969,530.421,518.883,530.029,518.569,529Z" transform="translate(-161.747 -102.102)"/><path class="ab" d="M515.931,485.8s-39.5-27.65-35.547-62.707h8.887s21.222,45.962,34.822,50.371S515.931,485.8,515.931,485.8Z" transform="translate(-161.078 -101.119)"/><g class="h" transform="translate(334.271 427.143)"><path class="d" d="M534.31,547.393l13.57,44.591h1.96L536.015,546.56S535.378,546.834,534.31,547.393Z" transform="translate(-496.444 -530.756)"/><path class="d" d="M518.46,530.43H516.5a63.687,63.687,0,0,0-19.4,60.561l.147.666h1.96l-.147-.666A63.687,63.687,0,0,1,518.46,530.43Z" transform="translate(-495.663 -530.43)"/></g><path class="aa" d="M481.864,423.6h-1.479c-3.919,35.057,35.547,62.707,35.547,62.707l.98-.372C512.336,482.554,478.17,456.325,481.864,423.6Z" transform="translate(-161.078 -101.129)"/><path class="ac" d="M519.616,445.035A25.335,25.335,0,0,1,521.4,451.2c.98,4.292,3.194,8.573,7.006,10.778a15.551,15.551,0,0,0,6.859,1.871c3.645.225,7.594-.48,10.17-3.067a12.6,12.6,0,0,0,3.106-6.261,21.193,21.193,0,0,0-5.575-19.478,18.8,18.8,0,0,0-19.6-4.105,18.712,18.712,0,0,1-3.713,1.352,6.183,6.183,0,0,1-5.418-1.8,3.42,3.42,0,0,0,3.3,4.429,9.534,9.534,0,0,1-7.309.392,6.2,6.2,0,0,0,7.838,3.126,20.889,20.889,0,0,1-8.818,1.8c.637,0,1.881,1.176,2.655,1.411a16.835,16.835,0,0,0,2.939.206A5.7,5.7,0,0,1,519.616,445.035Z" transform="translate(-161.667 -101.253)"/><g class="h" transform="translate(347.544 328.498)"><path class="d" d="M517.675,434.909a9.435,9.435,0,0,1-3.625.931,9.5,9.5,0,0,0,4.615-.931,3.459,3.459,0,0,1-3.469-3.733,5.822,5.822,0,0,1-.823-.7,3.419,3.419,0,0,0,3.3,4.429Z" transform="translate(-509.308 -429.765)"/><path class="d" d="M520.879,432.3a18.713,18.713,0,0,0,3.713-1.352,17.033,17.033,0,0,1,5.879-1.186,17.206,17.206,0,0,0-6.859,1.186A18.719,18.719,0,0,1,519.9,432.3a1.627,1.627,0,0,0-.529.059,5.883,5.883,0,0,0,1.509-.059Z" transform="translate(-509.415 -429.751)"/><path class="d" d="M512.845,441.834c-.774-.225-2.018-1.391-2.655-1.411a20.89,20.89,0,0,0,8.818-1.8,5.467,5.467,0,0,1-1.96.412,20.9,20.9,0,0,1-7.838,1.391c.637,0,1.881,1.176,2.655,1.411a6.574,6.574,0,0,0,2.058.167A4.288,4.288,0,0,1,512.845,441.834Z" transform="translate(-509.21 -429.93)"/><path class="d" d="M536.378,464.106a15.547,15.547,0,0,1-6.858-1.871c-3.812-2.224-5.987-6.506-7.006-10.778a25.341,25.341,0,0,0-1.783-6.163,5.7,5.7,0,0,0-4.83-3.165,9.878,9.878,0,0,0-1.47,0h.48a5.7,5.7,0,0,1,4.83,3.165,25.319,25.319,0,0,1,1.783,6.163c.98,4.292,3.194,8.573,7.006,10.778a15.548,15.548,0,0,0,6.859,1.871h.99Z" transform="translate(-509.315 -430)"/><path class="d" d="M516.453,438.927a6.251,6.251,0,0,1-5.016-3.2,9.123,9.123,0,0,1-1.146-.323,6.251,6.251,0,0,0,6.163,3.527Z" transform="translate(-509.232 -429.865)"/></g><path class="aa" d="M481.343,422.9s-2.939-2.469,0-6.917a4.732,4.732,0,0,1,3.664-2.244,4.8,4.8,0,0,0-4.644,2.244c-2.939,4.448,0,6.917,0,6.917a26.769,26.769,0,0,0,5.81.647,29.229,29.229,0,0,1-4.83-.647Z" transform="translate(-161.057 -100.929)"/><g class="h" transform="translate(35.833 321.901)"><path class="ad" d="M191.462,423.324l.078-.265S190.541,422.863,191.462,423.324Z" transform="translate(-191.072 -423.018)"/></g><g class="h" transform="translate(15.481 316.365)"><path class="ae" d="M283.369,439.631a6.456,6.456,0,0,0-.353-.911c0-.1-.1-.176-.147-.265a5.482,5.482,0,0,0-.294-.51l-.2-.255a4.977,4.977,0,0,0-.323-.382l-.225-.225q-.176-.162-.353-.294l-.245-.176-.392-.235-.245-.127-.441-.186-.225-.088a5.412,5.412,0,0,0-.637-.176h0a10.12,10.12,0,0,0-4.3.118s-4.105,6.055-2.528,8.23l-.519-.157s-30.5,34.038-47.706,40.358q-.657-.451-1.362-.843v-6.369a7.522,7.522,0,0,0,0-.8h0a7.451,7.451,0,0,0-.127-.754l.127-.069.509-.284.735-.451.47-.3a9.763,9.763,0,0,0,.98-.764l.382-.333q.353-.294.676-.617l.392-.382q.411-.421.784-.862l.274-.333q.353-.441.676-.9l.274-.412q.294-.451.559-.921l.176-.3a13.412,13.412,0,0,0,.6-1.254l.157-.382q.206-.519.382-1.048a1.816,1.816,0,0,1,.118-.372c.137-.461.265-.921.363-1.4a.584.584,0,0,1,.049-.284q.118-.6.186-1.215v-.411c0-.5.078-.98.078-1.519a16.659,16.659,0,0,0-3.7-10.476c1.3-2.036,2.157-3.241,2.157-3.241-.784-.539-1.558-1.029-2.322-1.509l-.745-.441c-.51-.3-.98-.608-1.529-.882l-.852-.451c-.461-.245-.911-.48-1.362-.7l-.872-.4-1.3-.568-.852-.343c-.431-.167-.862-.323-1.284-.47l-.8-.274c-.441-.137-.882-.265-1.313-.382l-.715-.2c-.49-.118-.98-.215-1.46-.314l-.519-.108c-.656-.117-1.3-.206-1.96-.265h0a23.23,23.23,0,0,0-11.758,1.8c.2-4.683.98-8.544,2.626-10.935l-.4-.137-.137.137s-.48.108-1.235.245a10.222,10.222,0,0,0-.637,1.186,13.629,13.629,0,0,1,1.871-4.664l-.4-.137c.578-.6,2.675-3.174-.137-7.4-3.233-4.84-9.151-1.078-9.151-1.078a25.042,25.042,0,0,0-.921,4.9c-.451-.186-.774-.323-.98-.431a121.981,121.981,0,0,0-4.6,30.726c-10.67,15.148-15.079,37.507-15.941,42.327h0l-.069.382h0c-.059.353-.088.539-.088.539l27.738.647v44.208l-20.194,42.709s7.682.245,19.243,1.724l-3.194,22.839h0l-1.068,6.408h19.224c2.136-4.272-8.544-6.408-8.544-6.408h-.235l4.164-21.311q2.763.46,5.683.98a55.664,55.664,0,0,0,8.652.98h0a45.975,45.975,0,0,0,7.2-.314c1.411,11.552-.441,18.45-.794,19.6h-.108L227,615.671h19.224c1.862-3.723-6.016-5.83-8.064-6.3l.088-.627A107.2,107.2,0,0,0,239,586.992a26.331,26.331,0,0,0,6.859-4.086h0l.265-.235h0l.078-.078L231.89,542.422c2.675-11.366-6.633-23.3-1.666-29.267s1.96-13.58,1.372-14.883c13.443-5.879,40.613-20.576,48.235-46.051a48.182,48.182,0,0,0,1.362-5.457S285.034,445.206,283.369,439.631Z" transform="translate(-170.3 -417.368)"/></g><path class="af" d="M194.491,430.939s-14.57,45.962,9.867,71.408l7.055-5.4s-14.442-50.166-6.359-61.943C190.788,430.253,194.491,430.939,194.491,430.939Z" transform="translate(-155.221 -101.276)"/><path class="ag" d="M204.669,434.891s2.939-2.469,0-6.917-8.4-.98-8.4-.98-1.96,6.418,0,7.9S204.669,434.891,204.669,434.891Z" transform="translate(-155.326 -101.171)"/><rect class="ag" width="13.825" height="20.488" rx="6.912" transform="translate(68.351 392.968) rotate(180)"/><path class="aa" d="M210.658,500.05s-14.266-49.548-6.5-61.727c.686-.127,1.127-.225,1.127-.225l.127-.118.363.118c-8.083,11.758,6.359,61.943,6.359,61.943l-7.055,5.4-.617-.666Z" transform="translate(-155.456 -101.419)"/><circle class="ag" cx="15.304" cy="15.304" r="15.304" transform="translate(45.884 349.033)"/><path class="aa" d="M222.37,487.737v-6.663a6.86,6.86,0,0,0-.157-1.45,15.3,15.3,0,0,0-6.134-28.894h.862a15.3,15.3,0,0,1,7.006,28.914,6.86,6.86,0,0,1,.157,1.45v6.663a6.858,6.858,0,0,1-7.78,6.859A6.937,6.937,0,0,0,222.37,487.737Z" transform="translate(-155.744 -101.677)"/><path class="af" d="M201.08,543s29.521,3.331,30.609,0c3.527-10.778-5.879-22.428-1.176-28.12,4.9-5.879,1.176-13.845,1.176-13.845a15.3,15.3,0,0,0-15.3-15.3h0a15.3,15.3,0,0,0-15.3,15.3Z" transform="translate(-155.441 -102.384)"/><path class="aa" d="M230.848,514.879c4.9-5.879,1.176-13.845,1.176-13.845a15.3,15.3,0,0,0-15.3-15.3,6.5,6.5,0,0,0-.98.049,15.3,15.3,0,0,1,14.325,15.256s3.723,7.966-1.176,13.845c-4.742,5.693,4.7,17.333,1.176,28.12-.333,1.029-3.38,1.421-7.427,1.48,4.987.049,9-.284,9.386-1.48C235.591,532.2,226.106,520.572,230.848,514.879Z" transform="translate(-155.737 -102.384)"/><path class="ag" d="M225.348,543.18h0c10.778,15.275,15.549,38.359,12.463,60.561l-.088.666h-9.2s2.851-8.4,0-23.2a36.634,36.634,0,0,0-13.952-22.222l-8.877,45.423H197.13l8.563-61.228Z" transform="translate(-155.361 -103.545)"/><path class="ag" d="M278.718,453.1s3.557-1.489,2.028-6.614-7.74-3.4-7.74-3.4-3.772,5.555-2.312,7.554S278.718,453.1,278.718,453.1Z" transform="translate(-156.841 -101.517)"/><path class="af" d="M225.243,502.795s45.864-14.863,52.36-49.539l-8.495-2.606S235.354,488.333,221.1,488.6,225.243,502.795,225.243,502.795Z" transform="translate(-155.736 -101.675)"/><path class="aa" d="M276.223,453.35l1.421.431c-6.5,34.675-52.36,49.538-52.36,49.538l-.813-.637C229.888,500.8,270.168,485.693,276.223,453.35Z" transform="translate(-155.914 -101.73)"/><g class="h" transform="translate(48.363 439.635)"><path class="d" d="M212.737,559.31l-8.877,45.423h1.96l8.622-44.091A21.189,21.189,0,0,0,212.737,559.31Z" transform="translate(-203.86 -543.506)"/><path class="d" d="M225.89,543.18h-1.96c10.778,15.275,15.549,38.359,12.463,60.561l-.088.666h1.96l.088-.666C241.439,581.539,236.687,558.455,225.89,543.18Z" transform="translate(-204.265 -543.18)"/></g><path class="aa" d="M277.821,452.8s3.557-1.489,2.028-6.614a4.732,4.732,0,0,0-2.841-3.224,4.8,4.8,0,0,1,3.782,3.508c1.528,5.115-2.028,6.614-2.028,6.614A26.764,26.764,0,0,1,273.02,452,29.235,29.235,0,0,0,277.821,452.8Z" transform="translate(-156.894 -101.52)"/><path class="ac" d="M200.7,542.48,182.08,581.672a230.221,230.221,0,0,1,32.333,3.919c20.576,3.919,30.374-5.879,30.374-5.879L231.511,542.48Z" transform="translate(-155.057 -103.531)"/><path class="ah" d="M205.918,605.48s9.8,1.959,7.838,5.879H196.12l.98-5.879Z" transform="translate(-155.341 -104.803)"/><path class="ah" d="M237.918,605.48s9.8,1.959,7.838,5.879H228.12l.98-5.879Z" transform="translate(-155.987 -104.803)"/><path class="ai" d="M229.989,453.34s-23.515,33.313-12.737,47.03l-42.131-.98S186.878,423.946,229.989,453.34Z" transform="translate(-154.917 -101.592)"/><path class="aa" d="M229.989,453.342c-6.075-4.145-11.522-6.2-16.412-6.682a41.473,41.473,0,0,1,11.513,5.7s-23.515,33.313-12.737,47.03l-37.085-.862c-.1.558-.147.862-.147.862l42.131.98C206.474,486.655,229.989,453.342,229.989,453.342Z" transform="translate(-154.917 -101.595)"/><path class="aa" d="M232.391,542.48h-2.939l13.276,37.232s-6.329,6.32-19.5,6.77c15.157.49,22.437-6.77,22.437-6.77Z" transform="translate(-155.888 -103.531)"/><path class="aa" d="M206.08,605.48h-1.96s9.8,1.959,7.838,5.879h1.96C215.878,607.439,206.08,605.48,206.08,605.48Z" transform="translate(-155.502 -104.803)"/><path class="aa" d="M238.08,605.48h-1.96s9.8,1.959,7.838,5.879h1.96C247.878,607.439,238.08,605.48,238.08,605.48Z" transform="translate(-156.149 -104.803)"/><rect class="b" width="375.263" height="14.207" transform="translate(490.506 164.292)"/><rect class="c" width="389.96" height="485.98" transform="translate(483.041 159.756)"/><rect class="d" width="375.263" height="450.217" transform="translate(490.506 178.5)"/><circle class="e" cx="3.429" cy="3.429" r="3.429" transform="translate(495.778 168.212)"/><circle class="f" cx="3.429" cy="3.429" r="3.429" transform="translate(505.203 168.212)"/><circle class="aj" cx="3.429" cy="3.429" r="3.429" transform="translate(514.639 168.212)"/><g class="h" transform="translate(514.021 198.585)"><rect class="i" width="329.212" height="8.818"/></g><rect class="c" width="142.071" height="150.889" transform="translate(512.062 236.798)"/><rect class="d" width="136.192" height="141.091" transform="translate(515.001 241.697)"/><rect class="c" width="142.071" height="150.889" transform="translate(701.163 312.242)"/><rect class="d" width="136.192" height="141.091" transform="translate(704.103 317.141)"/><rect class="c" width="334.111" height="103.859" transform="translate(515.001 498.404)"/><path class="ak" d="M0,0H321.374V93.081H0Z" transform="translate(521.86 505.262)"/><path class="m" d="M540.458,524.5H853.994V515.68H532.62v93.081h7.838Z" transform="translate(-10.76 -10.418)"/><path class="al" d="M793.888,372.274a60.747,60.747,0,1,0,14.7,39.633A60.747,60.747,0,0,0,793.888,372.274Zm-24.495,75.9a24,24,0,1,1,.029,0Z" transform="translate(-165.259 -99.665)"/><path class="am" d="M779.543,385.768l13.374-11.513a57.661,57.661,0,0,0-43.8-20.1V371.8A40.084,40.084,0,0,1,779.543,385.768Z" transform="translate(-166.512 -99.726)"/><path class="g" d="M748.628,454.034a39.917,39.917,0,0,1-16.578-3.6l-7.28,16.078a57.808,57.808,0,0,0,53.389-2.939L769.145,448.4A39.917,39.917,0,0,1,748.628,454.034Z" transform="translate(-166.021 -101.63)"/><path class="k" d="M807.351,412.372A57.563,57.563,0,0,0,793.34,374.66l-13.374,11.513a40.1,40.1,0,0,1-9.906,60.747l9.014,15.177a57.808,57.808,0,0,0,28.277-49.725Z" transform="translate(-166.935 -100.14)"/><path class="l" d="M707.756,411.958a40.172,40.172,0,0,1,40.172-40.172V354.15A57.808,57.808,0,0,0,724.07,464.612l7.28-16.078A40.171,40.171,0,0,1,707.756,411.958Z" transform="translate(-165.321 -99.726)"/><rect class="c" width="103.859" height="17.636" transform="translate(722.719 337.717)"/><rect class="l" width="101.899" height="15.677" transform="translate(723.698 338.697)"/><rect class="am" width="74.465" height="15.677" transform="translate(723.698 365.151)"/><rect class="g" width="50.949" height="15.677" transform="translate(723.698 391.606)"/><rect class="k" width="92.101" height="15.677" transform="translate(723.698 418.06)"/><rect class="b" width="145.99" height="8.818" transform="translate(515.001 411.202)"/><rect class="b" width="82.303" height="8.818" transform="translate(515.001 425.899)"/><rect class="b" width="28.414" height="8.818" transform="translate(612.001 425.899)"/><rect class="b" width="28.414" height="8.818" transform="translate(612.001 458.232)"/><rect class="b" width="82.303" height="8.818" transform="translate(515.001 455.292)"/><rect class="b" width="145.99" height="8.818" transform="translate(515.001 440.596)"/><rect class="b" width="145.99" height="8.818" transform="translate(699.203 237.777)"/><rect class="b" width="82.303" height="8.818" transform="translate(699.203 252.474)"/><rect class="b" width="28.414" height="8.818" transform="translate(796.203 252.474)"/><rect class="b" width="28.414" height="8.818" transform="translate(796.203 284.808)"/><rect class="b" width="82.303" height="8.818" transform="translate(699.203 281.868)"/><rect class="b" width="145.99" height="8.818" transform="translate(699.203 267.171)"/><circle class="c" cx="10.778" cy="10.778" r="10.778" transform="translate(734.476 663.99)"/><circle class="an" cx="7.838" cy="7.838" r="7.838" transform="translate(737.416 666.929)"/><rect class="c" width="337.051" height="118.556" transform="translate(426.82 555.232)"/><rect class="d" width="321.374" height="93.081" transform="translate(436.618 560.131)"/><line class="ao" x2="297.859" transform="translate(447.396 635.575)"/><rect class="c" width="44.091" height="53.889" transform="translate(450.335 578.747)"/><rect class="l" width="39.192" height="49.97" transform="translate(452.784 581.197)"/><rect class="g" width="39.192" height="15.677" transform="translate(698.224 616.959)"/><rect class="k" width="39.192" height="35.273" transform="translate(624.739 596.383)"/><rect class="am" width="39.192" height="29.394" transform="translate(538.517 602.262)"/><rect class="ap" width="321.374" height="13.717" transform="translate(436.618 653.212)"/><circle class="c" cx="10.778" cy="10.778" r="10.778" transform="translate(439.557 663.99)"/><circle class="an" cx="7.838" cy="7.838" r="7.838" transform="translate(442.496 666.929)"/><path class="aq" d="M598.34,680.065v-.794a.471.471,0,0,0-.059-.3,3.323,3.323,0,0,1-.118-.431c-.049-.137-.059-.186-.1-.284s-.118-.274-.177-.411l-.118-.245c-.078-.137-.167-.274-.255-.4l-.127-.186a6.494,6.494,0,0,0-.411-.509h0a9.423,9.423,0,0,0-2.734-2.018A7.889,7.889,0,0,0,596,671.462a6.27,6.27,0,0,0,.235-.921v-.284a5.294,5.294,0,0,0,.049-.568V668.9a.471.471,0,0,0-.059-.3,3.341,3.341,0,0,1-.118-.431c-.049-.137-.059-.186-.1-.284s-.118-.274-.176-.411l-.118-.245c-.078-.137-.167-.274-.255-.4l-.127-.186a6.486,6.486,0,0,0-.412-.509h0a9.864,9.864,0,0,0-3.478-2.352s-6.222,2.3-6.633,4.83c-4.566.98-31.177,6.515-49.45,6.075l-.137-.362a16.255,16.255,0,0,0-8.651-14.374v-6.153a7.267,7.267,0,0,0,0-.784h0a7.27,7.27,0,0,0-.118-.745l.118-.069.5-.274.725-.441.46-.3q.51-.353.98-.745l.372-.323c.225-.2.441-.392.656-.6l.382-.372q.4-.411.764-.843l.265-.333q.343-.431.656-.882l.265-.4q.284-.441.549-.9l.167-.294c.215-.392.411-.8.588-1.215l.147-.372q.206-.5.372-.98l.118-.363c.137-.451.255-.9.353-1.362a.548.548,0,0,1,.049-.274q.108-.588.176-1.186v-.4c0-.49.078-.98.078-1.48a16.175,16.175,0,0,0-2.086-7.945c1.048-.256,1.684-.462,1.606-.56-.4-.539-.8-1.048-1.225-1.538l-.4-.46c-.294-.333-.578-.647-.872-.98l-.47-.48c-.294-.294-.588-.568-.882-.833l-.46-.411q-.558-.47-1.117-.911l-.245-.2c-.451-.333-.9-.647-1.362-.98l-.51-.314c-.294-.186-.6-.362-.9-.519l-.608-.314-.843-.4-.617-.274c-.294-.127-.6-.235-.9-.343l-.558-.206c-.451-.147-.9-.284-1.352-.4l-.7-.157-.755-.157-.755-.118-.7-.078-.774-.069h-1.44q-.637,0-1.274.059h0c-10.023.823-18.8,9.573-18.8,23.515v11.5h15.677v5.232a16.255,16.255,0,0,0-9.445,14.746v44.591l-13.306,61.13h-.176l-2.616,11.669,18.773,3.037h0l.813.127c1.96-.843-1.323-4.791-2.8-7.838a8.366,8.366,0,0,1-.392-.98,7.415,7.415,0,0,1-.372-1.9l14.423-47.314H516.7l.343-1.107s18.361,7.838,23.084,23.6c3.831,12.737,1.45,21.026.411,23.711h-.068v.157c-.206.509-.353.794-.353.794h.353v8.651h19.851c1.842-.931-2.067-3.645-4.017-5.879a5.552,5.552,0,0,1-1.293-2.5h.333l.157-.705a68.125,68.125,0,0,0-20.438-64.441.755.755,0,0,0,.088-.166,72.951,72.951,0,0,0,3.439-17.7c15.177,1.45,35.371.412,50.469-11.287a47.072,47.072,0,0,0,4.125-3.508c1.3-.1,3.586-.823,4.85-4.507a6.28,6.28,0,0,0,.235-.921v-.284A5.332,5.332,0,0,0,598.34,680.065Z" transform="translate(-161.204 -105.08)"/><path class="ar" d="M519.448,698.592s45.953,14.609,71.408-9.8l-5.4-7.064s-49.382,11-61.149,2.939S519.448,698.592,519.448,698.592Z" transform="translate(-161.832 -106.344)"/><path class="aa" d="M589.59,688l.9,1.176c-25.475,24.417-71.408,9.8-71.408,9.8s-.118-.372-.294-.98C524.267,699.63,565.84,710.81,589.59,688Z" transform="translate(-161.859 -106.47)"/><path class="as" d="M591.265,688.693s3.762.852,5.5-4.193-4.311-7.27-4.311-7.27-6.3,2.322-6.281,4.791S591.265,688.693,591.265,688.693Z" transform="translate(-163.221 -106.253)"/><path class="aa" d="M590.689,687.945s3.763.853,5.5-4.193a4.733,4.733,0,0,0-.441-4.272,4.8,4.8,0,0,1,1.039,5.056c-1.734,5.056-5.5,4.194-5.5,4.194a26.752,26.752,0,0,1-4.037-4.223A29.2,29.2,0,0,0,590.689,687.945Z" transform="translate(-163.242 -106.298)"/><path class="at" d="M541.7,781.75h13.609a4.469,4.469,0,0,0,1.284,3.5c1.832,2.116,5.516,4.674,3.782,5.546H541.7Z" transform="translate(-162.322 -108.364)"/><path class="aa" d="M555.863,785.248a4.468,4.468,0,0,1-1.284-3.5h.98a4.468,4.468,0,0,0,1.284,3.5c1.832,2.116,5.516,4.674,3.782,5.546h-.98C561.379,789.922,557.7,787.374,555.863,785.248Z" transform="translate(-162.582 -108.364)"/><path class="at" d="M492.179,778.89l12.737,2.087a6.486,6.486,0,0,0,.578,4.487c1.391,2.939,4.517,6.6,2.636,7.4l-18.44-2.939Z" transform="translate(-161.271 -108.307)"/><path class="aa" d="M504.575,785.454a6.487,6.487,0,0,1-.578-4.487l-11.807-1.96v-.157l12.737,2.087a6.485,6.485,0,0,0,.578,4.487c1.391,2.939,4.517,6.6,2.636,7.4l-.774-.127C508.817,791.734,505.907,788.217,504.575,785.454Z" transform="translate(-161.322 -108.306)"/><rect class="as" width="13.825" height="20.488" rx="6.912" transform="translate(366.209 565.412) rotate(180)"/><circle class="as" cx="15.304" cy="15.304" r="15.304" transform="translate(343.743 521.478)"/><path class="aa" d="M526.37,663.737v-6.663a6.85,6.85,0,0,0-.157-1.45,15.3,15.3,0,0,0-6.134-28.894h.862a15.3,15.3,0,0,1,7.005,28.914,6.837,6.837,0,0,1,.157,1.45v6.662a6.858,6.858,0,0,1-7.779,6.859A6.937,6.937,0,0,0,526.37,663.737Z" transform="translate(-161.885 -105.233)"/><path class="ar" d="M505.08,719s29.521,3.331,30.609,0c7.652-23.456,0-41.965,0-41.965a15.3,15.3,0,0,0-15.3-15.3h0a15.3,15.3,0,0,0-15.3,15.3Z" transform="translate(-161.582 -105.94)"/><path class="ac" d="M504.8,720.18,491.47,781.408H504.8l13.825-45.423s17.284,7.407,21.722,22.222,0,23.2,0,23.2H554.7l.147-.666a63.687,63.687,0,0,0-19.4-60.561h0" transform="translate(-161.307 -107.12)"/><path class="aa" d="M534.265,719c7.652-23.456,0-41.965,0-41.965a15.305,15.305,0,0,0-14.317-15.275h.982a15.3,15.3,0,0,1,15.3,15.3s7.652,18.518,0,41.965c-.392,1.2-4.429,1.529-9.445,1.48C530.865,720.42,533.932,720.029,534.265,719Z" transform="translate(-161.883 -105.94)"/><g class="h" transform="translate(341.538 613.305)"><path class="d" d="M518.61,737.393l-13.57,44.591h-1.96L516.9,736.56S517.542,736.834,518.61,737.393Z" transform="translate(-503.08 -720.756)"/><path class="d" d="M534.31,720.43h1.96a63.686,63.686,0,0,1,19.4,60.561l-.147.666h-1.96l.147-.666A63.687,63.687,0,0,0,534.31,720.43Z" transform="translate(-503.711 -720.43)"/></g><path class="ar" d="M517.448,688.592s45.952,14.609,71.408-9.8l-5.4-7.064s-49.382,11-61.149,2.939S517.448,688.592,517.448,688.592Z" transform="translate(-161.792 -106.141)"/><path class="aa" d="M587.59,678l.9,1.176c-25.475,24.416-71.408,9.8-71.408,9.8s-.118-.372-.294-.98C522.267,689.63,563.84,700.81,587.59,678Z" transform="translate(-161.819 -106.268)"/><path class="as" d="M589.265,678.693s3.762.852,5.5-4.193-4.311-7.27-4.311-7.27-6.3,2.322-6.281,4.791S589.265,678.693,589.265,678.693Z" transform="translate(-163.18 -106.051)"/><path class="aa" d="M588.689,677.945s3.762.852,5.5-4.194a4.732,4.732,0,0,0-.441-4.272,4.8,4.8,0,0,1,1.039,5.056c-1.734,5.056-5.5,4.194-5.5,4.194a26.765,26.765,0,0,1-4.037-4.223,29.242,29.242,0,0,0,3.439,3.439Z" transform="translate(-163.202 -106.096)"/><path class="ac" d="M521.655,636.892l-.98,20.576H499.12V646.543c0-21.938,23.192-30.266,36.253-12.639C535.7,634.384,521.655,636.892,521.655,636.892Z" transform="translate(-161.462 -105.185)"/><path class="aa" d="M517.18,624.489c5.5.451,11.15,3.449,15.618,9.475.323.431-13.717,2.939-13.717,2.939l-.98,20.576h2.94l.98-20.576s14.04-2.508,13.717-2.939C530.476,626.85,523.559,624.009,517.18,624.489Z" transform="translate(-161.827 -105.186)"/></svg>