<svg id="hero_img" data-name="hero img" xmlns="http://www.w3.org/2000/svg" width="782.516" height="487.73" viewBox="0 0 782.516 487.73">
  <path id="Path_560" data-name="Path 560" d="M390.824,89.463C359.016,78.686,325.4,69.685,291.089,70.817c-50.452,1.659-98.883,26.947-122.6,64.078-20.123,31.46-22.606,68.334-31.274,103.247-10.668,43.008-31.137,83.894-52.993,123.867C72.485,383.484,60.1,405.422,58.173,428.961c-2.671,32.682,16.074,65.248,45.472,86.987s68.439,33.209,107.624,35.71c20.852,1.331,42.642.1,61.163-7.992,19.6-8.558,33.88-24.021,53.556-32.457,18.232-7.818,39.56-8.911,60.03-7.9a315.689,315.689,0,0,1,78.37,13.888c28.611,8.95,55.216,21.919,83.726,31s60.441,14.145,89.616,6.571c27.427-7.118,49.081-24.4,68.6-41.9a772.147,772.147,0,0,0,87.494-92.195c17.619-22,34.017-45.2,41.805-70.835,14.9-49.013-5.6-104.308-51.066-137.781-37.669-27.731-88.222-39.767-137.707-47.071-45.125-6.661-97.3-7.073-138.841-24.433C468.408,123.977,432.362,103.543,390.824,89.463Z" transform="translate(-57.92 -70.72)" fill="#7ec2eb" opacity="0.1"/>
  <path id="Path_561" data-name="Path 561" d="M632.58,618.047v23.359h7.456l-1.444-25.076Z" transform="translate(-176 -220.058)" fill="#aaabb0"/>
  <path id="Path_562" data-name="Path 562" d="M477.41,610.717v23.359h7.463L483.43,609Z" transform="translate(-132.828 -217.441)" fill="#aaabb0"/>
  <rect id="Rectangle_710" data-name="Rectangle 710" width="9.621" height="41.581" rx="4.811" transform="translate(465.241 354.698)" fill="#aaabb0"/>
  <rect id="Rectangle_711" data-name="Rectangle 711" width="9.621" height="50.794" rx="4.811" transform="translate(341.818 345.478)" fill="#aaabb0"/>
  <path id="Path_563" data-name="Path 563" d="M732.84,234.48s9.621-3.646,11.065,0,2.165,35.151,2.165,35.151h-9.145Z" transform="translate(-245.7 -128.61)" fill="#aaabb0"/>
  <path id="Path_564" data-name="Path 564" d="M581.737,234.48s-9.628-3.646-11.072,0-2.165,35.151-2.165,35.151h9.145Z" transform="translate(-199.977 -128.61)" fill="#aaabb0"/>
  <path id="Path_565" data-name="Path 565" d="M530.354,115.643l-1.444,26.149h6.5V115Z" transform="translate(-147.157 -41.066)" fill="#aaabb0"/>
  <path id="Path_566" data-name="Path 566" d="M581.17,265.616l1.927-37.723s-.722-8.359,22.13-5.787,89.745,7.716,89.745,7.716v35.794Z" transform="translate(-203.502 -124.595)" fill="#33323d"/>
  <path id="Path_567" data-name="Path 567" d="M661.282,598.1l-3.609,57.648s-52.935,26.149-117.173,1.286l5.774-60.651Z" transform="translate(-192.186 -258.399)" fill="#33323d"/>
  <path id="Path_568" data-name="Path 568" d="M580.25,168.668l1.2,37.292h74.588l-4.331-49.29Z" transform="translate(-161.44 -55.943)" fill="#444053"/>
  <rect id="Rectangle_712" data-name="Rectangle 712" width="70.258" height="79.297" transform="translate(356.131 315.046)" fill="#4c4981"/>
  <path id="Path_569" data-name="Path 569" d="M612.83,608.087s10.1-7.073,11.787-4.932-6.005,11.361-9.138,10.287S612.83,608.087,612.83,608.087Z" transform="translate(-212.303 -260.674)" fill="#ffb9b9"/>
  <rect id="Rectangle_713" data-name="Rectangle 713" width="461.192" height="205.749" transform="translate(219.787 138.874)" fill="#504f60"/>
  <path id="Path_570" data-name="Path 570" d="M580.882,156.163s-3.609-30.007,0-33.646,64.238-38.154,120.3,2.353c0,0,5.291.219,4.331,10.93a114.6,114.6,0,0,0,.115,20.363S584.974,163.879,580.882,156.163Z" transform="translate(-202.975 -83.084)" fill="#33323d"/>
  <path id="Path_571" data-name="Path 571" d="M580.882,156.163s-3.609-30.007,0-33.646,64.238-38.154,120.3,2.353c0,0,5.291.219,4.331,10.93a114.6,114.6,0,0,0,.115,20.363S584.974,163.879,580.882,156.163Z" transform="translate(-202.975 -83.084)" opacity="0.1"/>
  <path id="Path_572" data-name="Path 572" d="M580.882,162.163s-3.609-30.007,0-33.646,64.238-38.154,120.3,2.353c0,0,5.291.219,4.331,10.93a114.6,114.6,0,0,0,.115,20.363S584.974,169.879,580.882,162.163Z" transform="translate(-202.975 -85.226)" fill="#33323d"/>
  <path id="Path_573" data-name="Path 573" d="M744.383,169.05s3.847,12.859,2.649,15-.982,8.146-.982,8.146.26,3.858-1.667,4.282-3.609.643-2.05,1.929,0,3.215,0,3.215-.844,3,0,4.932-4.937,2.733-4.446,5.144,2.108,9.214,0,9.432.722,8.571-1.177,8.571-3.248,15-3.248,15-13.353-10.069-22.252-7.285c0,0,.722-8.359,3.609-11.361s2.014-10.712,2.014-10.712l14.32-38.366Z" transform="translate(-239.682 -105.827)" fill="#4c4981"/>
  <path id="Path_574" data-name="Path 574" d="M649.272,419.566c-3.125,3.08-6.5-13.367-6.5-13.367s-8.9,10.93-14.674,3.646c-4-5.047-.844-19.347,1.444-27.647,1.025-3.691,1.891-6.2,1.891-6.2l12.992-1.929s.043,2.52.332,5.581c.39,4.134,1.234,9.265,3.031,10.493C650.961,392.272,652.4,416.461,649.272,419.566Z" transform="translate(-216.027 -179.027)" fill="#ae6e79"/>
  <path id="Path_575" data-name="Path 575" d="M634.879,142.049s-22.62-.212-28.149,10.5-5.774,14.364-7.94,16.074,23.573,10.718,23.573,10.718l1.205,36.861s5.052-4.559,13.23-2.495,18.528,0,18.528,0-.484-.778,6.258,0,28.149-9.291,28.149-9.291.354-16.126-.123-19.559,15.273-28.663,15.273-28.663,12.27-10.5-.476-14.145c0,0-4.511-6.057-16.117-6S634.879,142.049,634.879,142.049Z" transform="translate(-208.368 -94.045)" opacity="0.1"/>
  <path id="Path_576" data-name="Path 576" d="M634.879,141.049s-22.62-.212-28.149,10.5-5.774,14.364-7.94,16.074,23.573,10.718,23.573,10.718l1.205,36.861s5.052-4.559,13.23-2.495,18.528,0,18.528,0-.484-.778,6.258,0,28.149-9.291,28.149-9.291,8.416-12.216,7.94-15.643,16.839-29.364,16.839-29.364,2.649-13.714-10.1-17.36c0,0-4.511-6.057-16.117-6S634.879,141.049,634.879,141.049Z" transform="translate(-208.368 -93.688)" fill="#4c4981"/>
  <path id="Path_577" data-name="Path 577" d="M646.135,379.635c-4.959-1.376-12.739,1.659-15.215,2.572,1.025-3.691,1.891-6.2,1.891-6.2L645.8,374.08S645.825,376.6,646.135,379.635Z" transform="translate(-217.343 -179.03)" opacity="0.1"/>
  <path id="Path_578" data-name="Path 578" d="M605.565,185.71h-6.972s-1.444,13.078,0,16.936,2.165,3.3,1.682,6.153,3.371,7.227,3.371,7.227.476,10.776,2.887,14.788-2.649,22-2.649,22a25.746,25.746,0,0,0,6.012,8.359c4.092,3.639,6.258,17.141,5.052,22.285a6.052,6.052,0,0,0,3.371,7.073s1.927,24.008,2.649,24.008,14.674-6.43,19-.862L636.6,291.606l.245-42.648s-4.576-5.362-2.165-10.075-1.927-15.862-1.927-15.862L626.5,198.164Z" transform="translate(-208.171 -111.776)" fill="#4c4981"/>
  <path id="Path_579" data-name="Path 579" d="M542.7,712.234s-10.1-1.929-10.343,0-12.032,21.649,2.649,27.435,53.888,18.215,117.649,2.141c0,0,4.085,1.286,3.125-6.642a162,162,0,0,1-.96-16.717s-9.628-2.36-16.846-1.5S567.961,729.17,542.7,712.234Z" transform="translate(-188.611 -299.457)" fill="#33323d"/>
  <path id="Path_580" data-name="Path 580" d="M542.7,712.234s-10.1-1.929-10.343,0-12.032,21.649,2.649,27.435,53.888,18.215,117.649,2.141c0,0,4.085,1.286,3.125-6.642a162,162,0,0,1-.96-16.717s-9.628-2.36-16.846-1.5S567.961,729.17,542.7,712.234Z" transform="translate(-188.611 -299.457)" opacity="0.1"/>
  <path id="Path_581" data-name="Path 581" d="M542.7,708.234s-10.1-1.929-10.343,0-12.032,21.649,2.649,27.435,53.888,18.215,117.649,2.141c0,0,4.085,1.286,3.125-6.642a161.994,161.994,0,0,1-.96-16.717s-9.628-2.36-16.846-1.5S567.961,725.17,542.7,708.234Z" transform="translate(-188.611 -298.029)" fill="#33323d"/>
  <path id="Path_582" data-name="Path 582" d="M629.266,196.976c-.621,3.144-2.028,6.166-2.245,9.349s1.162,6.8,4.461,8.05a16.138,16.138,0,0,1,2.663.964,5.06,5.06,0,0,1,2.057,3.556,17.328,17.328,0,0,1,.253,5.285c-.18,1.775-.606,3.684.375,5.234,1.725,2.745,6.222,2.34,9.643,1.569L645.3,239.1a1.867,1.867,0,0,0,.375,1.807,2.5,2.5,0,0,0,1.732.334c2.974-.167,6.034-.534,8.582-1.929s4.446-3.993,3.963-6.61c-.563-3.035-4.085-5.446-3.609-8.494.368-2.36,2.959-3.858,4.663-5.671a9.942,9.942,0,0,0,.83-12.113c-2.418-3.755-7.088-6.082-11.895-6.507-2.663-.238-5.435.051-7.94-.772a5.682,5.682,0,0,1-3.681-3.459" transform="translate(-216.253 -115.339)" fill="#444053"/>
  <path id="Path_583" data-name="Path 583" d="M513.84,629.655l2.519-4.886s13.6-11.284,16.724-12.075,15.879-4.237,17.806-4.237,37.056-1.717,37.056-1.717l4.085,8.577-44.086,8.622-14.861,9.644Z" transform="translate(-184.769 -262.098)" fill="#767d9f"/>
  <path id="Path_584" data-name="Path 584" d="M650.408,428.174l-2.3,15.785-.888,6.076-10.343,1.286s-1.119-2.135-2.7-5.414c-4.8-9.953-13.836-30.477-8.6-34.019,6.965-4.719,8.661,10.93,8.661,10.93l7.94-3.433Z" transform="translate(-215.417 -192.212)" fill="#ffb9b9"/>
  <rect id="Rectangle_714" data-name="Rectangle 714" width="52.235" height="70.295" transform="translate(381.032 265.326)" fill="#fff"/>
  <rect id="Rectangle_715" data-name="Rectangle 715" width="52.235" height="70.295" transform="translate(381.032 265.326)" opacity="0.1"/>
  <path id="Path_705" data-name="Path 705" d="M0,0,52.113-.825l-1.247,70.48-52.113.825Z" transform="translate(405.07 262.329) rotate(8.41)" fill="#fff"/>
  <path id="Path_706" data-name="Path 706" d="M0,0,26.823-.425,26.182,35.85l-26.823.425Z" transform="translate(409.935 268.961) rotate(8.41)" fill="#7ec2eb"/>
  <path id="Path_707" data-name="Path 707" d="M0,0,32.5-.515l-.139,7.878-32.5.515Z" transform="translate(401.143 314.937) rotate(8.41)" fill="#7ec2eb"/>
  <ellipse id="Ellipse_57" data-name="Ellipse 57" cx="30.192" cy="26.895" rx="30.192" ry="26.895" transform="translate(416.767 34.18)" opacity="0.1"/>
  <ellipse id="Ellipse_58" data-name="Ellipse 58" cx="30.192" cy="26.895" rx="30.192" ry="26.895" transform="translate(416.767 33.537)" fill="#ae6e79"/>
  <path id="Path_585" data-name="Path 585" d="M636.062,158.865a2.756,2.756,0,0,1,.209-2.077c1.148-2.128,4.417-2.315,7.066-2.205,6.229.257,13.064.289,17.936-3.215,2.021-1.44,4.28-5.06,7.218-4.372,2.613.611,3.7,3.768,6.424,4.469,1.97.508,4.013-.3,6.02-.643,2.887-.508,5.846-.084,8.777-.064s6.113-.476,8.113-2.385c2.7-2.572,2.259-6.59,2.021-10.114a48.639,48.639,0,0,1,1.032-13.592c.982-4.449,2.49-9.426-.267-13.239-2.627-3.633-8.069-4.629-11.787-7.413-3.479-2.572-5.319-6.693-8.993-9.079-4.627-3-10.913-2.572-16.6-2.051l-12.342,1.17c-3.183.3-6.5.643-9.116,2.334-4.728,3.048-5.377,9.381-9.852,12.718-1.992,1.479-4.54,2.212-6.814,3.318s-4.468,2.855-4.728,5.144c-.217,1.929.953,3.71,1.523,5.568,1.35,4.436-.758,9-2.108,13.47s-1.61,9.9,2.31,12.859c.794.6,1.718,1.067,2.49,1.7,2.649,2.154,3.01,5.787,2.4,8.924" transform="translate(-213.998 -78.501)" fill="#444053"/>
  <ellipse id="Ellipse_59" data-name="Ellipse 59" cx="0.722" cy="1.607" rx="0.722" ry="1.607" transform="translate(448.698 90.812)" fill="#444053"/>
  <ellipse id="Ellipse_60" data-name="Ellipse 60" cx="0.722" cy="1.607" rx="0.722" ry="1.607" transform="translate(448.698 97.512)" fill="#444053"/>
  <path id="Path_586" data-name="Path 586" d="M655.693,436.4c.772-.791,1.285-2.823,1.581-5.5l-8.6-9.554S652.315,439.864,655.693,436.4Z" transform="translate(-222.282 -195.904)" fill="#ae6e79"/>
  <path id="Path_587" data-name="Path 587" d="M625.92,666.516s-14.118,19.443-58.226,17.36c-41.553-1.929-61.834-20.144-60.867-26.574s-2.649-22.079,6.251-26.58c5.161-2.6,11.953-1.061,16.745.7a10.351,10.351,0,0,0,9.939-1.588c4.381-3.517,12.552-7.478,25.45-4.359a10.249,10.249,0,0,0,5.052-.083c5.37-1.46,18.153-3.993,27.427,1.633a10.359,10.359,0,0,0,10.047.341l.13-.071c4.331-2.36,24.54,19.932,24.54,19.932S633.376,664.375,625.92,666.516Z" transform="translate(-182.809 -268.097)" opacity="0.1"/>
  <path id="Path_588" data-name="Path 588" d="M625.92,667.516s-14.118,19.443-58.226,17.36c-41.553-1.929-61.834-20.144-60.867-26.574s-2.649-22.079,6.251-26.58c5.161-2.6,11.953-1.061,16.745.7a10.352,10.352,0,0,0,9.939-1.588c4.381-3.517,12.552-7.478,25.45-4.359a10.249,10.249,0,0,0,5.052-.084c5.37-1.46,18.153-3.993,27.427,1.633a10.359,10.359,0,0,0,10.047.341l.13-.071c4.331-2.36,24.54,19.932,24.54,19.932S633.376,665.375,625.92,667.516Z" transform="translate(-182.809 -268.454)" fill="#767d9f"/>
  <ellipse id="Ellipse_61" data-name="Ellipse 61" cx="28.755" cy="25.616" rx="28.755" ry="25.616" transform="translate(356.131 355.444)" opacity="0.1"/>
  <ellipse id="Ellipse_62" data-name="Ellipse 62" cx="28.755" cy="25.616" rx="28.755" ry="25.616" transform="translate(356.131 356.087)" fill="#ffb9b9"/>
  <path id="Path_589" data-name="Path 589" d="M570.608,629.6c-3.017.727-5.991,2.115-7.463,4.4-.888,1.376-1.2,3.028-2.483,4.173-1.819,1.627-4.886,1.659-7.348,2.572s-4.085,4.128-1.674,5.144a5.1,5.1,0,0,0-4.684,4.231c-.31,2.051.563,4.1,1.407,6.05,2.757,6.327,5.724,12.93,11.8,17.431,9.9,7.343,24.829,7,38.131,6.224a6.869,6.869,0,0,0,3.125-.643c1.444-.849,1.624-2.475,1.862-3.9,1-6.1,4.713-11.631,7.138-17.45s3.421-12.654-.664-17.8C603.745,632.387,580.727,627.16,570.608,629.6Z" transform="translate(-193.964 -270.044)" fill="#b96b6b"/>
  <path id="Path_590" data-name="Path 590" d="M652.03,462.064l-.888,6.076L640.8,469.426s-1.119-2.135-2.7-5.414l13.764-2.3Z" transform="translate(-219.341 -210.317)" opacity="0.1"/>
  <path id="Path_591" data-name="Path 591" d="M662.225,596.665l6.02-6.217-1.205-34.289a49.967,49.967,0,0,0,1.205-7.5c.238-3.646-3.01-11.786-3.01-11.786a23.91,23.91,0,0,1,2.043-4.719c1.444-2.572-2.035-8.359-2.035-8.359s-5.182-15-3.017-22.5S661.7,489.5,661.7,489.5s-2.115-8.359-1.877-11.786-4.814-6.648-4.814-6.648l-3.847-8.359-15.4,2.572v28.933s.96,27.647,0,33.01,1.92,10.5,1.92,10.5-1.682,7.928-.238,10.93,4.331,10.287,4.331,10.287a14.963,14.963,0,0,0,.484,7.818c1.444,3.755,0,5.9,0,5.9Z" transform="translate(-218.637 -210.674)" fill="#767d9f"/>
  <g id="Group_406" data-name="Group 406" transform="translate(404.925 37.208)" opacity="0.1">
    <path id="Path_592" data-name="Path 592" d="M732.085,135.431a48.663,48.663,0,0,0-1.09,11.426,48.955,48.955,0,0,1,1.119-9.49c.635-2.855,1.444-5.928,1.27-8.776a48.066,48.066,0,0,1-1.3,6.841Z" transform="translate(-650.108 -128.59)"/>
    <path id="Path_593" data-name="Path 593" d="M624.626,175.993c-.772-.643-1.7-1.093-2.49-1.7a8.419,8.419,0,0,1-3.169-6.43c-.209,3.215.527,6.327,3.169,8.359.794.611,1.718,1.074,2.49,1.7a7.477,7.477,0,0,1,2.613,5.369C627.448,180.591,626.834,177.781,624.626,175.993Z" transform="translate(-618.934 -142.611)"/>
    <path id="Path_594" data-name="Path 594" d="M622.883,138.646a10.846,10.846,0,0,0-.39-4.044c-.419-1.376-1.169-2.72-1.444-4.1a3.836,3.836,0,0,1-.079.463c-.209,1.929.96,3.71,1.523,5.568A9.845,9.845,0,0,1,622.883,138.646Z" transform="translate(-619.493 -129.272)"/>
    <path id="Path_595" data-name="Path 595" d="M700.986,172.958c-2,1.929-5.182,2.4-8.113,2.385s-5.9-.444-8.777.071c-2.007.36-4.049,1.164-6.02.643-2.721-.7-3.811-3.858-6.417-4.469-2.966-.694-5.226,2.925-7.218,4.366-4.872,3.472-11.707,3.44-17.936,3.215-2.649-.109-5.919.077-7.059,2.212a2.687,2.687,0,0,0-.209,2.077l-8.82,1.234a13.636,13.636,0,0,1-.238,1.929l9.058-1.286a2.687,2.687,0,0,1,.209-2.077c1.14-2.135,4.41-2.321,7.059-2.212,6.229.257,13.064.289,17.936-3.215,2.021-1.44,4.28-5.06,7.218-4.366,2.606.6,3.7,3.768,6.417,4.469,1.97.5,4.013-.3,6.02-.643,2.887-.514,5.846-.09,8.777-.071s6.113-.476,8.113-2.385,2.288-4.758,2.165-7.536A7.833,7.833,0,0,1,700.986,172.958Z" transform="translate(-622.063 -142.411)"/>
  </g>
  <g id="Group_407" data-name="Group 407" transform="translate(410.884 92.767)" opacity="0.1">
    <path id="Path_596" data-name="Path 596" d="M633.34,221.831a15.668,15.668,0,0,0-2.663-.964,6.541,6.541,0,0,1-3.486-3.176A7.009,7.009,0,0,0,631.4,222.8a15.671,15.671,0,0,1,2.663.964,3.711,3.711,0,0,1,1.278,1.331A4.845,4.845,0,0,0,633.34,221.831Z" transform="translate(-627.19 -215.96)"/>
    <path id="Path_597" data-name="Path 597" d="M649.129,247.7c-3.327.752-7.672,1.144-9.5-1.37a4.068,4.068,0,0,0,.577,1.73c1.559,2.475,5.37,2.392,8.611,1.781Z" transform="translate(-630.651 -226.186)"/>
    <path id="Path_598" data-name="Path 598" d="M666.035,251.2c.462,2.61-1.444,5.214-3.97,6.584s-5.608,1.749-8.582,1.929a3.283,3.283,0,0,1-1.4-.141,1.4,1.4,0,0,0,.3,1.653,1.863,1.863,0,0,0,1.821.417c2.974-.167,6.034-.534,8.582-1.929s4.453-3.993,3.963-6.61a6.76,6.76,0,0,0-.715-1.9Z" transform="translate(-634.075 -227.925)"/>
    <path id="Path_599" data-name="Path 599" d="M673.266,215a9.7,9.7,0,0,1-2.165,9.1c-1.7,1.839-4.295,3.311-4.663,5.671a4.872,4.872,0,0,0,.722,3.131,3.729,3.729,0,0,1,0-1.2c.368-2.36,2.959-3.858,4.663-5.671A9.859,9.859,0,0,0,673.266,215Z" transform="translate(-638.102 -215)"/>
  </g>
  <g id="Group_408" data-name="Group 408" transform="translate(352.925 358.668)" opacity="0.1">
    <path id="Path_600" data-name="Path 600" d="M554.7,641.578c2.454-.907,5.522-.939,7.348-2.572,1.285-1.144,1.6-2.8,2.483-4.166,1.444-2.289,4.439-3.671,7.456-4.4,10.1-2.443,33.144,2.778,39.149,10.345a13.016,13.016,0,0,1,2.757,7.767,13.355,13.355,0,0,0-2.75-9.046c-6.005-7.568-29.023-12.789-39.149-10.345-3.017.727-5.991,2.109-7.456,4.4-.888,1.37-1.2,3.022-2.483,4.166-1.826,1.627-4.894,1.659-7.348,2.572-1.869.688-3.255,2.72-2.75,4.083a4.624,4.624,0,0,1,2.743-2.8Z" transform="translate(-548.27 -628.555)"/>
    <path id="Path_601" data-name="Path 601" d="M546.969,660.38a5.081,5.081,0,0,1,4.684-4.231,1.8,1.8,0,0,1-1.1-1.1,5.15,5.15,0,0,0-3.609,4.044,6.056,6.056,0,0,0,0,1.575A.983.983,0,0,0,546.969,660.38Z" transform="translate(-546.889 -638.014)"/>
  </g>
  <rect id="Rectangle_719" data-name="Rectangle 719" width="65.681" height="76.301" transform="translate(440.217 148.03)" fill="#fff"/>
  <rect id="Rectangle_720" data-name="Rectangle 720" width="65.681" height="76.301" transform="translate(440.217 148.03)" opacity="0.1"/>
  <path id="Path_708" data-name="Path 708" d="M0,0,65.475,1.2l1.562,76.569-65.475-1.2Z" transform="translate(466.264 162.426) rotate(-9.76)" fill="#fff"/>
  <path id="Path_709" data-name="Path 709" d="M0,0,15.383.281,15.75,18.27.367,17.989Z" transform="translate(481.953 213.688) rotate(-9.76)" fill="#7ec2eb"/>
  <path id="Path_710" data-name="Path 710" d="M0,0,15.383.281,15.75,18.27.367,17.989Z" transform="translate(502.997 210.46) rotate(-9.76)" fill="#7ec2eb"/>
  <path id="Path_711" data-name="Path 711" d="M0,0,53.946.986l.368,18.07L.368,18.07Z" transform="translate(479.741 190.403) rotate(-9.744)" fill="#7ec2eb"/>
  <path id="Path_712" data-name="Path 712" d="M0,0,53.946.986l.082,4.031L.082,4.031Z" transform="translate(475.296 169.222) rotate(-9.744)" fill="#7ec2eb"/>
  <path id="Path_713" data-name="Path 713" d="M0,0,53.946.986l.082,4.031L.082,4.031Z" transform="translate(477.045 176.506) rotate(-9.744)" fill="#7ec2eb"/>
  <path id="Path_602" data-name="Path 602" d="M711.564,268.71s-30.192,27-15.035,33.865,25.024-22.825,25.024-22.825l2.4-6.751Z" transform="translate(-234.413 -141.41)" fill="#ae6e79"/>
  <path id="Path_603" data-name="Path 603" d="M713.9,262.844l-3.732,7.343s18.405,2.3,22.252,7.259l-2.281-12.956-2.707-5.529Z" transform="translate(-239.393 -137.928)" opacity="0.1"/>
  <path id="Path_604" data-name="Path 604" d="M714.9,261.844l-3.732,7.343s18.405,2.3,22.252,7.259l-2.281-12.956-2.707-5.53Z" transform="translate(-239.671 -137.571)" fill="#4c4981"/>
  <path id="Path_605" data-name="Path 605" d="M812.627,403.26l-.4.244.549.219.592-.045.072-.366Z" transform="translate(-225.983 -143.985)" fill="#464a5f"/>
  <path id="Path_606" data-name="Path 606" d="M812.627,403.26l-.4.244.549.219.592-.045.072-.366Z" transform="translate(-225.983 -143.985)" opacity="0.1"/>
  <path id="Path_607" data-name="Path 607" d="M812.5,403.01l-.4.231-.318-.347.195-.283.18-.051Z" transform="translate(-225.858 -143.735)" fill="#9c9ca1"/>
  <path id="Path_608" data-name="Path 608" d="M812.5,403.01l-.4.231-.318-.347.195-.283.18-.051Z" transform="translate(-225.858 -143.735)" opacity="0.1"/>
  <path id="Path_609" data-name="Path 609" d="M929.872,382.994l-29.549-38.019a3.574,3.574,0,0,0-2.26-1.306,3.864,3.864,0,0,0-2.634.5l-65.869,40.275a2.936,2.936,0,0,0-.917,4.366l29.47,38.5Z" transform="translate(-272.184 -168.154)" fill="#9c9ca1"/>
  <path id="Path_610" data-name="Path 610" d="M929.872,382.994l-29.549-38.019a3.574,3.574,0,0,0-2.26-1.306,3.864,3.864,0,0,0-2.634.5l-65.869,40.275a2.936,2.936,0,0,0-.917,4.366l29.47,38.5Z" transform="translate(-272.184 -168.154)" opacity="0.1"/>
  <path id="Path_611" data-name="Path 611" d="M930.871,383.134l-29.55-38.019a3.8,3.8,0,0,0-4.9-.8l-65.862,40.3a2.942,2.942,0,0,0-.924,4.366L859.1,427.5Z" transform="translate(-272.461 -168.204)" fill="#9c9ca1"/>
  <path id="Path_612" data-name="Path 612" d="M967.224,412.791l-24.54-7.021L870.91,450.09l24.93,7.266a4.164,4.164,0,0,0,3.342-.45l68.244-42.924a.624.624,0,0,0,.36-.657A.68.68,0,0,0,967.224,412.791Z" transform="translate(-284.115 -190.345)" fill="#464a5f"/>
  <path id="Path_613" data-name="Path 613" d="M967.224,412.791l-24.54-7.021L870.91,450.09l24.93,7.266a4.164,4.164,0,0,0,3.342-.45l68.244-42.924a.624.624,0,0,0,.36-.657A.68.68,0,0,0,967.224,412.791Z" transform="translate(-284.115 -190.345)" opacity="0.1"/>
  <path id="Path_614" data-name="Path 614" d="M967.014,412.1l-24.54-7.028L870.7,449.39l24.93,7.253a4.132,4.132,0,0,0,3.342-.444l68.244-42.924a.621.621,0,0,0,.343-.649A.678.678,0,0,0,967.014,412.1Z" transform="translate(-284.056 -190.095)" fill="#464a5f"/>
  <g id="Group_409" data-name="Group 409" transform="translate(575.684 197.306)" opacity="0.1">
    <path id="Path_615" data-name="Path 615" d="M951.838,400.927l-1.812-2.315a.78.78,0,0,0-.982-.161l-2.692,1.6a.6.6,0,0,0-.195.868l1.667,2.283a.778.778,0,0,0,.974.186l2.837-1.588A.6.6,0,0,0,951.838,400.927Z" transform="translate(-880.704 -385)"/>
    <path id="Path_616" data-name="Path 616" d="M945.136,405.57l-1.819-2.308a.78.78,0,0,0-.982-.161l-2.685,1.614a.6.6,0,0,0-.2.868l1.667,2.283a.777.777,0,0,0,.974.193l2.844-1.588a.646.646,0,0,0,.313-.412A.587.587,0,0,0,945.136,405.57Z" transform="translate(-878.838 -386.661)"/>
    <path id="Path_617" data-name="Path 617" d="M938.094,410.44l-1.819-2.308a.78.78,0,0,0-.982-.161l-2.692,1.614a.6.6,0,0,0-.195.874l1.667,2.283a.778.778,0,0,0,.974.186l2.837-1.588a.647.647,0,0,0,.317-.411A.586.586,0,0,0,938.094,410.44Z" transform="translate(-876.877 -388.399)"/>
    <path id="Path_618" data-name="Path 618" d="M930.968,415.378l-1.819-2.315a.78.78,0,0,0-.974-.161l-2.692,1.62a.6.6,0,0,0-.195.868l1.667,2.283a.777.777,0,0,0,.967.193l2.844-1.595a.645.645,0,0,0,.31-.409A.586.586,0,0,0,930.968,415.378Z" transform="translate(-874.897 -390.161)"/>
    <path id="Path_619" data-name="Path 619" d="M923.846,420.31,922.027,418a.78.78,0,0,0-.982-.161l-2.685,1.614a.6.6,0,0,0-.2.868l1.667,2.283a.777.777,0,0,0,.974.193l2.844-1.595a.646.646,0,0,0,.31-.409A.586.586,0,0,0,923.846,420.31Z" transform="translate(-872.914 -391.923)"/>
    <path id="Path_620" data-name="Path 620" d="M916.892,425.456l-2.259-2.868a.329.329,0,0,0-.209-.123.357.357,0,0,0-.245.046l-3.306,1.987a.291.291,0,0,0-.143.185.264.264,0,0,0,.049.22l2.072,2.835a.357.357,0,0,0,.455.09L916.8,425.9a.3.3,0,0,0,.162-.2.272.272,0,0,0-.068-.241Z" transform="translate(-870.876 -393.61)"/>
    <path id="Path_621" data-name="Path 621" d="M909.767,430.386l-2.274-2.868a.337.337,0,0,0-.213-.124.365.365,0,0,0-.249.047l-3.306,1.987a.276.276,0,0,0-.087.405l2.071,2.836a.317.317,0,0,0,.205.133.35.35,0,0,0,.249-.043l3.486-1.929a.3.3,0,0,0,.179-.2.266.266,0,0,0-.063-.247Z" transform="translate(-868.89 -395.37)"/>
    <path id="Path_622" data-name="Path 622" d="M903.463,434.774l-2.259-2.842a.359.359,0,0,0-.455-.071l-3.306,1.98a.282.282,0,0,0-.094.412l2.071,2.835a.365.365,0,0,0,.455.09l3.493-1.929a.3.3,0,0,0,.185-.216.276.276,0,0,0-.091-.26Z" transform="translate(-867.14 -396.949)"/>
    <path id="Path_623" data-name="Path 623" d="M896.4,439.64l-2.259-2.868a.359.359,0,0,0-.455-.071l-3.306,1.98a.3.3,0,0,0-.143.188.27.27,0,0,0,.049.223l2.071,2.835a.365.365,0,0,0,.455.09l3.493-1.929a.305.305,0,0,0,.163-.206A.278.278,0,0,0,896.4,439.64Z" transform="translate(-865.175 -398.677)"/>
    <path id="Path_624" data-name="Path 624" d="M889.562,444.336l-2.259-2.868a.329.329,0,0,0-.209-.123.358.358,0,0,0-.246.046l-3.306,1.987a.291.291,0,0,0-.143.185.264.264,0,0,0,.049.22l2.072,2.835a.357.357,0,0,0,.455.09l3.493-1.929a.3.3,0,0,0,.162-.2A.272.272,0,0,0,889.562,444.336Z" transform="translate(-863.272 -400.351)"/>
    <path id="Path_625" data-name="Path 625" d="M882.73,449.116l-2.237-2.874a.359.359,0,0,0-.455-.071l-3.306,1.98a.3.3,0,0,0-.143.188.27.27,0,0,0,.049.223l2.071,2.835a.365.365,0,0,0,.455.09l3.493-1.929a.3.3,0,0,0,.15-.207.274.274,0,0,0-.078-.237Z" transform="translate(-861.377 -402.058)"/>
    <path id="Path_626" data-name="Path 626" d="M875.882,453.846l-2.259-2.868a.329.329,0,0,0-.209-.123.357.357,0,0,0-.245.046l-3.306,1.974a.291.291,0,0,0-.143.185.264.264,0,0,0,.049.22l2.071,2.835a.357.357,0,0,0,.455.09l3.493-1.929a.3.3,0,0,0,.154-.2A.271.271,0,0,0,875.882,453.846Z" transform="translate(-859.466 -403.746)"/>
    <path id="Path_627" data-name="Path 627" d="M947.344,394.417l-1.819-2.315a.78.78,0,0,0-.982-.161l-2.663,1.62a.6.6,0,0,0-.2.868l1.667,2.283a.778.778,0,0,0,.974.186l2.844-1.588a.6.6,0,0,0,.18-.894Z" transform="translate(-879.458 -382.676)"/>
    <path id="Path_628" data-name="Path 628" d="M937.486,380.181l-1.819-2.328a.78.78,0,0,0-.974-.161L932,379.307a.6.6,0,0,0-.2.868l1.667,2.283a.777.777,0,0,0,.974.193l2.844-1.588A.6.6,0,0,0,937.486,380.181Z" transform="translate(-876.709 -377.59)"/>
    <path id="Path_629" data-name="Path 629" d="M940.628,399.062l-1.819-2.308a.78.78,0,0,0-.974-.161l-2.692,1.614a.6.6,0,0,0-.195.868l1.66,2.283a.777.777,0,0,0,.974.193l2.844-1.588a.646.646,0,0,0,.313-.412A.587.587,0,0,0,940.628,399.062Z" transform="translate(-877.585 -384.338)"/>
    <path id="Path_630" data-name="Path 630" d="M933.584,403.93l-1.819-2.308a.78.78,0,0,0-.982-.161l-2.685,1.595a.6.6,0,0,0-.2.874l1.667,2.283a.778.778,0,0,0,.974.186l2.844-1.588A.6.6,0,0,0,933.584,403.93Z" transform="translate(-875.623 -386.075)"/>
    <path id="Path_631" data-name="Path 631" d="M926.458,408.867l-1.812-2.315a.78.78,0,0,0-.982-.161l-2.692,1.64a.6.6,0,0,0-.195.868l1.667,2.283a.778.778,0,0,0,.974.186l2.837-1.588a.647.647,0,0,0,.32-.418.588.588,0,0,0-.118-.5Z" transform="translate(-873.643 -387.835)"/>
    <path id="Path_632" data-name="Path 632" d="M930.936,385.062l-1.819-2.308a.78.78,0,0,0-.974-.161l-2.692,1.614a.6.6,0,0,0-.2.868l1.667,2.283a.777.777,0,0,0,.974.193l2.844-1.588a.646.646,0,0,0,.313-.412A.587.587,0,0,0,930.936,385.062Z" transform="translate(-874.887 -379.339)"/>
    <path id="Path_633" data-name="Path 633" d="M923.9,389.937l-1.819-2.315a.78.78,0,0,0-.982-.161l-2.685,1.595a.6.6,0,0,0-.2.868l1.667,2.283a.778.778,0,0,0,.974.186l2.844-1.588A.6.6,0,0,0,923.9,389.937Z" transform="translate(-872.928 -381.077)"/>
    <path id="Path_634" data-name="Path 634" d="M916.768,394.869l-1.819-2.308a.78.78,0,0,0-.974-.167l-2.692,1.64a.6.6,0,0,0-.195.868l1.667,2.283a.777.777,0,0,0,.974.193l2.837-1.595a.647.647,0,0,0,.32-.418A.588.588,0,0,0,916.768,394.869Z" transform="translate(-870.947 -382.839)"/>
    <path id="Path_635" data-name="Path 635" d="M919.346,413.8l-1.819-2.308a.78.78,0,0,0-.974-.167l-2.671,1.62a.6.6,0,0,0-.195.868l1.638,2.283a.777.777,0,0,0,.967.193l2.844-1.595a.647.647,0,0,0,.314-.408.586.586,0,0,0-.1-.486Z" transform="translate(-871.67 -389.598)"/>
    <path id="Path_636" data-name="Path 636" d="M912.216,418.73l-1.819-2.308a.78.78,0,0,0-.982-.161l-2.685,1.614a.6.6,0,0,0-.2.868l1.667,2.283a.777.777,0,0,0,.974.193l2.844-1.588a.646.646,0,0,0,.313-.412A.587.587,0,0,0,912.216,418.73Z" transform="translate(-869.679 -391.359)"/>
    <path id="Path_637" data-name="Path 637" d="M905.262,423.876,903,421.009a.33.33,0,0,0-.209-.123.357.357,0,0,0-.245.046l-3.306,1.987a.291.291,0,0,0-.143.185.264.264,0,0,0,.049.22l2.071,2.835a.326.326,0,0,0,.206.131.358.358,0,0,0,.249-.041l3.493-1.929a.3.3,0,0,0,.162-.2.272.272,0,0,0-.068-.241Z" transform="translate(-867.64 -393.046)"/>
    <path id="Path_638" data-name="Path 638" d="M898.956,428.247l-2.259-2.874a.359.359,0,0,0-.455-.071l-3.3,1.98a.282.282,0,0,0-.094.412l2.071,2.836a.366.366,0,0,0,.455.09l3.493-1.929a.288.288,0,0,0,.167-.2.263.263,0,0,0-.08-.241Z" transform="translate(-865.888 -394.607)"/>
    <path id="Path_639" data-name="Path 639" d="M891.892,433.13l-2.259-2.868a.359.359,0,0,0-.455-.071l-3.306,1.98a.292.292,0,0,0-.143.185.264.264,0,0,0,.049.22l2.072,2.842a.365.365,0,0,0,.455.09l3.493-1.929a.306.306,0,0,0,.163-.206A.278.278,0,0,0,891.892,433.13Z" transform="translate(-863.921 -396.352)"/>
    <path id="Path_640" data-name="Path 640" d="M885.052,437.866,882.793,435a.329.329,0,0,0-.209-.123.357.357,0,0,0-.245.046l-3.306,1.961a.291.291,0,0,0-.143.185.264.264,0,0,0,.049.22l2.071,2.835a.357.357,0,0,0,.455.09l3.493-1.929a.3.3,0,0,0,.147-.191A.27.27,0,0,0,885.052,437.866Z" transform="translate(-862.018 -398.041)"/>
    <path id="Path_641" data-name="Path 641" d="M928.9,397.162l-1.819-2.308a.78.78,0,0,0-.974-.161l-2.692,1.62a.6.6,0,0,0-.195.868l1.667,2.283a.778.778,0,0,0,.967.186l2.844-1.588a.646.646,0,0,0,.313-.412A.587.587,0,0,0,928.9,397.162Z" transform="translate(-874.321 -383.66)"/>
    <path id="Path_642" data-name="Path 642" d="M921.766,402.1l-1.819-2.315a.78.78,0,0,0-.982-.161l-2.685,1.62a.6.6,0,0,0-.2.868l1.667,2.283a.777.777,0,0,0,.974.193l2.844-1.595a.646.646,0,0,0,.31-.409A.586.586,0,0,0,921.766,402.1Z" transform="translate(-872.336 -385.418)"/>
    <path id="Path_643" data-name="Path 643" d="M914.655,407.03l-1.819-2.308a.78.78,0,0,0-.982-.161l-2.692,1.614a.6.6,0,0,0-.195.868l1.667,2.283a.777.777,0,0,0,.974.193l2.837-1.595a.647.647,0,0,0,.314-.408A.586.586,0,0,0,914.655,407.03Z" transform="translate(-870.357 -387.182)"/>
    <path id="Path_644" data-name="Path 644" d="M907.528,411.962l-1.819-2.308a.78.78,0,0,0-.974-.161l-2.692,1.614a.6.6,0,0,0-.195.868l1.667,2.308a.777.777,0,0,0,.967.193l2.844-1.588a.648.648,0,0,0,.328-.424A.589.589,0,0,0,907.528,411.962Z" transform="translate(-868.376 -388.944)"/>
    <path id="Path_645" data-name="Path 645" d="M900.623,417.106l-2.259-2.868a.329.329,0,0,0-.209-.123.357.357,0,0,0-.245.046l-3.306,1.987a.277.277,0,0,0-.094.405l2.071,2.842a.328.328,0,0,0,.208.127.358.358,0,0,0,.247-.043l3.493-1.929a.3.3,0,0,0,.162-.2A.272.272,0,0,0,900.623,417.106Z" transform="translate(-866.351 -390.629)"/>
    <path id="Path_646" data-name="Path 646" d="M894.273,421.476l-2.259-2.874a.367.367,0,0,0-.462-.071l-3.3,1.98a.282.282,0,0,0-.094.411l2.072,2.835a.357.357,0,0,0,.455.09l3.493-1.929a.3.3,0,0,0,.162-.2.272.272,0,0,0-.068-.241Z" transform="translate(-864.584 -392.189)"/>
    <path id="Path_647" data-name="Path 647" d="M887.211,426.336l-2.259-2.874a.367.367,0,0,0-.462-.071l-3.306,1.98a.288.288,0,0,0-.094.412l2.079,2.835a.357.357,0,0,0,.455.09l3.486-1.929a.3.3,0,0,0,.171-.2A.267.267,0,0,0,887.211,426.336Z" transform="translate(-862.618 -393.924)"/>
    <path id="Path_648" data-name="Path 648" d="M880.372,431.1l-2.259-2.868a.337.337,0,0,0-.213-.124.365.365,0,0,0-.249.047l-3.306,1.987a.276.276,0,0,0-.087.405l2.071,2.835a.318.318,0,0,0,.205.133.35.35,0,0,0,.249-.043l3.486-1.929a.3.3,0,0,0,.171-.2A.267.267,0,0,0,880.372,431.1Z" transform="translate(-860.716 -395.624)"/>
    <path id="Path_649" data-name="Path 649" d="M878.212,442.6l-2.259-2.868a.359.359,0,0,0-.455-.071l-3.306,1.98a.291.291,0,0,0-.143.185.264.264,0,0,0,.049.22l2.071,2.842a.365.365,0,0,0,.455.09l3.493-1.929a.305.305,0,0,0,.163-.206A.278.278,0,0,0,878.212,442.6Z" transform="translate(-860.114 -399.734)"/>
    <path id="Path_650" data-name="Path 650" d="M871.372,447.336l-2.259-2.868a.329.329,0,0,0-.209-.123.357.357,0,0,0-.245.046l-3.306,1.987a.292.292,0,0,0-.142.185.264.264,0,0,0,.049.22l2.071,2.835a.357.357,0,0,0,.455.09l3.493-1.929a.3.3,0,0,0,.162-.2A.272.272,0,0,0,871.372,447.336Z" transform="translate(-858.211 -401.422)"/>
    <path id="Path_651" data-name="Path 651" d="M882.141,419.069l-2.165-2.7a.484.484,0,0,0-.614-.1l-3.118,1.871a.393.393,0,0,0-.189.251.358.358,0,0,0,.067.3l1.949,2.668a.434.434,0,0,0,.274.175.478.478,0,0,0,.332-.053l3.3-1.845a.41.41,0,0,0,.222-.251A.362.362,0,0,0,882.141,419.069Z" transform="translate(-861.228 -391.376)"/>
    <path id="Path_652" data-name="Path 652" d="M875.315,423.805l-2.129-2.7a.447.447,0,0,0-.283-.165.484.484,0,0,0-.331.062l-3.118,1.9a.388.388,0,0,0-.189.247.352.352,0,0,0,.066.293l1.949,2.675a.481.481,0,0,0,.606.122l3.3-1.845a.4.4,0,0,0,.217-.269.366.366,0,0,0-.087-.322Z" transform="translate(-859.339 -393.065)"/>
    <path id="Path_653" data-name="Path 653" d="M868.475,428.545l-2.129-2.707a.484.484,0,0,0-.614-.1l-3.118,1.871a.394.394,0,0,0-.189.25.358.358,0,0,0,.067.3l1.949,2.668a.434.434,0,0,0,.274.175.478.478,0,0,0,.332-.053l3.3-1.845a.4.4,0,0,0,.2-.255.359.359,0,0,0-.071-.3Z" transform="translate(-857.436 -394.757)"/>
    <path id="Path_654" data-name="Path 654" d="M861.683,433.336l-2.259-2.874a.359.359,0,0,0-.455-.071l-3.306,1.98a.282.282,0,0,0-.094.411l2.072,2.836a.365.365,0,0,0,.455.09l3.493-1.929a.289.289,0,0,0,.171-.2A.262.262,0,0,0,861.683,433.336Z" transform="translate(-855.516 -396.424)"/>
    <path id="Path_655" data-name="Path 655" d="M940.809,387.33l-1.956-2.475a.781.781,0,0,0-.982-.154l-7.636,4.764a.6.6,0,0,0-.188.862l1.841,2.533a.732.732,0,0,0,.461.272.794.794,0,0,0,.542-.1l7.752-4.829A.6.6,0,0,0,940.809,387.33Z" transform="translate(-876.222 -380.09)"/>
    <path id="Path_656" data-name="Path 656" d="M871.557,435.6l-2.4-3.016a.331.331,0,0,0-.214-.123.356.356,0,0,0-.248.052l-8.243,5.144a.27.27,0,0,0-.087.4l2.252,3.106a.336.336,0,0,0,.215.131.365.365,0,0,0,.255-.047l8.38-5.227a.282.282,0,0,0,.087-.418Z" transform="translate(-856.851 -397.181)"/>
    <path id="Path_657" data-name="Path 657" d="M904.081,399.81l-2.209-2.88a.358.358,0,0,0-.455-.077l-18.3,11.008a.277.277,0,0,0-.094.405l2.259,3.086a.335.335,0,0,0,.215.131.365.365,0,0,0,.255-.047l18.246-11.213a.3.3,0,0,0,.139-.19.27.27,0,0,0-.052-.222Z" transform="translate(-863.154 -384.45)"/>
  </g>
  <path id="Path_658" data-name="Path 658" d="M952.506,401.047l-1.819-2.315a.78.78,0,0,0-.982-.161l-2.685,1.62a.6.6,0,0,0-.2.868l1.667,2.283a.777.777,0,0,0,.974.193l2.844-1.595a.646.646,0,0,0,.31-.409.587.587,0,0,0-.108-.484Z" transform="translate(-305.204 -187.737)" fill="#464a5f"/>
  <path id="Path_659" data-name="Path 659" d="M945.766,405.692l-1.819-2.308a.78.78,0,0,0-.974-.161l-2.692,1.614a.6.6,0,0,0-.2.868l1.667,2.283a.777.777,0,0,0,.974.193l2.844-1.588a.646.646,0,0,0,.313-.412A.587.587,0,0,0,945.766,405.692Z" transform="translate(-303.329 -189.399)" fill="#464a5f"/>
  <path id="Path_660" data-name="Path 660" d="M938.766,410.57l-1.819-2.308a.78.78,0,0,0-.982-.161l-2.685,1.62a.6.6,0,0,0-.2.868l1.667,2.283a.778.778,0,0,0,.974.186l2.844-1.588a.646.646,0,0,0,.313-.412A.586.586,0,0,0,938.766,410.57Z" transform="translate(-301.381 -191.139)" fill="#464a5f"/>
  <path id="Path_661" data-name="Path 661" d="M931.623,415.5l-1.819-2.315a.78.78,0,0,0-.974-.161l-2.692,1.62a.643.643,0,0,0-.305.415.588.588,0,0,0,.118.485l1.667,2.283a.777.777,0,0,0,.974.193l2.837-1.595a.646.646,0,0,0,.324-.425A.589.589,0,0,0,931.623,415.5Z" transform="translate(-299.392 -192.898)" fill="#464a5f"/>
  <path id="Path_662" data-name="Path 662" d="M924.508,420.432l-1.819-2.308a.78.78,0,0,0-.974-.161l-2.692,1.614a.6.6,0,0,0-.195.868l1.66,2.283a.777.777,0,0,0,.974.193l2.844-1.595a.646.646,0,0,0,.31-.409A.587.587,0,0,0,924.508,420.432Z" transform="translate(-297.416 -194.661)" fill="#464a5f"/>
  <path id="Path_663" data-name="Path 663" d="M917.552,425.576l-2.259-2.868a.33.33,0,0,0-.209-.123.358.358,0,0,0-.246.046l-3.306,1.987a.292.292,0,0,0-.143.185.264.264,0,0,0,.049.22l2.072,2.835a.357.357,0,0,0,.455.09l3.493-1.929a.3.3,0,0,0,.162-.2A.273.273,0,0,0,917.552,425.576Z" transform="translate(-295.376 -196.347)" fill="#464a5f"/>
  <path id="Path_664" data-name="Path 664" d="M910.432,430.506l-2.259-2.868a.337.337,0,0,0-.213-.124.365.365,0,0,0-.249.047l-3.3,1.987a.291.291,0,0,0-.143.185.264.264,0,0,0,.049.22l2.071,2.842a.328.328,0,0,0,.208.127.357.357,0,0,0,.247-.043l3.493-1.929a.3.3,0,0,0,.159-.2A.278.278,0,0,0,910.432,430.506Z" transform="translate(-293.395 -198.107)" fill="#464a5f"/>
  <path id="Path_665" data-name="Path 665" d="M904.123,434.876,901.864,432a.359.359,0,0,0-.455-.071l-3.306,1.955a.282.282,0,0,0-.094.411l2.072,2.835a.365.365,0,0,0,.455.09l3.493-1.929a.3.3,0,0,0,.147-.191A.27.27,0,0,0,904.123,434.876Z" transform="translate(-291.64 -199.667)" fill="#464a5f"/>
  <path id="Path_666" data-name="Path 666" d="M897.062,439.781l-2.259-2.848a.359.359,0,0,0-.455-.071l-3.306,1.98a.3.3,0,0,0-.143.188.27.27,0,0,0,.049.223l2.072,2.835a.365.365,0,0,0,.455.09l3.493-1.929a.3.3,0,0,0,.18-.214A.275.275,0,0,0,897.062,439.781Z" transform="translate(-289.674 -201.427)" fill="#464a5f"/>
  <path id="Path_667" data-name="Path 667" d="M890.222,444.5l-2.259-2.868a.329.329,0,0,0-.209-.123.357.357,0,0,0-.245.046l-3.306,1.987a.291.291,0,0,0-.143.185.264.264,0,0,0,.049.22l2.072,2.835a.326.326,0,0,0,.206.131.358.358,0,0,0,.249-.041l3.493-1.929a.3.3,0,0,0,.162-.2A.272.272,0,0,0,890.222,444.5Z" transform="translate(-287.772 -203.102)" fill="#464a5f"/>
  <path id="Path_668" data-name="Path 668" d="M883.383,449.236l-2.259-2.874a.359.359,0,0,0-.455-.071l-3.306,1.98a.282.282,0,0,0-.094.412l2.071,2.835a.365.365,0,0,0,.455.09l3.493-1.929a.3.3,0,0,0,.162-.2A.272.272,0,0,0,883.383,449.236Z" transform="translate(-285.869 -204.794)" fill="#464a5f"/>
  <path id="Path_669" data-name="Path 669" d="M876.542,453.966l-2.259-2.868a.329.329,0,0,0-.209-.123.357.357,0,0,0-.245.046l-3.306,1.987a.292.292,0,0,0-.143.185.264.264,0,0,0,.049.22l2.072,2.835a.326.326,0,0,0,.206.131.358.358,0,0,0,.249-.041l3.493-1.929a.3.3,0,0,0,.162-.2.272.272,0,0,0-.068-.241Z" transform="translate(-283.965 -206.483)" fill="#464a5f"/>
  <path id="Path_670" data-name="Path 670" d="M948,394.568l-1.819-2.315a.78.78,0,0,0-.974-.161l-2.692,1.62a.6.6,0,0,0-.195.868l1.66,2.283a.777.777,0,0,0,.974.193l2.844-1.595a.646.646,0,0,0,.31-.409A.586.586,0,0,0,948,394.568Z" transform="translate(-303.951 -185.425)" fill="#464a5f"/>
  <path id="Path_671" data-name="Path 671" d="M938.148,380.312,936.329,378a.78.78,0,0,0-.974-.161l-2.692,1.614a.6.6,0,0,0-.195.868l1.667,2.282a.777.777,0,0,0,.967.193l2.844-1.588a.646.646,0,0,0,.313-.412A.587.587,0,0,0,938.148,380.312Z" transform="translate(-301.211 -180.337)" fill="#464a5f"/>
  <path id="Path_672" data-name="Path 672" d="M941.288,399.175l-1.819-2.321a.78.78,0,0,0-.974-.161l-2.692,1.614a.6.6,0,0,0-.195.868l1.667,2.283a.777.777,0,0,0,.967.193l2.844-1.588A.6.6,0,0,0,941.288,399.175Z" transform="translate(-302.085 -187.067)" fill="#464a5f"/>
  <path id="Path_673" data-name="Path 673" d="M934.257,404.052l-1.79-2.308a.78.78,0,0,0-.974-.161L928.8,403.2a.6.6,0,0,0-.195.874l1.66,2.283a.778.778,0,0,0,.974.186l2.844-1.588a.64.64,0,0,0,.3-.418.589.589,0,0,0-.124-.482Z" transform="translate(-300.136 -188.813)" fill="#464a5f"/>
  <path id="Path_674" data-name="Path 674" d="M927.126,408.987l-1.819-2.315a.78.78,0,0,0-.982-.161l-2.685,1.62a.6.6,0,0,0-.2.868l1.667,2.283a.777.777,0,0,0,.974.193l2.844-1.595a.646.646,0,0,0,.31-.409.587.587,0,0,0-.107-.484Z" transform="translate(-298.143 -190.572)" fill="#464a5f"/>
  <path id="Path_675" data-name="Path 675" d="M931.6,385.175l-1.819-2.321a.78.78,0,0,0-.974-.161l-2.692,1.614a.6.6,0,0,0-.195.868l1.667,2.283a.777.777,0,0,0,.967.193l2.844-1.588A.6.6,0,0,0,931.6,385.175Z" transform="translate(-299.388 -182.069)" fill="#464a5f"/>
  <path id="Path_676" data-name="Path 676" d="M924.556,390.058l-1.819-2.315a.78.78,0,0,0-.974-.161l-2.692,1.62a.6.6,0,0,0-.2.868l1.667,2.282a.777.777,0,0,0,.974.193l2.844-1.595a.646.646,0,0,0,.31-.409.586.586,0,0,0-.107-.484Z" transform="translate(-297.428 -183.815)" fill="#464a5f"/>
  <path id="Path_677" data-name="Path 677" d="M917.436,394.99l-1.819-2.308a.78.78,0,0,0-.982-.161l-2.685,1.614a.6.6,0,0,0-.2.868l1.667,2.289a.777.777,0,0,0,.974.193l2.837-1.595a.647.647,0,0,0,.317-.411A.587.587,0,0,0,917.436,394.99Z" transform="translate(-295.447 -185.577)" fill="#464a5f"/>
  <path id="Path_678" data-name="Path 678" d="M920,413.922l-1.819-2.308a.781.781,0,0,0-.974-.161l-2.692,1.6a.6.6,0,0,0-.195.868l1.667,2.283a.777.777,0,0,0,.967.193L919.8,414.8A.6.6,0,0,0,920,413.922Z" transform="translate(-296.161 -192.337)" fill="#464a5f"/>
  <path id="Path_679" data-name="Path 679" d="M912.876,418.852l-1.819-2.308a.78.78,0,0,0-.974-.161l-2.692,1.646a.6.6,0,0,0-.2.868l1.667,2.283a.777.777,0,0,0,.974.193l2.844-1.588a.648.648,0,0,0,.332-.426A.589.589,0,0,0,912.876,418.852Z" transform="translate(-294.178 -194.097)" fill="#464a5f"/>
  <path id="Path_680" data-name="Path 680" d="M905.933,424l-2.259-2.868a.329.329,0,0,0-.209-.123.357.357,0,0,0-.245.046l-3.277,1.987a.291.291,0,0,0-.142.185.264.264,0,0,0,.049.22l2.071,2.836a.326.326,0,0,0,.206.131.358.358,0,0,0,.249-.041l3.493-1.929a.3.3,0,0,0,.143-.209.28.28,0,0,0-.078-.235Z" transform="translate(-292.151 -195.783)" fill="#464a5f"/>
  <path id="Path_681" data-name="Path 681" d="M899.621,428.336l-2.259-2.874a.367.367,0,0,0-.462-.071l-3.306,1.98a.288.288,0,0,0-.094.411l2.079,2.835a.357.357,0,0,0,.455.09l3.486-1.929a.3.3,0,0,0,.171-.2A.267.267,0,0,0,899.621,428.336Z" transform="translate(-290.386 -197.332)" fill="#464a5f"/>
  <path id="Path_682" data-name="Path 682" d="M892.553,433.256l-2.259-2.874a.359.359,0,0,0-.455-.071l-3.306,1.98a.282.282,0,0,0-.094.411l2.071,2.836a.365.365,0,0,0,.455.09l3.493-1.929a.289.289,0,0,0,.171-.2.262.262,0,0,0-.077-.243Z" transform="translate(-288.421 -199.089)" fill="#464a5f"/>
  <path id="Path_683" data-name="Path 683" d="M885.731,437.986l-2.237-2.868a.329.329,0,0,0-.209-.123.357.357,0,0,0-.245.046l-3.306,1.987a.277.277,0,0,0-.094.405l2.072,2.836a.357.357,0,0,0,.455.09l3.493-1.929a.29.29,0,0,0,.154-.207A.269.269,0,0,0,885.731,437.986Z" transform="translate(-286.529 -200.777)" fill="#464a5f"/>
  <path id="Path_684" data-name="Path 684" d="M929.558,397.287l-1.812-2.315a.78.78,0,0,0-.982-.161l-2.692,1.62a.6.6,0,0,0-.195.868l1.667,2.283a.778.778,0,0,0,.974.186l2.837-1.588a.645.645,0,0,0,.31-.409A.586.586,0,0,0,929.558,397.287Z" transform="translate(-298.821 -186.394)" fill="#464a5f"/>
  <path id="Path_685" data-name="Path 685" d="M922.438,402.219l-1.819-2.308a.78.78,0,0,0-.974-.167l-2.692,1.62a.6.6,0,0,0-.195.868l1.667,2.283a.777.777,0,0,0,.967.193l2.844-1.595a.645.645,0,0,0,.31-.409A.586.586,0,0,0,922.438,402.219Z" transform="translate(-296.84 -188.157)" fill="#464a5f"/>
  <path id="Path_686" data-name="Path 686" d="M915.33,407.154l-1.841-2.3a.78.78,0,0,0-.982-.161L909.88,406.3a.6.6,0,0,0-.2.868l1.667,2.283a.777.777,0,0,0,.974.193l2.844-1.588a.639.639,0,0,0,.293-.419A.59.59,0,0,0,915.33,407.154Z" transform="translate(-294.871 -189.922)" fill="#464a5f"/>
  <path id="Path_687" data-name="Path 687" d="M908.188,412.082l-1.819-2.308a.78.78,0,0,0-.974-.161l-2.692,1.614a.6.6,0,0,0-.195.868l1.667,2.283a.777.777,0,0,0,.967.193l2.844-1.588a.646.646,0,0,0,.313-.412A.587.587,0,0,0,908.188,412.082Z" transform="translate(-292.875 -191.68)" fill="#464a5f"/>
  <path id="Path_688" data-name="Path 688" d="M901.24,417.226l-2.259-2.868a.337.337,0,0,0-.213-.124.365.365,0,0,0-.249.047l-3.306,1.987a.277.277,0,0,0-.094.405l2.071,2.842a.336.336,0,0,0,.211.128.366.366,0,0,0,.25-.044l3.486-1.929a.3.3,0,0,0,.166-.2.272.272,0,0,0-.065-.243Z" transform="translate(-290.836 -193.365)" fill="#464a5f"/>
  <path id="Path_689" data-name="Path 689" d="M894.941,421.6l-2.259-2.868a.329.329,0,0,0-.209-.123.357.357,0,0,0-.246.046l-3.284,1.98a.282.282,0,0,0-.094.412l2.071,2.835a.365.365,0,0,0,.455.09l3.493-1.929a.3.3,0,0,0,.15-.207A.274.274,0,0,0,894.941,421.6Z" transform="translate(-289.091 -194.926)" fill="#464a5f"/>
  <path id="Path_690" data-name="Path 690" d="M887.873,426.486l-2.259-2.874a.367.367,0,0,0-.462-.071l-3.3,1.98a.282.282,0,0,0-.094.412l2.071,2.836a.357.357,0,0,0,.455.09l3.493-1.929a.3.3,0,0,0,.162-.2.272.272,0,0,0-.068-.241Z" transform="translate(-287.119 -196.671)" fill="#464a5f"/>
  <path id="Path_691" data-name="Path 691" d="M881.032,431.216l-2.259-2.868a.337.337,0,0,0-.213-.124.365.365,0,0,0-.249.047l-3.3,1.987a.291.291,0,0,0-.143.185.264.264,0,0,0,.049.22l2.071,2.842a.328.328,0,0,0,.208.127.358.358,0,0,0,.247-.043l3.493-1.929a.3.3,0,0,0,.159-.2A.277.277,0,0,0,881.032,431.216Z" transform="translate(-285.215 -198.36)" fill="#464a5f"/>
  <path id="Path_692" data-name="Path 692" d="M878.88,442.726l-2.259-2.874a.367.367,0,0,0-.462-.071l-3.306,1.98a.282.282,0,0,0-.094.411l2.071,2.836a.365.365,0,0,0,.455.09l3.493-1.929a.3.3,0,0,0,.171-.2A.267.267,0,0,0,878.88,442.726Z" transform="translate(-284.615 -202.47)" fill="#464a5f"/>
  <path id="Path_693" data-name="Path 693" d="M872.04,447.456l-2.259-2.868a.337.337,0,0,0-.213-.124.365.365,0,0,0-.249.047l-3.306,1.987a.277.277,0,0,0-.094.405l2.072,2.835a.334.334,0,0,0,.21.131.366.366,0,0,0,.252-.041l3.486-1.929a.3.3,0,0,0,.171-.2A.267.267,0,0,0,872.04,447.456Z" transform="translate(-282.712 -204.158)" fill="#464a5f"/>
  <path id="Path_694" data-name="Path 694" d="M882.807,419.2l-2.129-2.707a.484.484,0,0,0-.613-.1l-3.14,1.871a.372.372,0,0,0-.123.547l1.949,2.675a.482.482,0,0,0,.613.116l3.291-1.845a.4.4,0,0,0,.213-.25A.357.357,0,0,0,882.807,419.2Z" transform="translate(-285.734 -194.113)" fill="#464a5f"/>
  <path id="Path_695" data-name="Path 695" d="M875.976,423.925l-2.129-2.7a.447.447,0,0,0-.283-.165.484.484,0,0,0-.331.062L870.115,423a.367.367,0,0,0-.123.54l1.949,2.675a.49.49,0,0,0,.614.122l3.3-1.845a.406.406,0,0,0,.194-.26.37.37,0,0,0-.071-.306Z" transform="translate(-283.839 -195.801)" fill="#464a5f"/>
  <path id="Path_696" data-name="Path 696" d="M869.122,428.666l-2.165-2.707a.476.476,0,0,0-.606-.1l-3.125,1.871a.372.372,0,0,0-.123.547l1.949,2.675a.482.482,0,0,0,.613.116l3.3-1.845a.4.4,0,0,0,.217-.249.357.357,0,0,0-.058-.311Z" transform="translate(-281.922 -197.494)" fill="#464a5f"/>
  <path id="Path_697" data-name="Path 697" d="M862.352,433.466l-2.259-2.874a.367.367,0,0,0-.462-.071l-3.306,1.98a.282.282,0,0,0-.087.412l2.072,2.835a.357.357,0,0,0,.455.09l3.493-1.929a.3.3,0,0,0,.162-.2.273.273,0,0,0-.069-.241Z" transform="translate(-280.017 -199.164)" fill="#464a5f"/>
  <path id="Path_698" data-name="Path 698" d="M941.474,387.476l-1.927-2.482a.781.781,0,0,0-.982-.154l-7.68,4.764a.6.6,0,0,0-.188.862L932.545,393a.732.732,0,0,0,.461.272.794.794,0,0,0,.542-.1l7.745-4.829A.6.6,0,0,0,941.474,387.476Z" transform="translate(-300.719 -182.834)" fill="#464a5f"/>
  <path id="Path_699" data-name="Path 699" d="M872.216,435.725l-2.4-3.016a.331.331,0,0,0-.214-.123.356.356,0,0,0-.248.052l-8.243,5.144a.276.276,0,0,0-.087.405l2.259,3.1a.336.336,0,0,0,.215.131.365.365,0,0,0,.255-.047l8.38-5.227A.281.281,0,0,0,872.216,435.725Z" transform="translate(-281.35 -199.918)" fill="#464a5f"/>
  <path id="Path_700" data-name="Path 700" d="M904.757,399.938l-2.165-2.861a.366.366,0,0,0-.462-.084l-18.3,10.995a.291.291,0,0,0-.143.185.264.264,0,0,0,.049.22l2.252,3.086a.335.335,0,0,0,.215.131.365.365,0,0,0,.255-.047l18.246-11.213A.274.274,0,0,0,904.757,399.938Z" transform="translate(-287.669 -187.194)" fill="#464a5f"/>
  <path id="Path_701" data-name="Path 701" d="M897.649,378.937l-9.73-12.6a1.947,1.947,0,0,0-2.5-.424l-26.8,16.029a1.615,1.615,0,0,0-.764,1.033,1.474,1.474,0,0,0,.281,1.211l9.917,12.956a1.832,1.832,0,0,0,1.16.68,1.984,1.984,0,0,0,1.359-.256l26.612-16.4a1.6,1.6,0,0,0,.751-1.03A1.463,1.463,0,0,0,897.649,378.937Z" transform="translate(-280.475 -176.018)" opacity="0.1"/>
  <path id="Path_702" data-name="Path 702" d="M898.28,379.059l-9.729-12.6a1.955,1.955,0,0,0-2.5-.424L859.29,382.081a1.612,1.612,0,0,0-.771,1.031,1.468,1.468,0,0,0,.281,1.213l9.888,12.943a1.832,1.832,0,0,0,1.16.68,1.984,1.984,0,0,0,1.359-.256l26.626-16.4a1.6,1.6,0,0,0,.743-1.033A1.464,1.464,0,0,0,898.28,379.059Z" transform="translate(-280.658 -176.062)" fill="#939498"/>
  <path id="Path_703" data-name="Path 703" d="M963.731,414.694l-20.643-6.134L876.88,449.53l20.491,5.947a4.141,4.141,0,0,0,3.313-.437l63.235-39.169a.622.622,0,0,0,.348-.644A.675.675,0,0,0,963.731,414.694Z" transform="translate(-285.776 -191.341)" fill="#7ec2eb"/>
</svg>
