<svg xmlns="http://www.w3.org/2000/svg" width="51" height="86.5" viewBox="0 0 51 86.5"><defs><style>.a,.d{fill:#7ec2eb;}.b{fill:#3f3d56;}.c{fill:none;stroke:#2f2e41;stroke-miterlimit:10;}.d{opacity:0.3;}</style></defs><circle class="a" cx="7" cy="7" r="7" transform="translate(19 19)"/><path class="b" d="M488.741,399.906s-14.774,5.922-25.241.12l.1-1.675.9-15.552.853-14.714,1.019-17.585H485.99l.943,17.585.79,14.714.834,15.552Z" transform="translate(-450.913 -316.127)"/><path class="c" d="M463.5,350.5" transform="translate(-450.913 -316.127)"/><path class="a" d="M488.741,752.055s-13.578,6.041-25.241.12l.1-1.675h24.959Z" transform="translate(-450.913 -668.276)"/><path class="a" d="M457.073,450.214H433.85L434.7,435.5h21.581Z" transform="translate(-420.264 -383.542)"/><rect class="b" width="22.011" height="2.393" transform="translate(14.262 32.459)"/><rect class="b" width="22.011" height="2.393" transform="translate(14.262 24.444)"/><rect class="b" width="1.316" height="6.221" transform="translate(16.176 26.836)"/><rect class="b" width="1.316" height="6.221" transform="translate(19.645 26.836)"/><rect class="b" width="1.316" height="6.221" transform="translate(23.115 26.836)"/><rect class="b" width="1.316" height="6.221" transform="translate(26.584 26.836)"/><rect class="b" width="1.316" height="6.221" transform="translate(30.053 26.836)"/><rect class="b" width="1.316" height="8.194" transform="translate(19.645 17.326)"/><rect class="b" width="1.316" height="8.194" transform="translate(16.115 18.326)"/><rect class="b" width="1.316" height="8.194" transform="translate(23.115 17.326)"/><rect class="b" width="1.316" height="8.194" transform="translate(26.584 17.326)"/><rect class="b" width="1.316" height="8.194" transform="translate(30.053 17.326)"/><rect class="b" width="1.316" height="6.221" transform="translate(33.522 26.836)"/><rect class="b" height="7" transform="translate(17 18)"/><rect class="b" width="2" height="7" transform="translate(33 18)"/><path class="b" d="M462.011,47.09H440V39.912L451.006,31l11.006,8.912Z" transform="translate(-425.678 -27.431)"/><circle class="d" cx="18.506" cy="18.506" r="18.506" transform="translate(7.061 7.075)"/><circle class="d" cx="25.5" cy="25.5" r="25.5"/></svg>