<svg xmlns="http://www.w3.org/2000/svg" width="597.16" height="264" viewBox="0 0 597.16 264"><defs><style>.a{fill:#fff;}.b{fill:#6798f4;}.c{fill:#eba77e;}.d{fill:#c4c7c8;}.e,.f{fill:none;stroke:#000;}.f{stroke-width:2px;}</style></defs><g transform="translate(2041.44 -110.587)"><rect class="a" width="597.16" height="264" transform="translate(-2041.44 110.587)"/><path class="b" d="M-1950.788,329.88c-.632.887-4.437,1.172-3.512-.708a36.013,36.013,0,0,1,3.261-3.087c.679-.516-.9-4.007,1.582-4.851.862-.294,2.429,2,2.491,2.565.1.943.645,3.271,1.316,3.864a1.5,1.5,0,0,1,.531.61c.54,1.585-2.891,2.928-4.052,2.135a1.7,1.7,0,0,0-1.617-.527Zm338.221-87.226c-.3-.823-.951-.979-1.645-1.452-.656-.448-3.475-1.638-3.834-.6a1.73,1.73,0,0,0-.082.6,11.069,11.069,0,0,0,1.408,1.5c.35.309.435,1.017.73,1.4.548.721,1.289,1.518,1.844,2.247,1.335,1.756,2.293-.655,1.87-1.895-.143-.419-.059-1.038-.292-1.805h0Zm32.352-19.122c.344-.736-.759-.011-.645-.848.224-1.648-2.677-3.2-4.08-2.727-.825.281-.689,1.384-1.22,1.788a10.622,10.622,0,0,1-3.929-.644c-.682-.9-1.243-2.766-1.9-3.624-.332-.436.515-1.323.353-1.8-.06-.175-2.026-1.708-1.323-2.243.81-.616,2.834-.056,3.508-1.042.729-1.069,1.026-3.743,2.024-4.5.386-.293,1.388,0,1.778-.3.651-.495,1.041-1.593,1.749-2.476a10.154,10.154,0,0,1,2.287-1.643c1.124-.855,2.421,1.421,2.9,1.807,1.421,1.139,2.389,2.775,4.013,4.02,2.588,1.986,4.217,2.027,6.023,4.4.667.877-1.08,1.156-1.56,1.09-1.032-.14-5.525-2.871-5.95-2.547-.534.406-2.244,2.7-1.39,3.828.664.873,3,.2,3.925-.117.678-.231,2.241.9,2.883,1.152,1.27.508,4.57-.075,4.317,1.782a2.019,2.019,0,0,1-.949,1.391c-.7.53-.471,4.106-.333,4.84.195,1.033,1.2,2.722.659,3.13-1.216.924-5.97-1.561-6.362-2.712-.127-.373.2-.914.068-1.294-.467-1.37-.859-1.381-1.628-2.393-.1-.13-.7-.042-.853-.116-1.843-.906-2.3.506-3.565,1.469,0,0-1.6.153-.8.325Zm2.154,10.5c-1.939-.226-2.061-1.87-2.578-3.391-.479-1.406-2.7-2.5-2.448-4.35.227-1.663.324-1.584,2.088-1.779.466-.051,2.09-.845,2.369-.655C-1575.525,225.976-1574.111,231.783-1578.061,234.031Zm51.684-8.815c-3.8.334-2.964-4.688-1.886-6.879a10.2,10.2,0,0,0,.053-3.576c-.023-.2-.394-2.832-.476-2.887-.213-.145-4.683-1.18-5.044-1.23a7.719,7.719,0,0,1-1.691-.339c-1.617-2.127,1.345-3.7,2.707-4.734.564-.429-.5-2.2.029-2.6.2-.152.877.814.964.891.736.65,2.1.7,2.854,1.366a30.664,30.664,0,0,0,3.276,3.052c2.9,1.976,3.352,6.656,2,10.043-.219.548-.966.711-1.056,1.376-.131.962.51,3.626,0,4.016a6.577,6.577,0,0,0-1.725,1.5Zm42.28-73.716c-.172.456-1.1.453-1.516.771-.192.146-.18.519-.421.7-.674.513-5.1,1-5.824.51-.289-.2-1.692-.948-2.059-.823-.284.1-.37.472-.514.582-.226.172-1.428-1.112-1.967-.7-.38.289-.855.555-1.318.906-.988.752-.316,1.938-1.855,2.462-1.988.677-5.3-.531-5.359-.512-.351.12-3.115,5.626-2.833,6.454.7,2.063,4.431.116,5.538-.006.7-.078.993-.534,1.608-.65,1.27-.24,1.406,1.9,4.656.091,1.765-.983,2.343-3.848,4.078-4.439,1.581-.539,4.767.2,6.2-.893.288-.219,1.25.133,1.628,0,2.005-.683,3.217-1.3,3.565-3.857.034-.249.052-.954-.175-1.109a9.1,9.1,0,0,0-3.944-.537c-.03.011,1,.612.509,1.046Zm-43.919,25.94c-.243.175-.7.152-.911.31-.345.262-.2.641-.237.945-.036.268-.5.469-.344.93.563,1.651,2.677.27,2.839-.916.073-.532-.333-.9-1.347-1.269Zm-14.3,2.939c-2.756-.608-10.276.718-9.132,4.077.2.578.915.7,1.255,1.148.92,1.209.2,2.608,1.256,3.536,1.321,1.167,2.816-3.1,3.216-3.688a11.065,11.065,0,0,1,1.555-1.851c.359-.273,1.207-.057,1.565-.33.8-.607,1.7-1.387,2.437-1.948C-1539.338,180.7-1541.57,180.461-1542.312,180.379Zm-283.122,58.841c-1.966-.436-2.432-2.359-4.085-3.487a15.093,15.093,0,0,1-3.043-2.368c-.679-.893-.946-2-1.57-2.819-.251-.33-1.677.224-1.9.393-.628.478-2.484,8.421-2.455,8.46,1.712,2.252,5.014-1,6.046-1.348,1.269-.432,3.294,5.261,7.006,1.171Zm-43.254,9.094c-2.168.118-.819-3.009.068-3.682,1.807-1.374-2.976-4.984-.055-5.979,1.306-.445,6.479,4.725,3.258,7.175-.959.729-2,.977-3.27,2.486Zm59.765,76.969a10.152,10.152,0,0,0-8.643,2.08c-.209.159-.769.107-1.018.3-.666.506-2.378-1.058-3.077-.527-.989.752-6.933.38-8.028.753-1.726.588-2.672,1.8-4.258,2.569-1.374.668-3.663.109-4.8.975a16.427,16.427,0,0,1-2.194,1.764c-1.655.805-3.953.088-5.7.418-.635.12-1.2.631-1.943.713-1.764.194-3.577.121-5.383.461l-.441.049a91.506,91.506,0,0,1-10.145,2.745c-.812.153-1.426-.184-2.267-.092a33.049,33.049,0,0,0-7.219,1.189c-.6.2-1.727-.231-2.359-.213-4.491.134-7.052-1.232-10.383,1.3-1.083.824,3.812,1.93,4.395,2.01l.824.329c1.209-.4,2.5.092,3.7-.04a38.186,38.186,0,0,0,7.533-1.906c1.749-.6,4.429.48,6.391.11,4.343-.819,9.17-.735,13.435-2.188,1.741-.593,4.034.15,5.7-.418a67.141,67.141,0,0,0,7.543-2.773c2.038-.991,3.588-2.235,5.566-2.608,1.061-.2,3.458-.623,4.3-1.261.743-.565,4.015-.555,4.893-.854,1-.341,2.516.82,3.517.479,2.091-.712,4.59.831,6.895.4a15.725,15.725,0,0,0,2.078-.911,6.587,6.587,0,0,0,2.049-.7c.352-.268.352-1.128.736-1.42.243-.185,1.216-.31,1.076-.722-.191-.56-2.236-1.643-2.767-2.005Zm-117.21-51.313c-.422-.555-.834-5.4-.927-6.728l.512-.64c1.39-.262,1.125-9.493,2.91-8.615.3.15.391.766.524.94.257.338.957.5,1.192.814.276.363-.324,1.585-.062,2.054.876,1.572,3.111.189,4.647,3.347a7.792,7.792,0,0,1,.451,3.861c-.032.238-.155,1.933.059,1.962a.858.858,0,0,0,.576-.247c.827-.629,1.09-2.644,1.971-3.314.362-.275.247-1.816.518-2.209.737-1.08,1.593-1.822,2.49-3.135.581-.85-.685-1.78-1-2.2-.2-.262-1.511.413-1.807.514-3.608,1.229-4.749.531-5.674-2.184-.373-1.093,1.2-1.672,1.477-2.079,1-1.458-.736-3.932,1.045-5.286,2.076-1.579,4.821.747,6.536,1.433.621.248,2.055.064,2.422.547.813,1.07,2.187,2.092,2.593,3.284a21.884,21.884,0,0,0,3.558,6.564c1.08,1.421.348,3.977.883,4.68.093.122,1.509-4.114,1.724-3.891l-.141-.562c.094-.686-.55-.964-.209-1.657s2.092-4.452,1.961-4.836a7.067,7.067,0,0,0-1.245-2.015c-1.4-1.845-.223-6.158.968-7.9,2.179-3.192,3.5-2.432,7.557-2.88.395-.043,1.206.134,1.536-.117,3.889-2.957,8.191-5.228,13.594-3.361,1.33.459,2.41.279,3.1,1.181.392.515,2.126.408,2.946,1.487,1.021,1.344-4.383.019-4.458.045-.469.16-.928.525-1.473.451a30.222,30.222,0,0,0-4.52,2.1c-.612.9.834,1.851.514,1.807-.1-.013,1.265-.029,1.623-.756a1.852,1.852,0,0,1,2.078-.911,6.1,6.1,0,0,1,1.8,1.114,8.648,8.648,0,0,0,1.207.707c1.021.7.073,2.61.722,3.464.306.4,1.262.172,1.6.218s.9.053,1.052.252l.654-.02c.381.052,1.914,1.029,2.408.654,2.508-1.907,2-7,5.7-5.2l.354.591c.088.467,1.637,5.54,3.45,4.161.38-.289.151-.847.4-1.357a3.756,3.756,0,0,0,.46-1.783c-.066-1.057.164-2.3-.446-3.1-1.683-2.213-5.673-5.428-3.088-9.214.39-.572.012-1.64.411-2.224.787-1.153.327-2.828,1.361-3.615.367-.279,2.366.849,2.563,1.109.295.388-.232,1.328,0,1.628a6.513,6.513,0,0,0,.824.329c2.983.792,6.5.417,8.944,2.086.3.207.307.906.494,1.153.03.04.176.63,0,.761-.532.4-.895,1.445-1.448,1.866-1,.757-2.6.637-3.551,1.362-1.329,1.011,3.022,2.158,3.6,3.856.36,1.056-1.526,1.734-2.025,2.113-.329.25,2.032,1.416,2.171,1.6.721.949-1.933,3.049.151,4.472.444.3,1.274-.044,1.735.019.5.068.734-.367,1.061-.616.1-.076,1.01-.808.8-1.085-.333-.438-2.3-4.447-.99-4.695a23.2,23.2,0,0,0,3.75-1.227c1.4-.476,3.243-.168,4.806-.214.751-.022,1.512-1.181,2.461-.533a5.766,5.766,0,0,1,1.376,1.056c.287.377,1.416,4.753,2.264,4.108.777-.591-.565-4.157.454-4.932a9.383,9.383,0,0,0,2.17-3.179l.392-.489a13.762,13.762,0,0,1,1.921-1.747,73.125,73.125,0,0,1,8.949.458l.266.036c.984.134,1.405.988,2.132,1.485.882.6,3.51,1.412,4.053,2.126.365.48.777,1.533,1.541,1.838a4.647,4.647,0,0,1,1.214.654c.054.07.481.066.586.08a13.578,13.578,0,0,1,4.159.946,5.327,5.327,0,0,1,1.982,1.79,10.836,10.836,0,0,0,.642,1.662c.144.189-.024.6.112.775.49.644,2.395.7,3.128,1.349a5.475,5.475,0,0,1,.8.87c.034.045-.025.274.012.327.617.812,1.609,1.5,2.076,2.291l.223.356,1.546,2c.518-1.56-1.69-7.075-3.318-7.726-.607-.243-3.586-1.192-2.19-2.252.257-.2.439-.963.8-1.085,2.521-.859,5.451-.79,8.158-1.712.728-.248,1.517-1.44,2.1-1.885A9.682,9.682,0,0,1-1781.08,242c.417-.1,2.591-2.243,2.975-1.115.211.62-1.109,1.547-1.419,1.652a7.066,7.066,0,0,0-1.923,1.367c-.658.666-2.5,1.229-3.29,1.832-.715.544-.565,2.245-1.123,2.67a2.807,2.807,0,0,0-.382,2.011c.527,1.545,2.064.816,2.737-.17.459-.672.291-1.941.867-2.379,1.221-.928,6.186-4.073,5.343-6.547-.068-.2.255-.8.131-.959a8.991,8.991,0,0,1-1.294-2.456c-.311-.912,1.232-1.74.683-2.621l.179-.519c-.354-.636-2.979-3.372-2.656-3.619.125-.095.177-.516.3-.611,1.962-1.492,4.072,1.459,6.2.735,2.53-.862.743-1.712,1.749-2.476.739-.562,2.317.075,3.178-.219,1.134-.386,2.943.844,3.522,1.24.176.12.077.693.417.925.133.09.556.293.4.271-.178-.024-.486.24-.378.383.221.291,1.046.294,1.095-.068.047-.345-1.3-.2-1.463-.416-1.529-2.011-4.069-1.78-5.8-.464-.664.505-.309,2.484-.058,2.815.632.831,3.491-.309,4.157.566.645.848-2.329,2.466-1.283,3.842.2.262.6.417.78.649.251.33,2.217-1.162,2.563-1.28,1.425-.486,2.11,1.262,3.682.067a13.709,13.709,0,0,0-.374-3.634c-.287-.378-2.111-2.737-.645-3.236,1.241-.423,1.716,1.109,2.612,1.55.5.248,1.127.325,1.662.552.414.176,7.116,4.05,7.162,4.015s.968-.361.833-.538a6.687,6.687,0,0,1-.737-.969c.39-.3,1.644-.033,2.19-.136a37.77,37.77,0,0,1,12.669-.555c11.395,1.551,22.349,6.722,33.557,3.917,1.044-.261,2.279-.13,2.732-.931l.591-.354c1.606.219,7.105,3.018,8.218,2.639a12.9,12.9,0,0,1,6.734-.82c1.791.244,4.209,1.837,6.1,1.481,2.037-.384,4.163-1.824,6.5-2.264,1.083-.2,2.14-1.338,3.139-1.527,3.586-.677,9.843,2.39,12.956,1.33a81.873,81.873,0,0,0,10.159-5.24c2.021-1.536,4.415-3.537,6.894-4.381.464-.158.692-1.281,1.376-1.333l.712-.446c1.561-.759,3.163-2.5,4.5-3.514.548-.417.787-1.459,1.463-1.972.945-.719,4.289-1.675,4.777-2.39.453-.664,2.16-2.727,2.887-2.864,2.366-.446,6.278-.187,8.023-1.513,1.98-1.506,1.886-5.161,3.715-6.551,1.308-.995,3.1-.852,4.525-1.338.724-.247,1.334.765,2.1.5a15.194,15.194,0,0,0,2.349-1.309c1.041-.354,2.348-.7,3.4-1.057,1.27-.433,1.142-1.537,1.8-2.035.345-.262,1.2-.335,1.609-.65.757-.575,1.47-1.787,2.281-2.4.712-.542,1.922-.983,2.592-1.493.915-.7,1.686-2.384,2.427-3.47.877-1.285,3.424-2.412,4.331-3.1,1.265-.962,4.371,1.306,5.635.876,1.018-.347,4.084-.621,4.83-1.188a12.527,12.527,0,0,1,2.8-1.464c1.027-.35,2.2-2.173,3.619-2.656,1.645-.56,1.615,2.347,3.343,1.758.375-.128,1.616.109,1.856-.073.821-.624,3.676-1.7,4.806-.214.964,1.267-2.708,3.151-3.26,4.008l-.484.368c-.711,5.227-5.117,6.238-9.5,8.369-.532.259-3.655.581-2.936.035.771-.586,7.678-4.983,7.174-5.646-.323-.424-.843.287-1.366.465a14.367,14.367,0,0,1-3.449.616c-1.405.155-6.042-1.9-6.643-1.447a8.46,8.46,0,0,0-2.117,1.992c-.777,1.139-.256,2.2-1.516,3.159-1.129.858-2.772.029-3.968.437-1.339.456-1.729,2.959-2.513,4.109-.333.488-1.309.612-1.759.955-1.044.794-1.631,2.208-2.625,3.334-1.8,2.034-3.764.855-4.54,1.445a11.28,11.28,0,0,0-1.719,2.263c-1.409,2.065-5.614.706-4.805,4.991.043.228-.278.892-.145,1.066.145.191.151.827.3,1.017,1.043,1.372,9.323-2.531,6.154,3.443l-.286.5c-.678,4.983-9.525-.02-10.039.37-.806.613-5.06,1.28-5.261,2.758a10.035,10.035,0,0,0,.18,4.259c.5,1.463,4.8,2.391,3.795,5.619-.1.31-.292,1.464-.552,1.662-.52.4-1.447-2.028-1.735-2.408-.25-.329-.973-.525-1.192-.814a26.554,26.554,0,0,1-2.128-4.307,15.974,15.974,0,0,0-.834-1.851c-.643.489-.821,5.306-1.559,5.868-.972.74-1.721,2.455-2.838,3.3-.918.7-2.6-1.312-3.237-1.743-.278-.19-.127-1.046-.267-1.231-.07-.093-.72-.025-.76,0-.615.467-2.75,3.326-2.96,3.4a48.128,48.128,0,0,0-5.828,2.138c-.71.539.446,2.719-.222,3.227a11.851,11.851,0,0,0-2.417,2.6c-1.43,2.095-2.971,4.265-5.76,5.621-1.8.874-10.777.932-11.128,1.2a9.811,9.811,0,0,0-2.276,3.164,5.41,5.41,0,0,0-.585,3.5c.757,2.222,3.659-.823,5.349-1.009,1.391-.153,1.59,1.2,2.37,1.734,1.193.815,3.5.4,4.709,1.293l.775-.112c2.838,1.4,1.247-2.979,3.3-2.7a4.191,4.191,0,0,1,1.279.174c.615.42,1.614.363,2.045.93a24.664,24.664,0,0,0,5.985,5.483c.912.622,2.876.049,3.789.082.932.033,2.752.106,3.421-.4,1.191-.906,2.695-1.858,3.967-2.825.589-.448.769-1.838,1.477-2.079,1.363-.464,3,2.4,4.739,1.079.809-.615.99-3.348.353-4.186-.6-.785-3.394-1.514-2.559-2.737,1.126-1.649,2.332-3.867,4.49-4.274,1.2-.226,3.727.415,4.714-.335a15.746,15.746,0,0,0,2.46-2.922c.252-.369.159-1.168.523-1.449,1.372-1.043,4.171-2.007,4.937-3.562.532-1.083.576-2.637,1.254-3.629,1.569-2.3,3.745-3.092,6.889-2.754l.533.073c.76.1,3.866,1.074,4.356.7s1.545-.888,2.015-1.246c1.233-.937,5.262,1.013,5.839,1.772.5.656,2.914.938,3.639.387.456-.347.477-1.126.886-1.725.342-.5,1.432.12,1.928-.606.332-.486.395-2.5.939-2.912s1.458.707,3.115-.553c.4-.307.31-2.28.377-2.771.056-.416,1.1-1.194.765-1.633-.412-.542-1.441-3.3-.543-3.982.171-.13,6.21,2.609,6.968,2.251l.4.271c-.434,3.19,5.065,1.292,5.9,3.734.407,1.2-2.4.553-2.136,1.338.443,1.3,1.373,2.391,1.944,4.065.228.67.355,2.63.994,3.067.187.128.442-.477.513-.582.7-1.028.369-2.247.968-3.125a6.611,6.611,0,0,0,1.38-5.349c-.081-.426-.912-1.983-.32-2.432l3.633-2.762c.159-.121.547.509.688.528.942.128,5.828,2.645,5.669,3.812-.081.591.29,2.55-.179,2.907-.377.286-2.048,1.329-1.385,2.2.582.765,2.291.807,3.174,1.409.445.3-.291.938-.1,1.507a6.386,6.386,0,0,0,2.011,2.771c.517.254,2.636,3.442,3.169,3.037.972-.739,4.255-1.4,6.027-2s.794-3.531,4.336-2.341l.732.208c2.164.295-.318,2.472.587,3.663.329.433,2.868.716,3.261.77.117.016.872-6.109,1.312-6.444,1.089-.828,3.265.1,4.573-.9l3.754-2.855c.555-.422.638-1.446,1.036-2.03.547-.8,2.159-1.355,2.863-1.89,1.1-.837,2.956,1.288,3.944.537a11,11,0,0,0,2.848-4.172c.865-1.76-1.508-2.79,2.635-4.2a5.136,5.136,0,0,1,2.5.014c4.443.6.909,4.523,3.587,6.351.222.152.571.466.93.344.77-.262,3.6-.145,3.721-1.013.348-2.558-.115-2.9-2.947-3.875-.443-.153-2.986-.787-2.2-1.385.642-.488,2.124-.5,2.945-.9.5-.241.935-1.189,1.284-1.454.311-.237,2.113.4,2.544.455,1.087.148,4.035,1.41,4.594,2.145.5.653,5.421.468,6.386,1.738.185.244.081.834.174,1.109a1.471,1.471,0,0,1-.068,1.294c-.742,1.087-3.537,4.864-4.393,5.156-.317.108-.747-.1-1.08-.038a27.585,27.585,0,0,0-5.131,1.8c-.57.433-5.506-.878-6.5-.125-1.381,1.05-3.478,1.134-5.116,1.692-.955.325-1.456,1.394-2.1,1.885a20.942,20.942,0,0,1-3.837,1.866c-.977.475-2.027,1.45-3.091,1.968a42.647,42.647,0,0,1-4.84,2.055c-1.155.393-2.472.337-3.585.815-.9.384-1.433,1.171-2.471,1.4l-.623.187-2.267,1.1c-.576.28-1.454.209-2.02.485a17.376,17.376,0,0,1-4.167,1.5c-2,.377-4.268.43-6.148.9-1.045.262-2.114.572-3.144.766a5.788,5.788,0,0,0-.986.463c-1.647.707-3.353,1.3-4.893,2.048-1.048.51-2.272.332-3.326.9l-.289.124a43.506,43.506,0,0,1-4.563,2.419,11.156,11.156,0,0,0-2.64,1.052c-.448.341-8.773,2.758-10.232,3.384-.834.358-3.029-5.82-3.974-5.1-.7.53-.632,3.517-.367,4.293.213.624,1.048.749,1.362,1.162.092.121-.158.6-.193.625-.71.54-1.6,1.4-2.209,1.871-1.416,1.077-3.436.7-4.917,1.828-.568.432-1.364,1.583-2.209,1.871a58.022,58.022,0,0,0-6.511,2.371c-2.642,1.285-5.438,3.617-8.463,3.951-3.8.419.873-3.394.905-3.46.419-.851-.57-2.258-.931-2.732-.283-.372-.035-2.936-.461-2.994s-1.413,2.89-1.971,3.314c-.256.195-2.614,2.595-2.446,2.816.91,1.2.474.323,1.589,1.085.26.178.227.8.281,1.124l.519.179c-1.676,1.274-4.269,1.43-5.78,2.579a15,15,0,0,1-4.016,2.385,21.318,21.318,0,0,1-5.242,1.023,10.851,10.851,0,0,0-2.161-.077,11.239,11.239,0,0,1-1.759.955c-.409.175-2.851,1.029-3.086.34-.226-.664,1.187-2.339,1.288-3.082.024-.176.035-2.033-.543-1.594-1.814,1.38.119,3.153-.295,3.76-.264.387-.482,1.609-.794,1.846-1.634,1.243-3.388,1.459-5.281,2.1-.557.19-7.53,1.408-7.752,1.116-.065-.086.085-.628.1-.746.013-.1.013-.584.087-.64.313-.238,1.194-.048,1.565-.33,2.281-1.734,7.511-1.276,9.466-4.14.7-1.022-.616-1.706-1.245-2.015-.473-.233-.631-.917-1.042-1.119-1.572-.773-3.057-1.352-4.7-2.16-.734-.361-3.295.945-3.832.238-.584-.768-2.823-.717-3.532-.372-1.082.526.024,8,.1,8.047a12.893,12.893,0,0,1,3.368,3.173c.773,1.017-2.4,2.592-2.78,2.879-4.828,3.671-11.124,3.433-15.759,7.3l-.9.2c-1.169.569-2.568,1.891-3.788,2.307-2.527.861-5.462-.274-8.12.632-1.852.631-6.364-.321-7.694.69-1.475,1.121-5.229-.229-6.87,1.019-4.219,3.208-10.148,2.556-13.749,5.294-2.7,2.054-8.708-.642-11.25,1.291-4.987,3.792-15.876,4.236-19.156,6.729-.972.739-3.636-.293-4.622.456-4.688,3.565-11.533,3.421-17,5.285-7.864,2.679-12.423,8.095-19.678,10.566-4.168,1.42-27.651,3.441-29.059,4.512-2.86,2.174-8.329.6-11.976,1.844-3.546,1.208-6.552,1.927-10.2,3.171-3.2,1.09-18.14-.137-18.973-2.583-.234-.687,8.154-.627,9.612-.428.291.04,14.22-.982,14.932-1.224,3.819-1.3,7.791-1.733,12.024-3.791,1.954-.951,5.042.722,6.938.076,3.075-1.047,6.286-1.227,9.205-2.221,1.555-.53,3.682.575,5.2.057,1.708-.582,5.549-.206,6.9-1.232,2.952-2.245,6.994-1.687,9.864-3.868,1.16-.882,1.832-1.966,2.751-2.665,1.3-.986,2.695-.833,3.885-1.425l1.182-.708c1.637-.309,2.742-1.544,4.186-2.036,2.242-.764,5.823.419,8.013-.646a53.146,53.146,0,0,1,6.492-3.025c.824-.281,1.83-.014,2.645-.291.99-.337,1.67-1.077,2.791-1.357a10.571,10.571,0,0,1,1.628,0c1.546-.17,2.861-1.207,4.312-1.367a28.252,28.252,0,0,0,5.683-1.072,17.021,17.021,0,0,0,3.929-1.745c1.152-.876,2.394-2.188,3.953-2.719.668-.228,2.443.149,2.965-.248s1.507-.094,2.021-.485c2.733-2.078,11.26-1.522,14.626-3.763l.683-.233c.619-.117,10.581-1.163,10.581-1.165a23.483,23.483,0,0,1,4.219-1.488c.939-.1,2.208.366,3.028.086.913-.311,1.229-.927,2.122-1.231,1.108-.377,4.563.831,5.523.1.731-.556,2.151-1.062,2.819-1.57.521-.4.558-1.284,1.1-1.7,1.518-1.155,7.015-4.473,9.573-4.125,1.983.27,4.553-1.359,5.736-2.259.8-.608,2.751-.181,3.585-.815.619-.47.072-1.322.14-1.827.051-.372.965-1.245.751-1.526-.28-.368-1.125-.42-1.541-.644a3.627,3.627,0,0,1-.872-.77c-.012,0-.038.4-.058.426a1.122,1.122,0,0,1-.7.339c-.46.051-3.233.272-3.469-.038-.551-.725,1.195-3.317-.012-3.91-2.065-1.016-2.125,1.747-2.887,2.864-.655.959-1.165,2.532-2.126,2.859-1.194.407-2.833-.9-3.9-.1-.691.525-.5,2.264-1.075,3.111-1.17,1.715-2.4,3.6-3.541,5.272-.318.466.049,1.234-.019,1.734-.188,1.382-7.465,3-8.386,1.79-.608-.8,2.556-6.784,0-5.538-.892.434-1.837.735-2.025,2.113-.385,2.829,4.247,2.6,1.173,4.937-.271.206-.8-.127-1.187-.053a4.841,4.841,0,0,1-4.971-1.762c-.3-.391-2.194.274-2.515-.668-.438-1.288.8-2.845-.1-4.031-.246-.324-2.184,2.879-2.5,3.242-.643.728-2.406-.655-3.135-.1-.755.574-1.546.794-2.364,1.415-.14.107-1.031-.249-1.264-.281-5.522-.752-3.463-5.682-5.8-5.241-1.12.211-1.8,2.612-2.732,3.319a11.416,11.416,0,0,1-2.292.882c-.166.126.215.34.034.547l.14.562c.175.928.563.74,1.105,1.453,1.366,1.8-4.4,2.96-4.786,3.257-.866.658-3.965-1.954-4.574-1.491-.441.335-4.658,2.671-5.62,1.406-1.306-1.717-1.333-2.657-3.16-3.9a1.7,1.7,0,0,0-1.308.039c-3.622,1.234,4.177,6.38,1.7,8.265-2.435,1.852-5.338,2.53-7.518,4.188-1.054.8-3.272-.187-4.438.7-.2.153-.864-.3-1.066-.145-3.686,2.8-5.346-7.784-7.4-6.219-2.444,1.858-5.334,1.571-7.858,3.49-1.162.883-1.544,3.169-3.11,3.7-1.966.67-6.043-2.921-6.842-3.971-.814-1.071-13.564,1.14-14.351,1.738-.844.642-1.056,2.332-1.927,2.995-1.527,1.161-9.693-.657-13.072,1.912-1.346,1.023-5.232-2.357-5.495-2.7-.952-1.251-4.93-.2-5.882-1.452-.414-.544-1.9-2.566-2.3-2.267-2.916,2.217.931,3.329,1.493,4.98.528,1.551-.844,7.522-1.771,8.227-.255.194-3.8-1.694-4.516-1.918-2.612-.809-7.428-2.228-8.974-4.262-.678-.892-3.969,1.315-4.99-.028-.163-.214-.07-3.96-.6-3.556-1.7,1.3-3.465,3.739-5.687,5.089l-.862.751c-.762.579-1.287,1.265-2.1,1.885-.777.591-1.745.562-2.427,1.081-.324.246-.536.742-.877.858-1.153.393-2.465.077-3.648.48-2.047.7-4.312-2.455-6.154-1.055-.875.665-2.183.609-3.231,1.406-1.146.872-2.42,2.305-3.769,2.961-2.555,1.243-6.205,1.2-8.75,2.066-3.246,1.106-6.1,2.55-9.694,1.829l-.533-.072c-1.374.259-5.141-2.015-6.609-.9-.121.092-2.915,1.947-3.062,1.755-.177-.233-.169-.977-.373-1.245-.444-.584-6.492.636-6.72.714-.311.106-1.232-.4-1.492-.2-2.029,1.543.3,2.491-1.167,2.99-.881.3-2.729-1.579-2.995-1.928-.14-.185-.593.028-.654.02-1.867-.254-2.193.84-5.111.064-.365-.1-2.3-1.021-2.728-.7-.861.654-2.264.766-3.125,1.42-.96.73-.682,1.3-1.86,1.7-.881.3-2.86-1.075-3.5-.585-.953.725-1.348,1.95-3.134,2.288-1.278.241-2.51-1.914-4.143-.673-.4.3-.7,1.47-1.327,1.774a24.055,24.055,0,0,1-3.328.524c-1.734,1.319-3.145,2.525-5.7,2.806-2.275.25-1.935-3.89-2.5-5.552-.228-.669.559-1.653.092-2.267-.192-.252-.487.136-.562.141-3.114.194-1.842,4.048-4.18,5.185-2.356,1.146-1.345-1.8-2.3-2.267-.692-.34-1.615,1.414-2.286,1.643-.512.175-1.5-.1-1.87.18-1.011.769,3.7,1.909,3.741,2.029.375,1.1-4.447,1.568-4.06,2.7.244.718,2.053.12,2.742.591a14.239,14.239,0,0,0,1.6.978c1.39.683,3.691.068,5.174.27.593.081,4.908,1.174,5.286,1.045,1.458-.5,4.689.131,5.9-.282,2.739-.933,4.919.127,7.641.5.919.125,5.626-3.464,4.341-1.58-4.034,5.91-4.716,2.54-11.191,3.253-8.6.947-15.98-1-24.759-2.688-.626-.121-2.51-1.708-3.138-1.809-.765-.123-2.371,2.021-3.126,1.9l-.6,0-.387.024c-2.625.11-5.311-1.4-8.065-1.1-1.328.146-2.648.607-4.018.758a10.611,10.611,0,0,0-1.86.131c-.75.256-1.117,1.063-1.788,1.292-.7.237-1.951.049-2.545.651l-.795.2c-1.647.685-4.346-.388-6.173.234-3.075,1.047-9.92,2.784-13.553.3-.636-.434-2.719.156-3.166-.431-.573-.753,2.5-1.5,2.829-1.611.869-.3,2.34.048,3.4-.151,2.971-.561,4.08-1.594,7.824-1.084,1.2.164,3.724-1.75,4.46-2.31.349-.266,10.28-.113,10.648-.393.558-.425,1.366-1.687,1.946-1.885,2.5-.851,9.932-1.907,10.379-5.189.647-4.751-3.615-3.708-7.093-5.418a14.937,14.937,0,0,1-6.058-5.124c-.092-.121-.888-.121-1.055-.144-.319-.043-7.865.739-8.578.982-1.337.455-.891,1.218-1.624,1.775-.118.09-4.348,1.7-4.851,1.8-1.206.228-5.828-.839-6.735-.149-3.025,2.3,1.556,2.38,3.208,3.507,1.949,1.33-2.1,2.851.871,4.878.553.378,3.574,1.781,3.18,2.582-.407.828-1.2.641-1.843,1.131-4.024,3.059-6.18-2.163-7.887-1.841-1.907.36-1.25,2.031-2.219,2.769-.616.468-1.48.073-2.193.316-1.844.628-3.777,4.012-5.878,2.578l-1.165-.466c-3.488-.293-8.391-.193-10.237-2.622-.824-1.084,4.682-3.756,1.925-5.112-2.007-.987-5.357-2.068-6.565-3.657-2.153-2.832.138-9.978,1.854-12.491.988-1.447,2.3-1.926,3.206-3.248.924-1.354,1.1-6.78,1.759-7.284,1.135-.863,2.357-2.468,3.528-3.358s3.339-.647,4.679-1.666c1.714-1.3,2.335-2.856,3.932-4.071,1.641-1.248,1.13-12.045,4.964-13.91l.254-.733c2.974-3.567,9.916-11.6,14.51-8.465.786.536,1.543-.183,2.261.308.564.385,2.657,1.259,2.83,1.767.315.923,3.142,6.8,4.256,5.953,2.419-1.839-4.165-6.7,1.327-10.874a2.56,2.56,0,0,1,2.706-.706c2.074.282,3.935.462,5.475,1.513.819.559,4.084.039,4.653.787.916,1.2,3.655,1.963,4.626,3.24.89,1.171,2.356,2.922,3.146,3.96.723.952,2.312-.539,1.623-1.775Z" transform="translate(-9.859 -9.16)"/><path class="b" d="M-1455.489,180.379c-2.756-.608-10.276.718-9.132,4.077.2.578.915.7,1.255,1.148.92,1.209.2,2.608,1.256,3.536,1.321,1.167,2.816-3.1,3.216-3.688a11.065,11.065,0,0,1,1.555-1.851c.359-.273,1.207-.057,1.565-.33.8-.607,1.7-1.387,2.437-1.948C-1452.514,180.7-1454.746,180.461-1455.489,180.379Zm14.3-2.939c-.243.175-.7.152-.911.31-.344.262-.2.641-.237.945-.036.268-.5.469-.344.93.563,1.651,2.677.27,2.839-.916.073-.532-.333-.9-1.347-1.269Zm43.919-25.94c-.172.456-1.1.453-1.516.771-.193.146-.18.519-.421.7-.674.513-5.1,1-5.824.51-.289-.2-1.692-.948-2.059-.823-.284.1-.37.472-.513.582-.226.172-1.428-1.112-1.967-.7-.38.289-.855.555-1.318.906-.988.752-.316,1.938-1.855,2.462-1.987.677-5.3-.531-5.358-.512-.351.12-3.115,5.626-2.833,6.454.7,2.063,4.431.116,5.538-.006.7-.078.993-.534,1.608-.65,1.271-.24,1.406,1.9,4.656.091,1.765-.983,2.343-3.848,4.078-4.439,1.581-.539,4.767.2,6.2-.893.288-.219,1.25.133,1.628,0,2.005-.683,3.217-1.3,3.565-3.857.034-.249.052-.954-.175-1.109a9.1,9.1,0,0,0-3.944-.537c-.03.011,1,.612.509,1.046Zm-196.556,135.116c.667-7.292,8.409-29.518,8.651-29.7-.051-.152-1.443.1-1.652-.179a5.454,5.454,0,0,0-2.607-.789,8.6,8.6,0,0,0-2.442,1.188c-.041.031-.293.032-.334.063a4.1,4.1,0,0,0-.891.964c0,.007-.731.3-.8.325-.256.087-.663.785-.877.858-.662.225-1.077.621-1.744.848-.38.129-3.695-.419-3.973-.324-.384.131-.8-.023-1.2.053a3.135,3.135,0,0,0-1.288.693c-.094.071-.344.016-.441.049a5.307,5.307,0,0,0-.5.475c-.057.043-.157-.072-.213-.029-.168.128-.469.452-.62.567-.225.171-.245,1.383-.446,1.676a4.131,4.131,0,0,1-.906,1.071c-.528.4-1.678.225-2.141.577-.086.065-.647-.034-.761,0-.075.026-.059.173-.135.2-.389.133-.746.051-1.109.175-.175.06-.2.372-.271.4a3.721,3.721,0,0,1-3.164.112,2.311,2.311,0,0,0-1.293-.067l-.668.126-1.458.344-1.309-23.086-2.829-4.308a29.352,29.352,0,0,0,5.811-.823c1.044-.261,2.28-.13,2.732-.931l.591-.354c1.606.219,7.105,3.018,8.218,2.639a12.9,12.9,0,0,1,6.734-.82c1.791.244,4.209,1.837,6.1,1.481,2.037-.384,4.163-1.824,6.5-2.264,1.083-.2,2.14-1.338,3.139-1.527,3.586-.677,9.843,2.39,12.956,1.33a81.862,81.862,0,0,0,10.158-5.24c2.02-1.536,4.415-3.537,6.893-4.381.464-.158.693-1.281,1.376-1.333l.712-.446c1.561-.759,3.163-2.5,4.5-3.514.548-.417.787-1.459,1.463-1.972.945-.719,4.289-1.675,4.777-2.39.453-.664,2.16-2.727,2.887-2.864,2.366-.446,6.278-.187,8.023-1.513,1.98-1.506,1.886-5.161,3.715-6.551,1.308-.995,3.1-.852,4.525-1.338.724-.247,1.334.765,2.1.5a15.207,15.207,0,0,0,2.35-1.309c1.04-.354,2.348-.7,3.4-1.057,1.27-.433,1.142-1.537,1.8-2.035.345-.262,1.195-.335,1.608-.65.757-.575,1.47-1.787,2.281-2.4.713-.542,1.922-.983,2.592-1.493.915-.7,1.686-2.384,2.426-3.47.878-1.285,3.424-2.412,4.331-3.1,1.265-.962,4.371,1.306,5.635.876,1.018-.347,4.084-.621,4.83-1.188a12.526,12.526,0,0,1,2.8-1.464c1.027-.35,2.2-2.173,3.619-2.656,1.645-.56,1.615,2.347,3.343,1.758.375-.128,1.616.109,1.856-.073.821-.624,3.676-1.7,4.806-.214.964,1.267-2.708,3.151-3.26,4.007l-.484.368c-.712,5.227-5.117,6.238-9.5,8.369-.532.259-3.655.581-2.936.035.771-.586,7.678-4.983,7.174-5.646-.322-.424-.843.287-1.366.465a14.368,14.368,0,0,1-3.449.616c-1.405.155-6.042-1.9-6.643-1.447a8.456,8.456,0,0,0-2.117,1.992c-.777,1.139-.256,2.2-1.516,3.159-1.129.858-2.771.029-3.968.437-1.339.456-1.729,2.959-2.513,4.109-.333.488-1.309.612-1.759.955-1.044.794-1.631,2.208-2.625,3.334-1.8,2.034-3.764.855-4.54,1.445a11.271,11.271,0,0,0-1.719,2.263c-1.409,2.065-5.614.706-4.8,4.991.043.228-.278.892-.145,1.066.145.191.151.827.3,1.017,1.043,1.372,9.323-2.531,6.154,3.443l-.286.5c-.678,4.983-9.525-.02-10.039.37-.805.613-5.06,1.28-5.261,2.758a10.031,10.031,0,0,0,.18,4.259c.5,1.463,4.8,2.391,3.795,5.619-.1.31-.292,1.464-.552,1.662-.52.4-1.447-2.028-1.735-2.408-.25-.329-.973-.525-1.192-.814a26.554,26.554,0,0,1-2.128-4.307,15.849,15.849,0,0,0-.834-1.851c-.643.489-.821,5.306-1.559,5.868-.972.74-1.721,2.455-2.838,3.3-.918.7-2.6-1.312-3.237-1.743-.279-.19-.127-1.046-.267-1.231-.07-.093-.72-.025-.761,0-.615.467-2.75,3.326-2.96,3.4a48.128,48.128,0,0,0-5.828,2.138c-.71.539.446,2.719-.222,3.227a11.845,11.845,0,0,0-2.417,2.6c-1.43,2.095-2.971,4.265-5.76,5.621-1.8.874-10.777.932-11.128,1.2a9.814,9.814,0,0,0-2.277,3.164,5.411,5.411,0,0,0-.585,3.5c.757,2.222,3.659-.823,5.349-1.009,1.391-.153,1.59,1.2,2.37,1.734,1.194.815,3.5.4,4.709,1.293l.775-.112c2.837,1.4,1.247-2.979,3.3-2.7a4.192,4.192,0,0,1,1.279.174c.615.42,1.614.363,2.045.93a24.673,24.673,0,0,0,5.985,5.483c.912.622,2.877.049,3.789.082.932.033,2.752.106,3.421-.4,1.191-.906,2.695-1.858,3.968-2.826.589-.448.769-1.837,1.477-2.079,1.363-.464,3,2.4,4.739,1.079.809-.615.99-3.348.353-4.186-.6-.785-3.394-1.514-2.559-2.737,1.126-1.649,2.332-3.867,4.49-4.274,1.2-.226,3.727.415,4.714-.335a15.745,15.745,0,0,0,2.46-2.922c.252-.369.159-1.168.523-1.449,1.372-1.043,4.171-2.007,4.937-3.562.532-1.083.576-2.637,1.254-3.629,1.569-2.3,3.745-3.092,6.889-2.753l.533.073c.76.1,3.867,1.074,4.356.7s1.545-.888,2.015-1.246c1.233-.937,5.261,1.013,5.839,1.772.5.656,2.914.938,3.638.387.456-.347.477-1.126.886-1.725.342-.5,1.432.12,1.928-.606.332-.486.395-2.5.939-2.912s1.458.707,3.115-.553c.4-.307.311-2.28.377-2.771.056-.416,1.1-1.194.765-1.633-.413-.542-1.441-3.3-.544-3.982.171-.13,6.21,2.609,6.968,2.251l.4.271c-.434,3.19,5.065,1.292,5.9,3.734.407,1.2-2.4.553-2.136,1.338.444,1.3,1.374,2.391,1.944,4.065.228.67.354,2.63.994,3.067.187.128.442-.477.513-.582.7-1.028.369-2.247.968-3.125a6.609,6.609,0,0,0,1.38-5.349c-.081-.426-.912-1.983-.32-2.432l3.633-2.762c.159-.121.547.509.688.528.942.128,5.828,2.645,5.67,3.812-.081.591.29,2.55-.178,2.907-.377.286-2.048,1.329-1.385,2.2.582.765,2.291.807,3.174,1.409.445.3-.291.938-.1,1.507a6.386,6.386,0,0,0,2.011,2.771c.517.254,2.636,3.442,3.169,3.037.972-.739,4.255-1.4,6.027-2s.793-3.531,4.336-2.341l.732.208c2.164.295-.318,2.472.587,3.663.329.433,2.868.716,3.261.77.117.016.872-6.109,1.312-6.444,1.089-.828,3.265.1,4.573-.9l3.754-2.855c.556-.422.637-1.446,1.036-2.03.547-.8,2.159-1.355,2.863-1.89,1.1-.837,2.956,1.288,3.944.537a11,11,0,0,0,2.848-4.172c.866-1.76-1.507-2.79,2.635-4.2a5.137,5.137,0,0,1,2.5.014c4.443.6.91,4.523,3.587,6.351.222.152.571.466.93.344.77-.262,3.6-.145,3.721-1.013.349-2.558-.114-2.9-2.947-3.875-.443-.153-2.987-.787-2.2-1.385.642-.488,2.124-.5,2.945-.9.5-.241.935-1.189,1.284-1.454.312-.237,2.113.4,2.544.455,1.087.148,4.034,1.41,4.593,2.145.5.653,5.421.468,6.386,1.738.187.244.081.835.175,1.109a1.471,1.471,0,0,1-.068,1.294c-.742,1.087-3.537,4.864-4.393,5.156-.318.108-.747-.1-1.08-.038a27.589,27.589,0,0,0-5.131,1.8c-.57.433-5.506-.878-6.5-.125-1.381,1.05-3.478,1.134-5.116,1.692-.955.325-1.456,1.394-2.1,1.885a20.932,20.932,0,0,1-3.837,1.866c-.977.475-2.027,1.45-3.091,1.968a42.649,42.649,0,0,1-4.84,2.055c-1.155.393-2.472.337-3.585.815-.9.384-1.433,1.171-2.471,1.4l-.622.187-2.267,1.1c-.575.28-1.454.21-2.02.485a17.372,17.372,0,0,1-4.167,1.5c-2,.377-4.268.43-6.148.9-1.046.262-2.114.572-3.144.766a5.777,5.777,0,0,0-.986.463c-1.647.707-3.353,1.3-4.893,2.048-1.049.51-2.273.332-3.326.9l-.289.124a43.493,43.493,0,0,1-4.564,2.419,11.157,11.157,0,0,0-2.64,1.052c-.448.341-8.773,2.758-10.232,3.384-.834.358-3.029-5.82-3.974-5.1-.7.53-.632,3.517-.367,4.293.213.624,1.048.749,1.362,1.163.091.121-.158.6-.193.625-.71.54-1.6,1.4-2.209,1.871-1.417,1.077-3.436.7-4.917,1.828-.568.432-1.364,1.583-2.209,1.871a58.015,58.015,0,0,0-6.511,2.371c-2.642,1.285-5.438,3.617-8.463,3.951-3.8.419.873-3.394.905-3.46.418-.851-.57-2.258-.931-2.732-.283-.372-.035-2.936-.461-2.994s-1.413,2.89-1.971,3.314c-.256.195-2.614,2.595-2.446,2.815.91,1.2.474.323,1.589,1.085.261.178.227.8.281,1.124l.519.179c-1.676,1.274-4.269,1.43-5.779,2.579a15,15,0,0,1-4.016,2.385,21.325,21.325,0,0,1-5.242,1.023,10.855,10.855,0,0,0-2.161-.077,11.232,11.232,0,0,1-1.759.955c-.409.175-2.851,1.029-3.086.34-.226-.664,1.187-2.339,1.288-3.082.024-.176.035-2.033-.543-1.594-1.814,1.38.119,3.153-.295,3.76-.264.387-.482,1.609-.794,1.846-1.634,1.243-3.388,1.459-5.281,2.1-.557.19-7.53,1.408-7.751,1.116-.066-.086.085-.628.1-.746.013-.1.013-.584.087-.639.313-.238,1.194-.048,1.565-.33,2.281-1.734,7.511-1.276,9.466-4.14.7-1.022-.616-1.706-1.246-2.015-.473-.233-.631-.917-1.042-1.119-1.572-.773-3.057-1.352-4.7-2.16-.734-.361-3.295.945-3.832.238-.584-.768-2.822-.717-3.532-.372-1.083.526.024,8,.1,8.047a12.892,12.892,0,0,1,3.368,3.173c.773,1.017-2.4,2.592-2.78,2.879-4.828,3.671-11.124,3.433-15.759,7.3l-.9.2c-1.169.569-2.568,1.891-3.788,2.307-2.527.861-5.462-.274-8.12.632-1.853.631-6.365-.321-7.694.69-1.475,1.121-5.229-.228-6.87,1.019-3.928,2.987-9.379,2.551-13.075,4.854l-.392-3.181a10.548,10.548,0,0,0,3.534-1.288l.683-.233c.619-.117,10.581-1.163,10.581-1.165a23.488,23.488,0,0,1,4.219-1.488c.939-.1,2.208.366,3.028.086.913-.311,1.229-.927,2.122-1.231,1.108-.377,4.563.831,5.523.1.731-.556,2.151-1.062,2.819-1.57.521-.4.558-1.284,1.1-1.7,1.518-1.154,7.015-4.473,9.573-4.125,1.983.27,4.553-1.359,5.736-2.259.8-.608,2.751-.181,3.585-.815.619-.47.073-1.322.141-1.827.051-.372.965-1.245.75-1.526-.28-.368-1.125-.42-1.541-.644a3.613,3.613,0,0,1-.872-.77c-.012,0-.039.4-.058.426a1.121,1.121,0,0,1-.7.339c-.46.051-3.233.272-3.469-.038-.551-.725,1.195-3.317-.012-3.91-2.065-1.016-2.125,1.747-2.887,2.864-.655.959-1.165,2.532-2.126,2.859-1.194.407-2.833-.9-3.9-.1-.691.525-.5,2.264-1.075,3.111-1.17,1.715-2.4,3.6-3.541,5.272-.318.466.049,1.234-.019,1.734-.188,1.382-7.465,3-8.387,1.79-.608-.8,2.556-6.784,0-5.538-.892.434-1.837.735-2.025,2.113-.385,2.829,4.247,2.6,1.173,4.937-.271.206-.8-.127-1.187-.053a4.841,4.841,0,0,1-4.971-1.762c-.3-.391-2.194.274-2.515-.668-.438-1.288.8-2.845-.1-4.031-.246-.324-2.184,2.879-2.5,3.242-.643.728-2.406-.655-3.135-.1-.755.574-1.546.794-2.364,1.415-.14.107-1.031-.249-1.264-.281-5.522-.752-3.462-5.682-5.8-5.241m154.752-61.769c-3.8.334-2.964-4.688-1.886-6.879a10.2,10.2,0,0,0,.053-3.576c-.023-.2-.394-2.832-.476-2.887-.213-.145-4.683-1.18-5.044-1.23a7.724,7.724,0,0,1-1.691-.339c-1.617-2.127,1.346-3.7,2.708-4.734.564-.429-.5-2.2.029-2.6.2-.152.877.814.964.891.736.65,2.1.7,2.854,1.366a30.62,30.62,0,0,0,3.276,3.052c2.9,1.976,3.352,6.656,2,10.043-.219.548-.966.711-1.056,1.376-.131.962.51,3.626,0,4.016a6.573,6.573,0,0,0-1.724,1.5h-.008Zm-51.684,8.815c-1.938-.226-2.06-1.87-2.578-3.391-.479-1.406-2.7-2.5-2.448-4.35.226-1.663.324-1.584,2.088-1.779.466-.051,2.09-.845,2.369-.655C-1488.7,225.976-1487.288,231.783-1491.239,234.031Zm-2.154-10.5c.344-.736-.759-.011-.645-.848.224-1.648-2.677-3.2-4.08-2.727-.826.281-.689,1.384-1.221,1.788a10.622,10.622,0,0,1-3.929-.644c-.682-.9-1.243-2.766-1.9-3.624-.331-.436.515-1.323.353-1.8-.06-.175-2.026-1.708-1.323-2.243.81-.616,2.834-.056,3.507-1.042.729-1.069,1.026-3.743,2.024-4.5.386-.293,1.388,0,1.778-.3.651-.495,1.041-1.593,1.749-2.476a10.152,10.152,0,0,1,2.286-1.643c1.124-.855,2.421,1.421,2.9,1.807,1.421,1.139,2.389,2.775,4.013,4.02,2.588,1.986,4.217,2.027,6.023,4.4.667.877-1.08,1.156-1.56,1.09-1.032-.14-5.525-2.871-5.95-2.547-.534.406-2.244,2.7-1.39,3.828.664.873,3,.2,3.924-.117.678-.231,2.241.9,2.883,1.152,1.27.508,4.57-.075,4.317,1.782a2.019,2.019,0,0,1-.949,1.391c-.7.53-.471,4.106-.333,4.84.195,1.033,1.2,2.722.659,3.13-1.216.924-5.97-1.561-6.362-2.712-.127-.373.2-.914.068-1.294-.467-1.37-.859-1.381-1.628-2.393-.1-.13-.7-.042-.853-.116-1.843-.906-2.3.506-3.566,1.469,0,0-1.6.153-.8.325Zm-32.352,19.122c-.3-.824-.951-.979-1.644-1.452-.656-.448-3.475-1.638-3.834-.6a1.724,1.724,0,0,0-.082.6,11.055,11.055,0,0,0,1.408,1.5c.35.309.435,1.017.73,1.4.549.721,1.289,1.518,1.844,2.247,1.335,1.756,2.293-.655,1.87-1.895-.143-.419-.059-1.038-.292-1.805h0Z" transform="translate(-96.683 -9.16)"/><path class="c" d="M-1913.5,353.614a3.568,3.568,0,0,0-.69-3.119l.7-.961,3.3-1.42,3.224-1.636.361-2.165,1.059-1.083,1.444-1.9.746-.842.084-3.322.544-6.737.545-6.193.851-3.709,3.062-1.259.715-.851,1.123-.408.783-2.144.442-2.416-.51-2.246-5.75-5.019-.766-2.212-1.5-1.531-1.14-.953-1.531-.2-.137-.461a1.331,1.331,0,0,0-.16-.486h-.008c-.422-.555-.834-5.4-.927-6.728l.512-.64c1.39-.262,1.125-9.493,2.91-8.615.3.15.391.766.523.94.257.338.956.5,1.192.814.276.363-.324,1.585-.062,2.054.876,1.572,3.111.189,4.647,3.347a7.8,7.8,0,0,1,.451,3.861c-.032.237-.155,1.933.059,1.962a.858.858,0,0,0,.576-.247c.827-.629,1.089-2.644,1.971-3.314.362-.275.247-1.816.518-2.209.738-1.08,1.593-1.822,2.49-3.135.58-.85-.685-1.78-1-2.2-.2-.262-1.511.413-1.807.514-3.608,1.229-4.749.531-5.674-2.184-.372-1.093,1.2-1.672,1.477-2.079,1-1.458-.736-3.932,1.045-5.286,2.076-1.579,4.821.747,6.536,1.433.621.248,2.056.064,2.423.547.813,1.07,2.187,2.092,2.593,3.284a21.878,21.878,0,0,0,3.557,6.564c1.08,1.421.348,3.977.883,4.68.093.122,1.509-4.114,1.724-3.891l-.141-.562c.094-.686-.549-.964-.209-1.657s2.092-4.452,1.961-4.836a7.076,7.076,0,0,0-1.246-2.015c-1.4-1.845-.223-6.158.968-7.9,2.179-3.192,3.5-2.432,7.557-2.88.395-.044,1.206.134,1.536-.117,3.889-2.957,8.191-5.228,13.594-3.361,1.33.459,2.41.279,3.1,1.181.392.515,2.126.408,2.946,1.487,1.022,1.344-4.384.019-4.457.045-.469.16-.928.525-1.473.451a30.224,30.224,0,0,0-4.52,2.1c-.612.9.835,1.851.514,1.807-.1-.013,1.265-.029,1.623-.756a1.852,1.852,0,0,1,2.078-.911,6.1,6.1,0,0,1,1.8,1.114,8.644,8.644,0,0,0,1.207.707c1.021.7.073,2.61.723,3.464.306.4,1.262.172,1.6.218s.9.053,1.052.252l.654-.02c.381.052,1.914,1.029,2.408.654,2.508-1.907,2-7,5.7-5.2l.354.591c.088.467,1.637,5.54,3.451,4.161a.854.854,0,0,0,.256-.683l.455,1.018,3.284,7.247,1.194,64.96c-1.651-.223-4.74-1.881-6.035-.9-.121.092-2.915,1.947-3.062,1.755-.177-.233-.169-.977-.373-1.245-.444-.584-6.492.636-6.72.714-.311.106-1.232-.4-1.492-.2-2.029,1.543.3,2.491-1.167,2.99-.881.3-2.729-1.579-2.995-1.928-.14-.185-.593.028-.654.02-1.867-.254-2.193.84-5.111.064-.365-.1-2.3-1.021-2.728-.7-.861.654-2.264.766-3.125,1.42-.96.73-.682,1.3-1.86,1.7-.881.3-2.86-1.075-3.5-.586-.953.725-1.348,1.951-3.134,2.288-1.278.241-2.51-1.914-4.143-.673-.4.3-.7,1.47-1.327,1.774a24.046,24.046,0,0,1-3.328.524c-1.734,1.319-3.145,2.525-5.7,2.807-2.275.25-1.935-3.89-2.5-5.552-.228-.669.559-1.653.092-2.267-.192-.252-.487.136-.562.141-3.114.194-1.842,4.048-4.18,5.185-2.357,1.146-1.345-1.8-2.3-2.267-.692-.34-1.615,1.414-2.286,1.643-.513.174-1.5-.1-1.87.18-1.011.769,3.7,1.909,3.741,2.029.375,1.1-4.447,1.568-4.06,2.7.245.718,2.053.12,2.742.59a14.234,14.234,0,0,0,1.6.978c1.39.683,3.691.068,5.174.27.593.081,4.908,1.174,5.286,1.045,1.458-.5,4.689.131,5.9-.282,2.739-.933,4.919.127,7.641.5.919.125,5.626-3.464,4.341-1.58-4.034,5.91-4.716,2.54-11.191,3.253-8.6.947-15.98-1-24.759-2.688-.626-.12-2.51-1.708-3.138-1.809l.852-1.237-.459-3.4-.766-1.667-2.076-.442-1.174-1.31Zm64.23-78.93c-2.168.118-.819-3.009.068-3.682,1.807-1.374-2.976-4.984-.055-5.979,1.306-.445,6.479,4.725,3.258,7.175-.959.729-2,.977-3.27,2.486Zm17.494,86.181a20.822,20.822,0,0,0-2.775.289l-.441.049a91.5,91.5,0,0,1-10.145,2.744c-.812.153-1.426-.184-2.267-.092a33.049,33.049,0,0,0-7.219,1.189c-.6.2-1.727-.231-2.359-.213-4.492.134-7.052-1.231-10.382,1.3-1.083.824,3.811,1.93,4.395,2.01l.824.329c1.209-.4,2.5.092,3.7-.039a38.188,38.188,0,0,0,7.533-1.906c1.749-.6,4.429.48,6.391.11,4.134-.78,8.706-.741,12.815-1.989Z" transform="translate(-29.28 -35.529)"/><path class="d" d="M-1928.332,370.5c-.765-.123-2.371,2.021-3.126,1.9l-.6,0-.387.024c-2.625.109-5.312-1.4-8.065-1.1-1.328.146-2.648.607-4.018.758a10.618,10.618,0,0,0-1.86.131c-.75.256-1.117,1.063-1.788,1.292-.7.237-1.951.049-2.545.651l-.795.2c-1.647.685-4.346-.388-6.173.234-3.075,1.047-9.92,2.784-13.553.3-.636-.434-2.719.156-3.166-.431-.573-.753,2.5-1.5,2.829-1.611.869-.3,2.34.048,3.4-.151,2.971-.561,4.08-1.594,7.824-1.084,1.2.164,3.724-1.75,4.46-2.31.349-.266,10.28-.113,10.648-.393.558-.425,1.366-1.687,1.945-1.885,2.5-.851,9.932-1.907,10.379-5.189l1.522.757.7,1.275,1.516.241.963.385.866,4.836Zm-22.456-6.022c-.632.887-4.437,1.172-3.512-.708a36.009,36.009,0,0,1,3.261-3.087c.679-.516-.9-4.007,1.582-4.851.862-.294,2.429,2,2.491,2.565.1.943.645,3.271,1.316,3.864a1.5,1.5,0,0,1,.531.61c.54,1.585-2.891,2.928-4.052,2.135a1.7,1.7,0,0,0-1.617-.527Zm17.133-5.732c-1.314-1.267-4.013-1.169-6.356-2.322a14.939,14.939,0,0,1-6.058-5.124c-.092-.121-.888-.121-1.055-.144-.319-.043-7.865.739-8.578.982-1.337.456-.891,1.218-1.624,1.775-.118.09-4.348,1.7-4.851,1.8-1.206.228-5.828-.839-6.735-.149-3.025,2.3,1.556,2.38,3.208,3.507,1.949,1.33-2.1,2.851.871,4.878.553.378,3.574,1.781,3.18,2.582-.407.828-1.2.641-1.843,1.131-4.024,3.059-6.18-2.163-7.887-1.841-1.907.36-1.25,2.031-2.219,2.769-.616.468-1.48.073-2.193.316-1.844.628-3.777,4.012-5.878,2.578l-1.165-.466c-3.488-.293-8.391-.193-10.237-2.622-.824-1.084,4.682-3.756,1.925-5.112-2.007-.987-5.357-2.068-6.565-3.657-2.153-2.832.138-9.978,1.854-12.491.988-1.447,2.3-1.926,3.206-3.248.924-1.354,1.1-6.78,1.759-7.284,1.135-.863,2.357-2.468,3.528-3.358s3.339-.647,4.679-1.666c1.714-1.3,2.335-2.856,3.932-4.071,1.641-1.248,1.13-12.045,4.964-13.91l.254-.733c2.974-3.567,9.916-11.6,14.51-8.465.786.536,1.543-.182,2.261.308.564.385,2.657,1.259,2.83,1.767.315.923,3.142,6.8,4.256,5.953,2.419-1.84-4.165-6.7,1.327-10.874a2.56,2.56,0,0,1,2.706-.706c2.074.282,3.935.462,5.475,1.513.819.559,4.084.039,4.653.787.916,1.2,3.655,1.963,4.626,3.24.89,1.171,2.356,2.922,3.146,3.96.63.829,1.916-.195,1.783-1.289l1.073.308,1.514,1.208,1.6,1.463.34,1.548,3.216,3.062,2.994,2.7.323,3.743-.885,3.369-1.276.34-3.213,1.8-.818,1.732-1.059,7.362-.145,6.015-.433,2.887-.509,1.721-.731,2.263-2.11,2.042-.2,1.871-5.41,2.535-1.5,1.157Z" transform="translate(-9.859 -43.755)"/><path class="e" d="M-1950.788,329.88c-.632.887-4.437,1.172-3.512-.708a36.013,36.013,0,0,1,3.261-3.087c.679-.516-.9-4.007,1.582-4.851.862-.294,2.429,2,2.491,2.565.1.943.645,3.271,1.316,3.864a1.5,1.5,0,0,1,.531.61c.54,1.585-2.891,2.928-4.052,2.135a1.7,1.7,0,0,0-1.617-.527Zm338.221-87.226c-.3-.823-.951-.979-1.645-1.452-.656-.448-3.475-1.638-3.834-.6a1.73,1.73,0,0,0-.082.6,11.069,11.069,0,0,0,1.408,1.5c.35.309.435,1.017.73,1.4.548.721,1.289,1.518,1.844,2.247,1.335,1.756,2.293-.655,1.87-1.895-.143-.419-.059-1.038-.292-1.805h0Zm32.352-19.122c.344-.736-.759-.011-.645-.848.224-1.648-2.677-3.2-4.08-2.727-.825.281-.689,1.384-1.22,1.788a10.622,10.622,0,0,1-3.929-.644c-.682-.9-1.243-2.766-1.9-3.624-.332-.436.515-1.323.353-1.8-.06-.175-2.026-1.708-1.323-2.243.81-.616,2.834-.056,3.508-1.042.729-1.069,1.026-3.743,2.024-4.5.386-.293,1.388,0,1.778-.3.651-.495,1.041-1.593,1.749-2.476a10.154,10.154,0,0,1,2.287-1.643c1.124-.855,2.421,1.421,2.9,1.807,1.421,1.139,2.389,2.775,4.013,4.02,2.588,1.986,4.217,2.027,6.023,4.4.667.877-1.08,1.156-1.56,1.09-1.032-.14-5.525-2.871-5.95-2.547-.534.406-2.244,2.7-1.39,3.828.664.873,3,.2,3.925-.117.678-.231,2.241.9,2.883,1.152,1.27.508,4.57-.075,4.317,1.782a2.019,2.019,0,0,1-.949,1.391c-.7.53-.471,4.106-.333,4.84.195,1.033,1.2,2.722.659,3.13-1.216.924-5.97-1.561-6.362-2.712-.127-.373.2-.914.068-1.294-.467-1.37-.859-1.381-1.628-2.393-.1-.13-.7-.042-.853-.116-1.843-.906-2.3.506-3.565,1.469,0,0-1.6.153-.8.325Zm2.154,10.5c-1.939-.226-2.061-1.87-2.578-3.391-.479-1.406-2.7-2.5-2.448-4.35.227-1.663.324-1.584,2.088-1.779.466-.051,2.09-.845,2.369-.655C-1575.525,225.976-1574.111,231.783-1578.061,234.031Zm51.684-8.815c-3.8.334-2.964-4.688-1.886-6.879a10.2,10.2,0,0,0,.053-3.576c-.023-.2-.394-2.832-.476-2.887-.213-.145-4.683-1.18-5.044-1.23a7.719,7.719,0,0,1-1.691-.339c-1.617-2.127,1.345-3.7,2.707-4.734.564-.429-.5-2.2.029-2.6.2-.152.877.814.964.891.736.65,2.1.7,2.854,1.366a30.664,30.664,0,0,0,3.276,3.052c2.9,1.976,3.352,6.656,2,10.043-.219.548-.966.711-1.056,1.376-.131.962.51,3.626,0,4.016a6.577,6.577,0,0,0-1.725,1.5Zm42.28-73.716c-.172.456-1.1.453-1.516.771-.192.146-.18.519-.421.7-.674.513-5.1,1-5.824.51-.289-.2-1.692-.948-2.059-.823-.284.1-.37.472-.514.582-.226.172-1.428-1.112-1.967-.7-.38.289-.855.555-1.318.906-.988.752-.316,1.938-1.855,2.462-1.988.677-5.3-.531-5.359-.512-.351.12-3.115,5.626-2.833,6.454.7,2.063,4.431.116,5.538-.006.7-.078.993-.534,1.608-.65,1.27-.24,1.406,1.9,4.656.091,1.765-.983,2.343-3.848,4.078-4.439,1.581-.539,4.767.2,6.2-.893.288-.219,1.25.133,1.628,0,2.005-.683,3.217-1.3,3.565-3.857.034-.249.052-.954-.175-1.109a9.1,9.1,0,0,0-3.944-.537c-.03.011,1,.612.509,1.046Zm-43.919,25.94c-.243.175-.7.152-.911.31-.345.262-.2.641-.237.945-.036.268-.5.469-.344.93.563,1.651,2.677.27,2.839-.916.073-.532-.333-.9-1.347-1.269Zm-14.3,2.939c-2.756-.608-10.276.718-9.132,4.077.2.578.915.7,1.255,1.148.92,1.209.2,2.608,1.256,3.536,1.321,1.167,2.816-3.1,3.216-3.688a11.065,11.065,0,0,1,1.555-1.851c.359-.273,1.207-.057,1.565-.33.8-.607,1.7-1.387,2.437-1.948C-1539.338,180.7-1541.57,180.461-1542.312,180.379Zm-283.122,58.841c-1.966-.436-2.432-2.359-4.085-3.487a15.093,15.093,0,0,1-3.043-2.368c-.679-.893-.946-2-1.57-2.819-.251-.33-1.677.224-1.9.393-.628.478-2.484,8.421-2.455,8.46,1.712,2.252,5.014-1,6.046-1.348,1.269-.432,3.294,5.261,7.006,1.171Zm-43.254,9.094c-2.168.118-.819-3.009.068-3.682,1.807-1.374-2.976-4.984-.055-5.979,1.306-.445,6.479,4.725,3.258,7.175-.959.729-2,.977-3.27,2.486Zm59.765,76.969a10.152,10.152,0,0,0-8.643,2.08c-.209.159-.769.107-1.018.3-.666.506-2.378-1.058-3.077-.527-.989.752-6.933.38-8.028.753-1.726.588-2.672,1.8-4.258,2.569-1.374.668-3.663.109-4.8.975a16.427,16.427,0,0,1-2.194,1.764c-1.655.805-3.953.088-5.7.418-.635.12-1.2.631-1.943.713-1.764.194-3.577.121-5.383.461l-.441.049a91.506,91.506,0,0,1-10.145,2.745c-.812.153-1.426-.184-2.267-.092a33.049,33.049,0,0,0-7.219,1.189c-.6.2-1.727-.231-2.359-.213-4.491.134-7.052-1.232-10.383,1.3-1.083.824,3.812,1.93,4.395,2.01l.824.329c1.209-.4,2.5.092,3.7-.04a38.186,38.186,0,0,0,7.533-1.906c1.749-.6,4.429.48,6.391.11,4.343-.819,9.17-.735,13.435-2.188,1.741-.593,4.034.15,5.7-.418a67.141,67.141,0,0,0,7.543-2.773c2.038-.991,3.588-2.235,5.566-2.608,1.061-.2,3.458-.623,4.3-1.261.743-.565,4.015-.555,4.893-.854,1-.341,2.516.82,3.517.479,2.091-.712,4.59.831,6.895.4a15.725,15.725,0,0,0,2.078-.911,6.587,6.587,0,0,0,2.049-.7c.352-.268.352-1.128.736-1.42.243-.185,1.216-.31,1.076-.722-.191-.56-2.236-1.643-2.767-2.005Zm-117.21-51.313c-.422-.555-.834-5.4-.927-6.728l.512-.64c1.39-.262,1.125-9.493,2.91-8.615.3.15.391.766.524.94.257.338.957.5,1.192.814.276.363-.324,1.585-.062,2.054.876,1.572,3.111.189,4.647,3.347a7.792,7.792,0,0,1,.451,3.861c-.032.238-.155,1.933.059,1.962a.858.858,0,0,0,.576-.247c.827-.629,1.09-2.644,1.971-3.314.362-.275.247-1.816.518-2.209.737-1.08,1.593-1.822,2.49-3.135.581-.85-.685-1.78-1-2.2-.2-.262-1.511.413-1.807.514-3.608,1.229-4.749.531-5.674-2.184-.373-1.093,1.2-1.672,1.477-2.079,1-1.458-.736-3.932,1.045-5.286,2.076-1.579,4.821.747,6.536,1.433.621.248,2.055.064,2.422.547.813,1.07,2.187,2.092,2.593,3.284a21.884,21.884,0,0,0,3.558,6.564c1.08,1.421.348,3.977.883,4.68.093.122,1.509-4.114,1.724-3.891l-.141-.562c.094-.686-.55-.964-.209-1.657s2.092-4.452,1.961-4.836a7.067,7.067,0,0,0-1.245-2.015c-1.4-1.845-.223-6.158.968-7.9,2.179-3.192,3.5-2.432,7.557-2.88.395-.043,1.206.134,1.536-.117,3.889-2.957,8.191-5.228,13.594-3.361,1.33.459,2.41.279,3.1,1.181.392.515,2.126.408,2.946,1.487,1.021,1.344-4.383.019-4.458.045-.469.16-.928.525-1.473.451a30.222,30.222,0,0,0-4.52,2.1c-.612.9.834,1.851.514,1.807-.1-.013,1.265-.029,1.623-.756a1.852,1.852,0,0,1,2.078-.911,6.1,6.1,0,0,1,1.8,1.114,8.648,8.648,0,0,0,1.207.707c1.021.7.073,2.61.722,3.464.306.4,1.262.172,1.6.218s.9.053,1.052.252l.654-.02c.381.052,1.914,1.029,2.408.654,2.508-1.907,2-7,5.7-5.2l.354.591c.088.467,1.637,5.54,3.45,4.161.38-.289.151-.847.4-1.357a3.756,3.756,0,0,0,.46-1.783c-.066-1.057.164-2.3-.446-3.1-1.683-2.213-5.673-5.428-3.088-9.214.39-.572.012-1.64.411-2.224.787-1.153.327-2.828,1.361-3.615.367-.279,2.366.849,2.563,1.109.295.388-.232,1.328,0,1.628a6.513,6.513,0,0,0,.824.329c2.983.792,6.5.417,8.944,2.086.3.207.307.906.494,1.153.03.04.176.63,0,.761-.532.4-.895,1.445-1.448,1.866-1,.757-2.6.637-3.551,1.362-1.329,1.011,3.022,2.158,3.6,3.856.36,1.056-1.526,1.734-2.025,2.113-.329.25,2.032,1.416,2.171,1.6.721.949-1.933,3.049.151,4.472.444.3,1.274-.044,1.735.019.5.068.734-.367,1.061-.616.1-.076,1.01-.808.8-1.085-.333-.438-2.3-4.447-.99-4.695a23.2,23.2,0,0,0,3.75-1.227c1.4-.476,3.243-.168,4.806-.214.751-.022,1.512-1.181,2.461-.533a5.766,5.766,0,0,1,1.376,1.056c.287.377,1.416,4.753,2.264,4.108.777-.591-.565-4.157.454-4.932a9.383,9.383,0,0,0,2.17-3.179l.392-.489a13.762,13.762,0,0,1,1.921-1.747,73.125,73.125,0,0,1,8.949.458l.266.036c.984.134,1.405.988,2.132,1.485.882.6,3.51,1.412,4.053,2.126.365.48.777,1.533,1.541,1.838a4.647,4.647,0,0,1,1.214.654c.054.07.481.066.586.08a13.578,13.578,0,0,1,4.159.946,5.327,5.327,0,0,1,1.982,1.79,10.836,10.836,0,0,0,.642,1.662c.144.189-.024.6.112.775.49.644,2.395.7,3.128,1.349a5.475,5.475,0,0,1,.8.87c.034.045-.025.274.012.327.617.812,1.609,1.5,2.076,2.291l.223.356,1.546,2c.518-1.56-1.69-7.075-3.318-7.726-.607-.243-3.586-1.192-2.19-2.252.257-.2.439-.963.8-1.085,2.521-.859,5.451-.79,8.158-1.712.728-.248,1.517-1.44,2.1-1.885A9.682,9.682,0,0,1-1781.08,242c.417-.1,2.591-2.243,2.975-1.115.211.62-1.109,1.547-1.419,1.652a7.066,7.066,0,0,0-1.923,1.367c-.658.666-2.5,1.229-3.29,1.832-.715.544-.565,2.245-1.123,2.67a2.807,2.807,0,0,0-.382,2.011c.527,1.545,2.064.816,2.737-.17.459-.672.291-1.941.867-2.379,1.221-.928,6.186-4.073,5.343-6.547-.068-.2.255-.8.131-.959a8.991,8.991,0,0,1-1.294-2.456c-.311-.912,1.232-1.74.683-2.621l.179-.519c-.354-.636-2.979-3.372-2.656-3.619.125-.095.177-.516.3-.611,1.962-1.492,4.072,1.459,6.2.735,2.53-.862.743-1.712,1.749-2.476.739-.562,2.317.075,3.178-.219,1.134-.386,2.943.844,3.522,1.24.176.12.077.693.417.925.133.09.556.293.4.271-.178-.024-.486.24-.378.383.221.291,1.046.294,1.095-.068.047-.345-1.3-.2-1.463-.416-1.529-2.011-4.069-1.78-5.8-.464-.664.505-.309,2.484-.058,2.815.632.831,3.491-.309,4.157.566.645.848-2.329,2.466-1.283,3.842.2.262.6.417.78.649.251.33,2.217-1.162,2.563-1.28,1.425-.486,2.11,1.262,3.682.067a13.709,13.709,0,0,0-.374-3.634c-.287-.378-2.111-2.737-.645-3.236,1.241-.423,1.716,1.109,2.612,1.55.5.248,1.127.325,1.662.552.414.176,7.116,4.05,7.162,4.015s.968-.361.833-.538a6.687,6.687,0,0,1-.737-.969c.39-.3,1.644-.033,2.19-.136a37.77,37.77,0,0,1,12.669-.555c11.395,1.551,22.349,6.722,33.557,3.917,1.044-.261,2.279-.13,2.732-.931l.591-.354c1.606.219,7.105,3.018,8.218,2.639a12.9,12.9,0,0,1,6.734-.82c1.791.244,4.209,1.837,6.1,1.481,2.037-.384,4.163-1.824,6.5-2.264,1.083-.2,2.14-1.338,3.139-1.527,3.586-.677,9.843,2.39,12.956,1.33a81.873,81.873,0,0,0,10.159-5.24c2.021-1.536,4.415-3.537,6.894-4.381.464-.158.692-1.281,1.376-1.333l.712-.446c1.561-.759,3.163-2.5,4.5-3.514.548-.417.787-1.459,1.463-1.972.945-.719,4.289-1.675,4.777-2.39.453-.664,2.16-2.727,2.887-2.864,2.366-.446,6.278-.187,8.023-1.513,1.98-1.506,1.886-5.161,3.715-6.551,1.308-.995,3.1-.852,4.525-1.338.724-.247,1.334.765,2.1.5a15.194,15.194,0,0,0,2.349-1.309c1.041-.354,2.348-.7,3.4-1.057,1.27-.433,1.142-1.537,1.8-2.035.345-.262,1.2-.335,1.609-.65.757-.575,1.47-1.787,2.281-2.4.712-.542,1.922-.983,2.592-1.493.915-.7,1.686-2.384,2.427-3.47.877-1.285,3.424-2.412,4.331-3.1,1.265-.962,4.371,1.306,5.635.876,1.018-.347,4.084-.621,4.83-1.188a12.527,12.527,0,0,1,2.8-1.464c1.027-.35,2.2-2.173,3.619-2.656,1.645-.56,1.615,2.347,3.343,1.758.375-.128,1.616.109,1.856-.073.821-.624,3.676-1.7,4.806-.214.964,1.267-2.708,3.151-3.26,4.008l-.484.368c-.711,5.227-5.117,6.238-9.5,8.369-.532.259-3.655.581-2.936.035.771-.586,7.678-4.983,7.174-5.646-.323-.424-.843.287-1.366.465a14.367,14.367,0,0,1-3.449.616c-1.405.155-6.042-1.9-6.643-1.447a8.46,8.46,0,0,0-2.117,1.992c-.777,1.139-.256,2.2-1.516,3.159-1.129.858-2.772.029-3.968.437-1.339.456-1.729,2.959-2.513,4.109-.333.488-1.309.612-1.759.955-1.044.794-1.631,2.208-2.625,3.334-1.8,2.034-3.764.855-4.54,1.445a11.28,11.28,0,0,0-1.719,2.263c-1.409,2.065-5.614.706-4.805,4.991.043.228-.278.892-.145,1.066.145.191.151.827.3,1.017,1.043,1.372,9.323-2.531,6.154,3.443l-.286.5c-.678,4.983-9.525-.02-10.039.37-.806.613-5.06,1.28-5.261,2.758a10.035,10.035,0,0,0,.18,4.259c.5,1.463,4.8,2.391,3.795,5.619-.1.31-.292,1.464-.552,1.662-.52.4-1.447-2.028-1.735-2.408-.25-.329-.973-.525-1.192-.814a26.554,26.554,0,0,1-2.128-4.307,15.974,15.974,0,0,0-.834-1.851c-.643.489-.821,5.306-1.559,5.868-.972.74-1.721,2.455-2.838,3.3-.918.7-2.6-1.312-3.237-1.743-.278-.19-.127-1.046-.267-1.231-.07-.093-.72-.025-.76,0-.615.467-2.75,3.326-2.96,3.4a48.128,48.128,0,0,0-5.828,2.138c-.71.539.446,2.719-.222,3.227a11.851,11.851,0,0,0-2.417,2.6c-1.43,2.095-2.971,4.265-5.76,5.621-1.8.874-10.777.932-11.128,1.2a9.811,9.811,0,0,0-2.276,3.164,5.41,5.41,0,0,0-.585,3.5c.757,2.222,3.659-.823,5.349-1.009,1.391-.153,1.59,1.2,2.37,1.734,1.193.815,3.5.4,4.709,1.293l.775-.112c2.838,1.4,1.247-2.979,3.3-2.7a4.191,4.191,0,0,1,1.279.174c.615.42,1.614.363,2.045.93a24.664,24.664,0,0,0,5.985,5.483c.912.622,2.876.049,3.789.082.932.033,2.752.106,3.421-.4,1.191-.906,2.695-1.858,3.967-2.825.589-.448.769-1.838,1.477-2.079,1.363-.464,3,2.4,4.739,1.079.809-.615.99-3.348.353-4.186-.6-.785-3.394-1.514-2.559-2.737,1.126-1.649,2.332-3.867,4.49-4.274,1.2-.226,3.727.415,4.714-.335a15.746,15.746,0,0,0,2.46-2.922c.252-.369.159-1.168.523-1.449,1.372-1.043,4.171-2.007,4.937-3.562.532-1.083.576-2.637,1.254-3.629,1.569-2.3,3.745-3.092,6.889-2.754l.533.073c.76.1,3.866,1.074,4.356.7s1.545-.888,2.015-1.246c1.233-.937,5.262,1.013,5.839,1.772.5.656,2.914.938,3.639.387.456-.347.477-1.126.886-1.725.342-.5,1.432.12,1.928-.606.332-.486.395-2.5.939-2.912s1.458.707,3.115-.553c.4-.307.31-2.28.377-2.771.056-.416,1.1-1.194.765-1.633-.412-.542-1.441-3.3-.543-3.982.171-.13,6.21,2.609,6.968,2.251l.4.271c-.434,3.19,5.065,1.292,5.9,3.734.407,1.2-2.4.553-2.136,1.338.443,1.3,1.373,2.391,1.944,4.065.228.67.355,2.63.994,3.067.187.128.442-.477.513-.582.7-1.028.369-2.247.968-3.125a6.611,6.611,0,0,0,1.38-5.349c-.081-.426-.912-1.983-.32-2.432l3.633-2.762c.159-.121.547.509.688.528.942.128,5.828,2.645,5.669,3.812-.081.591.29,2.55-.179,2.907-.377.286-2.048,1.329-1.385,2.2.582.765,2.291.807,3.174,1.409.445.3-.291.938-.1,1.507a6.386,6.386,0,0,0,2.011,2.771c.517.254,2.636,3.442,3.169,3.037.972-.739,4.255-1.4,6.027-2s.794-3.531,4.336-2.341l.732.208c2.164.295-.318,2.472.587,3.663.329.433,2.868.716,3.261.77.117.016.872-6.109,1.312-6.444,1.089-.828,3.265.1,4.573-.9l3.754-2.855c.555-.422.638-1.446,1.036-2.03.547-.8,2.159-1.355,2.863-1.89,1.1-.837,2.956,1.288,3.944.537a11,11,0,0,0,2.848-4.172c.865-1.76-1.508-2.79,2.635-4.2a5.136,5.136,0,0,1,2.5.014c4.443.6.909,4.523,3.587,6.351.222.152.571.466.93.344.77-.262,3.6-.145,3.721-1.013.348-2.558-.115-2.9-2.947-3.875-.443-.153-2.986-.787-2.2-1.385.642-.488,2.124-.5,2.945-.9.5-.241.935-1.189,1.284-1.454.311-.237,2.113.4,2.544.455,1.087.148,4.035,1.41,4.594,2.145.5.653,5.421.468,6.386,1.738.185.244.081.834.174,1.109a1.471,1.471,0,0,1-.068,1.294c-.742,1.087-3.537,4.864-4.393,5.156-.317.108-.747-.1-1.08-.038a27.585,27.585,0,0,0-5.131,1.8c-.57.433-5.506-.878-6.5-.125-1.381,1.05-3.478,1.134-5.116,1.692-.955.325-1.456,1.394-2.1,1.885a20.942,20.942,0,0,1-3.837,1.866c-.977.475-2.027,1.45-3.091,1.968a42.647,42.647,0,0,1-4.84,2.055c-1.155.393-2.472.337-3.585.815-.9.384-1.433,1.171-2.471,1.4l-.623.187-2.267,1.1c-.576.28-1.454.209-2.02.485a17.376,17.376,0,0,1-4.167,1.5c-2,.377-4.268.43-6.148.9-1.045.262-2.114.572-3.144.766a5.788,5.788,0,0,0-.986.463c-1.647.707-3.353,1.3-4.893,2.048-1.048.51-2.272.332-3.326.9l-.289.124a43.506,43.506,0,0,1-4.563,2.419,11.156,11.156,0,0,0-2.64,1.052c-.448.341-8.773,2.758-10.232,3.384-.834.358-3.029-5.82-3.974-5.1-.7.53-.632,3.517-.367,4.293.213.624,1.048.749,1.362,1.162.092.121-.158.6-.193.625-.71.54-1.6,1.4-2.209,1.871-1.416,1.077-3.436.7-4.917,1.828-.568.432-1.364,1.583-2.209,1.871a58.022,58.022,0,0,0-6.511,2.371c-2.642,1.285-5.438,3.617-8.463,3.951-3.8.419.873-3.394.905-3.46.419-.851-.57-2.258-.931-2.732-.283-.372-.035-2.936-.461-2.994s-1.413,2.89-1.971,3.314c-.256.195-2.614,2.595-2.446,2.816.91,1.2.474.323,1.589,1.085.26.178.227.8.281,1.124l.519.179c-1.676,1.274-4.269,1.43-5.78,2.579a15,15,0,0,1-4.016,2.385,21.318,21.318,0,0,1-5.242,1.023,10.851,10.851,0,0,0-2.161-.077,11.239,11.239,0,0,1-1.759.955c-.409.175-2.851,1.029-3.086.34-.226-.664,1.187-2.339,1.288-3.082.024-.176.035-2.033-.543-1.594-1.814,1.38.119,3.153-.295,3.76-.264.387-.482,1.609-.794,1.846-1.634,1.243-3.388,1.459-5.281,2.1-.557.19-7.53,1.408-7.752,1.116-.065-.086.085-.628.1-.746.013-.1.013-.584.087-.64.313-.238,1.194-.048,1.565-.33,2.281-1.734,7.511-1.276,9.466-4.14.7-1.022-.616-1.706-1.245-2.015-.473-.233-.631-.917-1.042-1.119-1.572-.773-3.057-1.352-4.7-2.16-.734-.361-3.295.945-3.832.238-.584-.768-2.823-.717-3.532-.372-1.082.526.024,8,.1,8.047a12.893,12.893,0,0,1,3.368,3.173c.773,1.017-2.4,2.592-2.78,2.879-4.828,3.671-11.124,3.433-15.759,7.3l-.9.2c-1.169.569-2.568,1.891-3.788,2.307-2.527.861-5.462-.274-8.12.632-1.852.631-6.364-.321-7.694.69-1.475,1.121-5.229-.229-6.87,1.019-4.219,3.208-10.148,2.556-13.749,5.294-2.7,2.054-8.708-.642-11.25,1.291-4.987,3.792-15.876,4.236-19.156,6.729-.972.739-3.636-.293-4.622.456-4.688,3.565-11.533,3.421-17,5.285-7.864,2.679-12.423,8.095-19.678,10.566-4.168,1.42-27.651,3.441-29.059,4.512-2.86,2.174-8.329.6-11.976,1.844-3.546,1.208-6.552,1.927-10.2,3.171-3.2,1.09-18.14-.137-18.973-2.583-.234-.687,8.154-.627,9.612-.428.291.04,14.22-.982,14.932-1.224,3.819-1.3,7.791-1.733,12.024-3.791,1.954-.951,5.042.722,6.938.076,3.075-1.047,6.286-1.227,9.205-2.221,1.555-.53,3.682.575,5.2.057,1.708-.582,5.549-.206,6.9-1.232,2.952-2.245,6.994-1.687,9.864-3.868,1.16-.882,1.832-1.966,2.751-2.665,1.3-.986,2.695-.833,3.885-1.425l1.182-.708c1.637-.309,2.742-1.544,4.186-2.036,2.242-.764,5.823.419,8.013-.646a53.146,53.146,0,0,1,6.492-3.025c.824-.281,1.83-.014,2.645-.291.99-.337,1.67-1.077,2.791-1.357a10.571,10.571,0,0,1,1.628,0c1.546-.17,2.861-1.207,4.312-1.367a28.252,28.252,0,0,0,5.683-1.072,17.021,17.021,0,0,0,3.929-1.745c1.152-.876,2.394-2.188,3.953-2.719.668-.228,2.443.149,2.965-.248s1.507-.094,2.021-.485c2.733-2.078,11.26-1.522,14.626-3.763l.683-.233c.619-.117,10.581-1.163,10.581-1.165a23.483,23.483,0,0,1,4.219-1.488c.939-.1,2.208.366,3.028.086.913-.311,1.229-.927,2.122-1.231,1.108-.377,4.563.831,5.523.1.731-.556,2.151-1.062,2.819-1.57.521-.4.558-1.284,1.1-1.7,1.518-1.155,7.015-4.473,9.573-4.125,1.983.27,4.553-1.359,5.736-2.259.8-.608,2.751-.181,3.585-.815.619-.47.072-1.322.14-1.827.051-.372.965-1.245.751-1.526-.28-.368-1.125-.42-1.541-.644a3.627,3.627,0,0,1-.872-.77c-.012,0-.038.4-.058.426a1.122,1.122,0,0,1-.7.339c-.46.051-3.233.272-3.469-.038-.551-.725,1.195-3.317-.012-3.91-2.065-1.016-2.125,1.747-2.887,2.864-.655.959-1.165,2.532-2.126,2.859-1.194.407-2.833-.9-3.9-.1-.691.525-.5,2.264-1.075,3.111-1.17,1.715-2.4,3.6-3.541,5.272-.318.466.049,1.234-.019,1.734-.188,1.382-7.465,3-8.386,1.79-.608-.8,2.556-6.784,0-5.538-.892.434-1.837.735-2.025,2.113-.385,2.829,4.247,2.6,1.173,4.937-.271.206-.8-.127-1.187-.053a4.841,4.841,0,0,1-4.971-1.762c-.3-.391-2.194.274-2.515-.668-.438-1.288.8-2.845-.1-4.031-.246-.324-2.184,2.879-2.5,3.242-.643.728-2.406-.655-3.135-.1-.755.574-1.546.794-2.364,1.415-.14.107-1.031-.249-1.264-.281-5.522-.752-3.463-5.682-5.8-5.241-1.12.211-1.8,2.612-2.732,3.319a11.416,11.416,0,0,1-2.292.882c-.166.126.215.34.034.547l.14.562c.175.928.563.74,1.105,1.453,1.366,1.8-4.4,2.96-4.786,3.257-.866.658-3.965-1.954-4.574-1.491-.441.335-4.658,2.671-5.62,1.406-1.306-1.717-1.333-2.657-3.16-3.9a1.7,1.7,0,0,0-1.308.039c-3.622,1.234,4.177,6.38,1.7,8.265-2.435,1.852-5.338,2.53-7.518,4.188-1.054.8-3.272-.187-4.438.7-.2.153-.864-.3-1.066-.145-3.686,2.8-5.346-7.784-7.4-6.219-2.444,1.858-5.334,1.571-7.858,3.49-1.162.883-1.544,3.169-3.11,3.7-1.966.67-6.043-2.921-6.842-3.971-.814-1.071-13.564,1.14-14.351,1.738-.844.642-1.056,2.332-1.927,2.995-1.527,1.161-9.693-.657-13.072,1.912-1.346,1.023-5.232-2.357-5.495-2.7-.952-1.251-4.93-.2-5.882-1.452-.414-.544-1.9-2.566-2.3-2.267-2.916,2.217.931,3.329,1.493,4.98.528,1.551-.844,7.522-1.771,8.227-.255.194-3.8-1.694-4.516-1.918-2.612-.809-7.428-2.228-8.974-4.262-.678-.892-3.969,1.315-4.99-.028-.163-.214-.07-3.96-.6-3.556-1.7,1.3-3.465,3.739-5.687,5.089l-.862.751c-.762.579-1.287,1.265-2.1,1.885-.777.591-1.745.562-2.427,1.081-.324.246-.536.742-.877.858-1.153.393-2.465.077-3.648.48-2.047.7-4.312-2.455-6.154-1.055-.875.665-2.183.609-3.231,1.406-1.146.872-2.42,2.305-3.769,2.961-2.555,1.243-6.205,1.2-8.75,2.066-3.246,1.106-6.1,2.55-9.694,1.829l-.533-.072c-1.374.259-5.141-2.015-6.609-.9-.121.092-2.915,1.947-3.062,1.755-.177-.233-.169-.977-.373-1.245-.444-.584-6.492.636-6.72.714-.311.106-1.232-.4-1.492-.2-2.029,1.543.3,2.491-1.167,2.99-.881.3-2.729-1.579-2.995-1.928-.14-.185-.593.028-.654.02-1.867-.254-2.193.84-5.111.064-.365-.1-2.3-1.021-2.728-.7-.861.654-2.264.766-3.125,1.42-.96.73-.682,1.3-1.86,1.7-.881.3-2.86-1.075-3.5-.585-.953.725-1.348,1.95-3.134,2.288-1.278.241-2.51-1.914-4.143-.673-.4.3-.7,1.47-1.327,1.774a24.055,24.055,0,0,1-3.328.524c-1.734,1.319-3.145,2.525-5.7,2.806-2.275.25-1.935-3.89-2.5-5.552-.228-.669.559-1.653.092-2.267-.192-.252-.487.136-.562.141-3.114.194-1.842,4.048-4.18,5.185-2.356,1.146-1.345-1.8-2.3-2.267-.692-.34-1.615,1.414-2.286,1.643-.512.175-1.5-.1-1.87.18-1.011.769,3.7,1.909,3.741,2.029.375,1.1-4.447,1.568-4.06,2.7.244.718,2.053.12,2.742.591a14.239,14.239,0,0,0,1.6.978c1.39.683,3.691.068,5.174.27.593.081,4.908,1.174,5.286,1.045,1.458-.5,4.689.131,5.9-.282,2.739-.933,4.919.127,7.641.5.919.125,5.626-3.464,4.341-1.58-4.034,5.91-4.716,2.54-11.191,3.253-8.6.947-15.98-1-24.759-2.688-.626-.121-2.51-1.708-3.138-1.809-.765-.123-2.371,2.021-3.126,1.9l-.6,0-.387.024c-2.625.11-5.311-1.4-8.065-1.1-1.328.146-2.648.607-4.018.758a10.611,10.611,0,0,0-1.86.131c-.75.256-1.117,1.063-1.788,1.292-.7.237-1.951.049-2.545.651l-.795.2c-1.647.685-4.346-.388-6.173.234-3.075,1.047-9.92,2.784-13.553.3-.636-.434-2.719.156-3.166-.431-.573-.753,2.5-1.5,2.829-1.611.869-.3,2.34.048,3.4-.151,2.971-.561,4.08-1.594,7.824-1.084,1.2.164,3.724-1.75,4.46-2.31.349-.266,10.28-.113,10.648-.393.558-.425,1.366-1.687,1.946-1.885,2.5-.851,9.932-1.907,10.379-5.189.647-4.751-3.615-3.708-7.093-5.418a14.937,14.937,0,0,1-6.058-5.124c-.092-.121-.888-.121-1.055-.144-.319-.043-7.865.739-8.578.982-1.337.455-.891,1.218-1.624,1.775-.118.09-4.348,1.7-4.851,1.8-1.206.228-5.828-.839-6.735-.149-3.025,2.3,1.556,2.38,3.208,3.507,1.949,1.33-2.1,2.851.871,4.878.553.378,3.574,1.781,3.18,2.582-.407.828-1.2.641-1.843,1.131-4.024,3.059-6.18-2.163-7.887-1.841-1.907.36-1.25,2.031-2.219,2.769-.616.468-1.48.073-2.193.316-1.844.628-3.777,4.012-5.878,2.578l-1.165-.466c-3.488-.293-8.391-.193-10.237-2.622-.824-1.084,4.682-3.756,1.925-5.112-2.007-.987-5.357-2.068-6.565-3.657-2.153-2.832.138-9.978,1.854-12.491.988-1.447,2.3-1.926,3.206-3.248.924-1.354,1.1-6.78,1.759-7.284,1.135-.863,2.357-2.468,3.528-3.358s3.339-.647,4.679-1.666c1.714-1.3,2.335-2.856,3.932-4.071,1.641-1.248,1.13-12.045,4.964-13.91l.254-.733c2.974-3.567,9.916-11.6,14.51-8.465.786.536,1.543-.183,2.261.308.564.385,2.657,1.259,2.83,1.767.315.923,3.142,6.8,4.256,5.953,2.419-1.839-4.165-6.7,1.327-10.874a2.56,2.56,0,0,1,2.706-.706c2.074.282,3.935.462,5.475,1.513.819.559,4.084.039,4.653.787.916,1.2,3.655,1.963,4.626,3.24.89,1.171,2.356,2.922,3.146,3.96.723.952,2.312-.539,1.623-1.775Z" transform="translate(-9.859 -9.16)"/><path class="e" d="M-1879.664,364.723l.258-2.244m35.426-.714-.262,2.515m-10.271-51.12-37.921,3.414m-1.4,44.646-.276,2.135m18.4-75.555,1.555.537,20.121,22.064.015,7.059,12.5,1.485.524,24.065-.872,1.618-.935,1.284.053,1.2.175,1.109m-23.729-80.1,1.993,6.894,3.944,2.926.262,2.858-5.935-.265-4.927,2.695.015-2.5-2.786-.271m123.989,16.717-1.218.974-24.181.182-.708,4.409-15.194.754m-37.141,13.237,36.282-7.329m243.154-47.563,6.92,15.762-1.366.465,3.927,8.227m-117.9,36.833.293,3.382m8.726-45.088s-7.8,22.172-8.462,29.464m36.8-54.977,8.359,16.415m-17.526,7.8c-.421.143-1.587-.131-1.734-.019-.451.343-1.776-.178-2.069.044a2.624,2.624,0,0,1-.576.247c-.334.114-.839-.273-1.172-.16a10.261,10.261,0,0,0-2.456,1.294c-.11.083-.51-.131-.64-.087a10.373,10.373,0,0,1-1.216.16c-.9.17-1.342-.45-1.846-.794-.059-.04-.17.028-.213-.029-.06-.081,0-.253-.062-.334-.08-.1-1.618-.681-1.89-.474s-.624.283-.94.523c-.081.061-.345-.119-.426-.058-.774.589-2.135.471-3.449.616-.293.032-1.739.226-1.948-.048a5.454,5.454,0,0,0-2.607-.789,8.6,8.6,0,0,0-2.442,1.188c-.041.031-.294.032-.334.063a4.1,4.1,0,0,0-.891.964c0,.007-.73.3-.8.325-.256.087-.663.785-.877.858-.661.225-1.077.621-1.744.848-.38.129-3.694-.419-3.973-.324-.384.131-.8-.023-1.2.053a3.134,3.134,0,0,0-1.288.693c-.094.071-.344.016-.441.049a5.284,5.284,0,0,0-.5.475c-.057.043-.156-.072-.213-.029-.168.128-.469.452-.62.567-.225.171-.246,1.383-.446,1.676a4.135,4.135,0,0,1-.906,1.071c-.528.4-1.678.225-2.141.577-.086.065-.647-.034-.761,0-.075.026-.059.173-.135.2-.389.133-.745.051-1.109.175-.175.06-.2.372-.271.4a3.721,3.721,0,0,1-3.164.112,2.311,2.311,0,0,0-1.294-.067l-.669.126-1.458.344-1.308-23.086-2.782-4.287m-76.116,89.04.567,4.35m5.3-87.611c-.065-.086.09.074.1.091s.023.119.055.161l.2.257c.015.02-.025.055-.012.075s.059-.01.075.011,0,.121.018.156c.082.107.127.211.223.337.065.083-.015.325.019.425.012.027.1-.032.07.048a.773.773,0,0,0,.1.36c.047.061-.012.17.012.231.055.167,0-.04.07.048.023.03-.012.164.012.194.168.221.192.556.649.587l.146.058,3.178,25.152a4.1,4.1,0,0,1,.966,3.049,1.435,1.435,0,0,1-.062.452c-.141.207-.223.267-.373.487s-.155.591-.329.723c-.1.074-.686,2.876-.753,3.275l.346.277,17.887-.559.176,7.164-1.319,17.017.549,1.61m-55.854,26.938-.334,3.606m1.121-12.1-.583,6.291m-.053-89.821-.445,1.014-.353.336c-.3.357-1.771,2.291-1.12,3.149.55.723.75,3.258,1.159,4.457.351,1.029,2.6,3.741,1.594,5.207a26.6,26.6,0,0,0-1.517,3.248c-.183.372-.808,7.528-.8,7.568l-.4.713c-.4,3.483-.629,6.878-1.094,10.292-.611,4.487-.962,9.325-1.628,14.211-.058.427.363,2.022-.012,2.3-2.748,2.09-4.277,5.477-4.8,9.326-.377,2.774-1.54,9.828-1.189,12.121" transform="translate(-33.901 -33.441)"/><path class="f" d="M-1945.36,346.949l-.117-1.4-.089-.473c-1.181-1.436-.317-3.238-.635-4.923a10.6,10.6,0,0,0-.576-2.535c-.085-.113.131-.461.082-.6a10.7,10.7,0,0,1-.1-1.548,3.927,3.927,0,0,0-2.19-2.524l-.647-.318c-.58.116-1.4-.456-1.96-.267-6.138,2.091-5.392-1.76-8.038-5.24-.727-.957-1.7-1.877-2.515-2.953-.964-1.267-.574-3.6-1.495-4.81-1.259-1.656-3.786-4.968-6.038-5.275m48.139,51.847.565-.768.2-.356c-.4-1.013-.339-4.089-.947-4.889-.5-.659-2.075-.418-2.481-.952a4.484,4.484,0,0,0-1.956-1.418m7.193-52.836,1.737.774.456.6c1.635.743,1.4,2.1,2.313,3.309,1.023,1.345,5.5,4.646,5.836,5.631a18.5,18.5,0,0,1,.285,2.419,2.945,2.945,0,0,1-.147,2.206c-.31.454-.028,1.71-.428,2.014-.151.115-.708.1-.945.178-.374.127-.764.783-1.144,1.073-.622.473-2,.644-2.778,1.234-.883.672-1.487,7.537-1.612,8.456v1.151c-.386,4.583-.117,11.306-3.759,14.074-.465.354-.252,1.949-.78,2.35-2.406,1.829-4.991,1.764-6.817,3.832m82.174,10.58.077,3.729m-5.191-87.3,3.544,8.2,1.348,64.726" transform="translate(-16.513 -39.217)"/></g></svg>