<svg id="layer1" xmlns="http://www.w3.org/2000/svg" width="775.63" height="342.9" viewBox="0 0 775.63 342.9">
  <rect id="rect3835" width="775.63" height="342.9" fill="#fff"/>
  <path id="path2852-4" d="M-1936.5,383.521c-.82,1.152-5.762,1.523-4.561-.92a46.781,46.781,0,0,1,4.235-4.01c.882-.67-1.166-5.2,2.054-6.3,1.119-.381,3.155,2.6,3.235,3.332.135,1.225.838,4.249,1.71,5.019a1.951,1.951,0,0,1,.69.792c.7,2.059-3.755,3.8-5.264,2.773a2.213,2.213,0,0,0-2.1-.685Zm439.3-113.295c-.385-1.07-1.235-1.271-2.136-1.886-.852-.582-4.513-2.128-4.98-.778a2.242,2.242,0,0,0-.106.783,14.381,14.381,0,0,0,1.829,1.944c.454.4.565,1.321.948,1.824.712.937,1.675,1.972,2.395,2.919,1.734,2.281,2.978-.85,2.429-2.461-.185-.544-.077-1.348-.379-2.345h0Zm42.021-24.837c.448-.956-.985-.014-.837-1.1.291-2.141-3.477-4.163-5.3-3.542-1.072.365-.9,1.8-1.585,2.322-.328.249-4.793-.427-5.1-.836-.886-1.166-1.615-3.593-2.462-4.707-.43-.566.669-1.719.458-2.335-.078-.228-2.632-2.219-1.719-2.913,1.052-.8,3.681-.073,4.556-1.354.947-1.388,1.333-4.861,2.629-5.847.5-.381,1.8-.006,2.309-.391.845-.642,1.351-2.069,2.271-3.216.85-1.061,2.176-1.53,2.97-2.134,1.46-1.11,3.144,1.845,3.77,2.346,1.846,1.479,3.1,3.6,5.212,5.222,3.362,2.579,5.477,2.633,7.823,5.719.866,1.139-1.4,1.5-2.026,1.416-1.34-.182-7.176-3.729-7.729-3.308-.693.527-2.915,3.512-1.805,4.972.863,1.134,3.893.258,5.1-.152.881-.3,2.911,1.164,3.745,1.5,1.649.659,5.936-.1,5.608,2.315a2.622,2.622,0,0,1-1.233,1.806c-.905.688-.612,5.333-.433,6.287.253,1.342,1.554,3.535.857,4.065-1.579,1.2-7.754-2.027-8.263-3.522-.165-.484.256-1.187.088-1.68-.606-1.779-1.116-1.794-2.115-3.108-.128-.169-.913-.055-1.108-.151-2.394-1.177-2.985.657-4.631,1.908,0,0-2.077.2-1.045.422Zm2.8,13.636c-2.518-.294-2.676-2.429-3.349-4.4-.622-1.826-3.506-3.253-3.179-5.65.294-2.159.421-2.058,2.712-2.31.605-.067,2.715-1.1,3.077-.85C-1449.086,248.564-1447.249,256.107-1452.38,259.026Zm67.131-11.449c-4.939.434-3.85-6.089-2.45-8.935.431-.876.183-3.6.069-4.644-.03-.262-.512-3.678-.618-3.75-.276-.188-6.083-1.533-6.551-1.6a10.026,10.026,0,0,1-2.2-.44c-2.1-2.763,1.748-4.8,3.516-6.149.733-.557-.654-2.854.038-3.379.26-.2,1.139,1.057,1.252,1.158.956.844,2.724.906,3.707,1.774a39.823,39.823,0,0,0,4.255,3.964c3.761,2.567,4.354,8.645,2.6,13.045-.285.712-1.254.923-1.371,1.788-.17,1.25.662,4.709,0,5.217a8.538,8.538,0,0,0-2.24,1.951Zm54.917-95.747c-.223.593-1.427.589-1.969,1-.25.19-.234.674-.547.913-.876.666-6.627,1.3-7.564.662-.375-.256-2.2-1.232-2.675-1.069-.369.126-.48.613-.667.755-.294.224-1.855-1.444-2.555-.912-.494.376-1.111.721-1.712,1.177-1.284.976-.41,2.517-2.409,3.2-2.581.879-6.889-.69-6.96-.665-.456.155-4.046,7.308-3.68,8.383.913,2.679,5.755.151,7.193-.008.915-.1,1.29-.693,2.089-.844,1.65-.311,1.826,2.47,6.048.118,2.292-1.277,3.043-5,5.3-5.766,2.053-.7,6.191.257,8.055-1.16.375-.285,1.624.173,2.115.006,2.6-.887,4.179-1.69,4.63-5.01.044-.324.067-1.24-.227-1.441a11.823,11.823,0,0,0-5.123-.7c-.039.014,1.3.8.661,1.359Zm-57.045,33.692c-.316.228-.912.2-1.183.4-.448.34-.254.833-.308,1.227-.047.349-.651.609-.446,1.208.73,2.145,3.478.351,3.687-1.19.094-.691-.433-1.164-1.75-1.648h0Zm-18.57,3.818c-3.579-.79-13.347.933-11.861,5.295.256.751,1.189.911,1.63,1.491,1.194,1.571.265,3.387,1.631,4.593,1.716,1.515,3.658-4.029,4.178-4.79a14.365,14.365,0,0,1,2.019-2.4c.466-.354,1.567-.074,2.032-.428,1.038-.789,2.206-1.8,3.165-2.53,1.069-.813-1.83-1.12-2.794-1.227Zm-367.737,76.427c-2.553-.566-3.159-3.064-5.306-4.53a19.608,19.608,0,0,1-3.953-3.076c-.882-1.159-1.229-2.6-2.04-3.662-.326-.429-2.178.291-2.467.51-.816.621-3.226,10.938-3.188,10.988,2.224,2.925,6.513-1.295,7.853-1.751,1.648-.561,4.279,6.833,9.1,1.521Zm-56.181,11.812c-2.816.153-1.064-3.908.088-4.783,2.347-1.785-3.865-6.473-.071-7.766,1.7-.578,8.416,6.137,4.231,9.319-1.246.947-2.6,1.269-4.247,3.229Zm77.627,99.972a13.187,13.187,0,0,0-11.226,2.7c-.271.206-1,.138-1.321.384-.865.658-3.089-1.374-4-.685-1.285.977-9.005.493-10.427.978-2.242.764-3.47,2.334-5.531,3.336-1.784.868-4.757.142-6.236,1.266a21.328,21.328,0,0,1-2.85,2.291c-2.15,1.046-5.135.114-7.407.543-.824.156-1.556.819-2.523.926-2.292.252-4.646.157-6.991.6l-.573.063a118.846,118.846,0,0,1-13.177,3.565c-1.054.2-1.853-.24-2.945-.119-3.531.389-6.426.539-9.376,1.544-.777.265-2.243-.3-3.065-.276-5.834.174-9.16-1.6-13.485,1.689-1.407,1.07,4.95,2.507,5.708,2.61l1.07.428c1.57-.521,3.246.12,4.8-.051a49.6,49.6,0,0,0,9.785-2.475c2.271-.774,5.753.623,8.3.143,5.641-1.064,11.911-.955,17.45-2.842,2.261-.77,5.239.2,7.406-.543a87.2,87.2,0,0,0,9.8-3.6c2.647-1.288,4.66-2.9,7.23-3.387,1.378-.26,4.492-.809,5.581-1.637.965-.734,5.215-.72,6.356-1.109,1.3-.443,3.267,1.065,4.569.622,2.716-.925,5.962,1.079,8.955.514a20.438,20.438,0,0,0,2.7-1.184,8.557,8.557,0,0,0,2.662-.907c.457-.348.458-1.465.956-1.844.316-.24,1.579-.4,1.4-.938-.248-.727-2.9-2.134-3.594-2.6Zm-152.24-66.648c-.548-.721-1.083-7.011-1.2-8.739l.665-.831c1.806-.341,1.462-12.33,3.78-11.19.4.195.508.994.68,1.221.334.439,1.242.654,1.548,1.057.358.471-.421,2.059-.081,2.668,1.138,2.042,4.041.245,6.036,4.347a10.123,10.123,0,0,1,.586,5.015c-.042.308-.2,2.511.077,2.549a1.114,1.114,0,0,0,.749-.321c1.074-.817,1.415-3.434,2.56-4.3.47-.357.321-2.359.673-2.87.958-1.4,2.069-2.367,3.234-4.072.754-1.1-.889-2.312-1.3-2.857-.259-.341-1.963.537-2.347.668-4.687,1.6-6.168.69-7.37-2.837-.484-1.42,1.558-2.171,1.919-2.7,1.293-1.894-.956-5.107,1.358-6.866,2.7-2.051,6.262.971,8.49,1.861.807.323,2.67.084,3.147.71,1.057,1.39,2.84,2.718,3.368,4.266a28.421,28.421,0,0,0,4.621,8.526c1.4,1.845.452,5.166,1.147,6.079.12.159,1.96-5.343,2.239-5.054l-.183-.73c.122-.892-.713-1.253-.271-2.152s2.717-5.783,2.547-6.281a9.185,9.185,0,0,0-1.618-2.618c-1.822-2.4-.29-8,1.257-10.264,2.83-4.146,4.54-3.159,9.816-3.74.513-.056,1.566.175,1.995-.151,5.051-3.841,10.639-6.79,17.657-4.365,1.727.6,3.13.362,4.021,1.535.509.669,2.762.53,3.827,1.931,1.327,1.745-5.693.025-5.79.058-.61.208-1.205.682-1.913.586-.157-.021-5.573,2.29-5.871,2.726-.795,1.164,1.084,2.4.668,2.347-.125-.017,1.643-.038,2.108-.982a2.4,2.4,0,0,1,2.7-1.184,7.929,7.929,0,0,1,2.342,1.447,11.231,11.231,0,0,0,1.567.918c1.327.905.095,3.391.938,4.5.4.523,1.639.223,2.077.283s1.165.068,1.366.327l.849-.025c.495.067,2.486,1.337,3.128.849,3.258-2.477,2.6-9.1,7.405-6.748l.46.768c.114.607,2.126,7.2,4.482,5.4.494-.375.2-1.1.522-1.762a4.883,4.883,0,0,0,.6-2.316c-.086-1.373.213-2.985-.58-4.027-2.186-2.875-7.368-7.05-4.011-11.968.507-.743.016-2.13.534-2.889,1.022-1.5.424-3.673,1.767-4.695.477-.363,3.073,1.1,3.329,1.44.383.5-.3,1.725,0,2.114a8.472,8.472,0,0,0,1.07.428c3.874,1.029,8.442.542,11.618,2.71.4.27.4,1.177.642,1.5.039.052.229.819,0,.988-.692.526-1.162,1.876-1.881,2.423-1.293.983-3.373.827-4.613,1.769-1.726,1.313,3.926,2.8,4.677,5.008.467,1.372-1.982,2.252-2.63,2.744-.427.325,2.64,1.839,2.82,2.076.936,1.232-2.511,3.96.2,5.808.576.393,1.655-.057,2.253.025.652.089.953-.476,1.378-.8.13-.1,1.312-1.05,1.038-1.41-.432-.568-2.991-5.776-1.285-6.1a30.135,30.135,0,0,0,4.87-1.593c1.814-.618,4.213-.218,6.243-.278.975-.029,1.964-1.534,3.2-.693a7.494,7.494,0,0,1,1.787,1.371c.373.49,1.839,6.173,2.94,5.336,1.009-.767-.735-5.4.59-6.406a12.19,12.19,0,0,0,2.818-4.129l.51-.636a17.871,17.871,0,0,1,2.495-2.269c.344-.262,10.288.332,11.623.6l.346.047c1.278.174,1.825,1.284,2.769,1.928,1.145.782,4.56,1.834,5.265,2.761.474.623,1.009,1.991,2,2.388a6.031,6.031,0,0,1,1.577.849c.07.091.625.085.761.1a17.639,17.639,0,0,1,5.4,1.229,6.92,6.92,0,0,1,2.574,2.325,14.071,14.071,0,0,0,.834,2.158c.187.246-.031.775.146,1.007.636.837,3.11.911,4.062,1.752a7.1,7.1,0,0,1,1.045,1.129c.044.058-.033.356.016.425.8,1.055,2.09,1.951,2.7,2.976l.29.462,2.008,2.6c.673-2.027-2.2-9.19-4.31-10.035-.788-.315-4.657-1.548-2.845-2.926.333-.253.571-1.251,1.038-1.41,3.275-1.116,7.08-1.026,10.6-2.224.945-.322,1.97-1.87,2.731-2.449a12.577,12.577,0,0,1,4.751-1.75c.541-.135,3.365-2.913,3.864-1.448.275.806-1.44,2.009-1.844,2.146a9.177,9.177,0,0,0-2.5,1.775c-.854.865-3.242,1.6-4.272,2.38-.928.706-.734,2.916-1.459,3.468a3.646,3.646,0,0,0-.5,2.612c.684,2.007,2.681,1.06,3.556-.221.6-.873.378-2.522,1.126-3.09,1.586-1.206,8.034-5.29,6.939-8.5-.088-.254.331-1.033.17-1.246a11.679,11.679,0,0,1-1.681-3.19c-.4-1.185,1.6-2.26.886-3.4l.232-.673c-.46-.826-3.87-4.38-3.45-4.7.162-.123.23-.67.39-.793,2.549-1.938,5.289,1.895,8.049.955,3.286-1.119.965-2.223,2.271-3.216.96-.73,3.009.1,4.128-.284,1.473-.5,3.822,1.1,4.575,1.61.229.156.1.9.542,1.2.172.117.723.38.516.352-.231-.031-.632.312-.491.5.287.378,1.358.382,1.422-.088.061-.448-1.688-.261-1.9-.541-1.986-2.612-5.285-2.311-7.533-.6-.863.656-.4,3.226-.075,3.656.821,1.079,4.535-.4,5.4.735.837,1.1-3.026,3.2-1.667,4.991.259.34.784.541,1.013.843.325.428,2.88-1.509,3.329-1.662,1.851-.631,2.741,1.639,4.783.087a17.818,17.818,0,0,0-.486-4.72c-.373-.491-2.742-3.555-.838-4.2,1.612-.549,2.228,1.44,3.392,2.013.654.322,1.464.422,2.159.717.538.229,9.242,5.26,9.3,5.215s1.256-.47,1.082-.7a8.708,8.708,0,0,1-.957-1.258c.507-.385,2.135-.043,2.844-.177a49.058,49.058,0,0,1,16.456-.721c14.8,2.015,29.028,8.731,43.586,5.088,1.356-.339,2.961-.169,3.549-1.209l.768-.46c2.087.284,9.229,3.919,10.674,3.427a16.757,16.757,0,0,1,8.747-1.065c2.327.317,5.467,2.386,7.917,1.924,2.645-.5,5.407-2.369,8.438-2.941,1.406-.265,2.78-1.738,4.077-1.983,4.658-.879,12.785,3.1,16.828,1.727a106.343,106.343,0,0,0,13.195-6.806c2.624-2,5.734-4.594,8.954-5.691.6-.205.9-1.663,1.787-1.731l.925-.579c2.027-.986,4.108-3.248,5.839-4.564.712-.541,1.022-1.894,1.9-2.562,1.228-.934,5.571-2.176,6.2-3.1.589-.862,2.805-3.542,3.75-3.72,3.074-.58,8.155-.243,10.421-1.966,2.572-1.956,2.45-6.7,4.825-8.509,1.7-1.292,4.023-1.107,5.877-1.738.94-.32,1.733.994,2.731.654a19.752,19.752,0,0,0,3.052-1.7c1.351-.46,3.05-.907,4.417-1.373,1.649-.562,1.483-2,2.334-2.644.448-.341,1.552-.435,2.089-.844.983-.747,1.91-2.321,2.963-3.122.926-.7,2.5-1.277,3.366-1.939,1.189-.9,2.189-3.1,3.152-4.506,1.14-1.669,4.447-3.133,5.625-4.029,1.644-1.25,5.678,1.7,7.319,1.137,1.322-.45,5.3-.806,6.274-1.543a16.267,16.267,0,0,1,3.643-1.9c1.335-.455,2.858-2.822,4.7-3.45,2.137-.728,2.1,3.048,4.343,2.283.487-.166,2.1.142,2.41-.1,1.066-.811,4.774-2.21,6.243-.278,1.252,1.646-3.518,4.093-4.234,5.205l-.629.478c-.924,6.789-6.646,8.1-12.338,10.871-.691.336-4.747.755-3.813.045,1-.761,9.973-6.473,9.318-7.333-.419-.551-1.095.373-1.775.6a18.661,18.661,0,0,1-4.48.8c-1.825.2-7.848-2.473-8.628-1.88a10.981,10.981,0,0,0-2.749,2.587c-1.01,1.479-.332,2.858-1.969,4.1-1.466,1.115-3.6.038-5.154.567-1.739.592-2.245,3.843-3.265,5.337-.433.634-1.7.8-2.284,1.24-1.356,1.031-2.118,2.868-3.41,4.33-2.333,2.642-4.889,1.111-5.9,1.877a14.645,14.645,0,0,0-2.233,2.939c-1.831,2.682-7.291.917-6.241,6.483.056.3-.361,1.158-.188,1.385.189.248.2,1.074.384,1.321,1.355,1.782,12.109-3.287,7.993,4.473l-.371.654c-.881,6.473-12.371-.026-13.039.481-1.046.8-6.572,1.663-6.833,3.582a13.035,13.035,0,0,0,.234,5.531c.647,1.9,6.228,3.105,4.929,7.3-.124.4-.379,1.9-.717,2.159-.675.513-1.879-2.635-2.254-3.127-.325-.427-1.263-.682-1.548-1.057-1.16-1.526-1.886-3.79-2.764-5.594a20.683,20.683,0,0,0-1.083-2.4c-.835.635-1.066,6.892-2.025,7.621-1.263.961-2.235,3.189-3.687,4.293-1.193.907-3.384-1.7-4.2-2.265-.361-.246-.165-1.359-.347-1.6-.091-.12-.935-.033-.988.006-.8.607-3.572,4.32-3.844,4.412-1.423.485-6.727,2.136-7.57,2.777-.922.7.579,3.531-.288,4.191a15.4,15.4,0,0,0-3.14,3.38c-1.857,2.721-3.859,5.54-7.481,7.3-2.334,1.135-14,1.21-14.454,1.558a12.75,12.75,0,0,0-2.957,4.11c-.573,1.165-1.213,3.221-.76,4.55.983,2.886,4.753-1.069,6.947-1.31,1.807-.2,2.065,1.561,3.078,2.252,1.55,1.058,4.541.524,6.117,1.679l1.007-.145c3.686,1.813,1.62-3.869,4.285-3.506a5.441,5.441,0,0,1,1.661.226c.8.545,2.1.471,2.656,1.208a32.037,32.037,0,0,0,7.773,7.122c1.184.808,3.736.064,4.921.106,1.21.043,3.574.137,4.443-.523,1.547-1.176,3.5-2.413,5.153-3.67.765-.582,1-2.387,1.919-2.7,1.77-.6,3.9,3.116,6.155,1.4,1.05-.8,1.286-4.348.458-5.437-.775-1.02-4.408-1.966-3.323-3.555,1.462-2.142,3.028-5.023,5.832-5.552,1.556-.293,4.84.54,6.123-.436a20.446,20.446,0,0,0,3.2-3.8c.327-.479.207-1.516.679-1.882,1.781-1.355,5.418-2.607,6.412-4.627.692-1.407.749-3.425,1.629-4.714,2.038-2.986,4.864-4.016,8.948-3.576l.693.094c.987.134,5.022,1.394,5.658.911s2.007-1.154,2.617-1.618c1.6-1.218,6.834,1.316,7.583,2.3.648.853,3.785,1.218,4.726.5.592-.45.62-1.462,1.151-2.241.444-.651,1.86.156,2.5-.787.431-.631.513-3.244,1.22-3.782s1.894.918,4.046-.718c.525-.4.4-2.962.49-3.6.073-.54,1.427-1.551.994-2.121-.536-.7-1.872-4.286-.706-5.173.222-.169,8.066,3.389,9.05,2.924l.516.352c-.564,4.143,6.579,1.678,7.66,4.85.529,1.553-3.122.719-2.775,1.737.576,1.69,1.784,3.105,2.525,5.279.3.87.461,3.416,1.291,3.983.243.166.574-.619.667-.755.911-1.335.479-2.918,1.258-4.059,1.484-2.174,2.316-4.172,1.792-6.948-.1-.553-1.184-2.575-.416-3.159l4.719-3.588c.206-.157.71.661.894.686,1.223.167,7.57,3.435,7.364,4.951-.1.768.377,3.313-.232,3.776-.489.372-2.66,1.726-1.8,2.857.756.994,2.976,1.048,4.122,1.83.578.395-.377,1.219-.125,1.957.358,1.05,1.686,3.144,2.612,3.6.672.33,3.424,4.471,4.116,3.945,1.262-.96,5.527-1.817,7.828-2.6s1.031-4.586,5.631-3.041l.951.27c2.811.383-.413,3.211.762,4.757.428.563,3.725.93,4.235,1,.152.021,1.132-7.935,1.7-8.37,1.415-1.076,4.241.126,5.94-1.165l4.876-3.708c.722-.549.828-1.878,1.346-2.637.71-1.041,2.8-1.76,3.719-2.455,1.429-1.087,3.839,1.673,5.123.7,1.7-1.292,2.634-3.253,3.7-5.419,1.124-2.286-1.958-3.624,3.422-5.457a6.671,6.671,0,0,1,3.241.018c5.771.786,1.181,5.875,4.659,8.249.289.2.742.605,1.208.447,1-.341,4.679-.188,4.833-1.316.452-3.322-.149-3.762-3.827-5.034-.575-.2-3.879-1.022-2.857-1.8.834-.634,2.759-.652,3.826-1.171.645-.314,1.215-1.544,1.667-1.888.4-.307,2.745.515,3.3.591,1.412.192,5.24,1.832,5.966,2.786.645.848,7.041.608,8.295,2.257.241.317.1,1.084.227,1.441a1.911,1.911,0,0,1-.088,1.68c-.964,1.412-4.594,6.318-5.706,6.7-.412.141-.97-.132-1.4-.05a35.83,35.83,0,0,0-6.664,2.336c-.74.563-7.151-1.141-8.439-.162-1.793,1.363-4.517,1.473-6.645,2.2-1.24.422-1.891,1.81-2.731,2.449-1.531,1.164-3.445,1.675-4.984,2.424-1.269.617-2.633,1.884-4.014,2.556a55.405,55.405,0,0,1-6.286,2.67c-1.5.511-3.21.438-4.657,1.058-1.163.5-1.861,1.521-3.209,1.819l-.808.242-2.945,1.432c-.748.364-1.888.272-2.624.63a22.567,22.567,0,0,1-5.412,1.943c-2.594.489-5.543.558-7.985,1.169-1.358.34-2.745.743-4.084,1a7.52,7.52,0,0,0-1.281.6c-2.14.918-4.355,1.687-6.355,2.66-1.362.662-2.952.431-4.32,1.175l-.375.16c-1.749.851-3.936,2.463-5.927,3.141a14.492,14.492,0,0,0-3.429,1.366c-.582.443-11.395,3.583-13.29,4.4-1.083.465-3.933-7.559-5.162-6.625-.9.688-.82,4.568-.477,5.576.276.811,1.361.973,1.769,1.51.119.157-.205.777-.251.812-.923.7-2.072,1.824-2.869,2.43-1.84,1.4-4.463.911-6.387,2.374-.738.561-1.772,2.056-2.869,2.43a75.359,75.359,0,0,0-8.457,3.079c-3.432,1.669-7.063,4.7-10.993,5.131-4.94.544,1.134-4.409,1.176-4.493.544-1.106-.741-2.933-1.209-3.549-.367-.483-.045-3.814-.6-3.889s-1.835,3.754-2.56,4.3c-.332.253-3.395,3.37-3.177,3.657,1.182,1.555.615.42,2.064,1.409.338.231.294,1.04.365,1.46l.673.233c-2.176,1.654-5.545,1.857-7.507,3.349a19.479,19.479,0,0,1-5.216,3.1,27.691,27.691,0,0,1-6.809,1.329c-.412.026-2.521-.317-2.807-.1a14.585,14.585,0,0,1-2.284,1.24c-.531.228-3.7,1.337-4.008.441-.294-.862,1.542-3.038,1.673-4,.031-.228.045-2.641-.705-2.07-2.357,1.792.155,4.1-.383,4.883-.343.5-.626,2.089-1.031,2.4-2.123,1.614-4.4,1.9-6.859,2.733-.724.247-9.78,1.829-10.068,1.45-.085-.111.111-.815.131-.969.017-.131.017-.759.113-.831.406-.309,1.551-.062,2.032-.428,2.962-2.252,9.756-1.657,12.3-5.377.906-1.328-.8-2.216-1.618-2.618-.615-.3-.82-1.191-1.353-1.453-2.042-1-3.971-1.756-6.1-2.805-.953-.469-4.28,1.228-4.978.309-.759-1-3.666-.932-4.588-.484-1.406.684.031,10.386.128,10.453a16.74,16.74,0,0,1,4.374,4.121c1,1.321-3.121,3.366-3.611,3.739-6.271,4.768-14.449,4.459-20.469,9.482l-1.164.265c-1.519.739-3.335,2.456-4.92,3-3.282,1.118-7.095-.356-10.547.82-2.406.82-8.266-.417-9.993.9-1.916,1.456-6.792-.3-8.923,1.323-5.48,4.167-13.181,3.32-17.858,6.876-3.509,2.668-11.31-.833-14.612,1.677-6.477,4.925-20.621,5.5-24.88,8.74-1.263.96-4.723-.381-6,.593-6.089,4.63-14.98,4.443-22.087,6.864-10.215,3.48-16.136,10.514-25.559,13.724-5.414,1.844-35.915,4.47-37.744,5.861-3.715,2.824-10.818.781-15.556,2.395-4.606,1.569-8.51,2.5-13.252,4.118-4.156,1.416-23.562-.178-24.644-3.355-.3-.892,10.591-.814,12.485-.557.378.052,18.471-1.275,19.395-1.59,4.96-1.69,10.12-2.25,15.618-4.924,2.538-1.235,6.549.938,9.011.1,3.993-1.36,8.165-1.593,11.956-2.885,2.02-.688,4.782.747,6.759.074,2.219-.756,7.208-.267,8.961-1.6,3.834-2.916,9.084-2.191,12.811-5.025,1.507-1.146,2.379-2.554,3.574-3.462,1.685-1.281,3.5-1.082,5.047-1.851l1.535-.919c2.127-.4,3.562-2.006,5.437-2.644,2.912-.992,7.564.544,10.409-.839a69.015,69.015,0,0,1,8.432-3.929c1.071-.365,2.378-.018,3.436-.378,1.286-.438,2.169-1.4,3.625-1.763a13.723,13.723,0,0,1,2.114.006c2.008-.221,3.716-1.568,5.6-1.776a36.7,36.7,0,0,0,7.381-1.392,22.112,22.112,0,0,0,5.1-2.267c1.5-1.138,3.11-2.842,5.134-3.531.868-.3,3.173.194,3.851-.322s1.957-.122,2.624-.63c3.55-2.7,14.626-1.977,19-4.888l.887-.3c.8-.152,13.743-1.51,13.743-1.513a30.509,30.509,0,0,1,5.481-1.933c1.219-.134,2.868.475,3.933.112,1.186-.4,1.6-1.2,2.756-1.6,1.439-.49,5.927,1.079,7.174.131.95-.722,2.794-1.38,3.662-2.04.676-.514.725-1.668,1.428-2.2,1.972-1.5,9.111-5.81,12.434-5.358,2.576.351,5.913-1.766,7.45-2.934,1.038-.789,3.573-.235,4.657-1.058.8-.611.094-1.717.182-2.372.066-.483,1.253-1.617.975-1.983-.364-.479-1.461-.546-2-.837a4.7,4.7,0,0,1-1.133-1c-.016,0-.05.517-.075.554a1.457,1.457,0,0,1-.906.441c-.6.066-4.2.353-4.506-.049-.716-.941,1.552-4.309-.016-5.078-2.682-1.319-2.76,2.269-3.75,3.72-.85,1.246-1.514,3.288-2.762,3.713-1.551.528-3.68-1.174-5.06-.125-.9.682-.646,2.941-1.4,4.04-1.52,2.227-3.114,4.672-4.6,6.848-.413.6.064,1.6-.025,2.253-.244,1.794-9.7,3.9-10.893,2.324-.79-1.039,3.32-8.811,0-7.193-1.158.563-2.386.955-2.63,2.744-.5,3.675,5.516,3.377,1.524,6.412-.352.268-1.034-.165-1.542-.069a6.288,6.288,0,0,1-6.457-2.289c-.386-.508-2.849.356-3.266-.868-.569-1.673,1.037-3.7-.133-5.236-.32-.421-2.836,3.739-3.252,4.211-.836.946-3.126-.85-4.072-.131-.98.745-2.009,1.031-3.071,1.838-.182.138-1.339-.323-1.642-.365-7.172-.976-4.5-7.38-7.534-6.807-1.455.275-2.341,3.393-3.548,4.311a14.825,14.825,0,0,1-2.976,1.146c-.215.163.279.442.044.711l.182.73c.227,1.206.731.961,1.435,1.888,1.774,2.333-5.709,3.844-6.217,4.23-1.125.855-5.15-2.538-5.941-1.937-.573.435-6.051,3.469-7.3,1.827-1.7-2.231-1.731-3.452-4.1-5.071a2.205,2.205,0,0,0-1.7.051c-4.7,1.6,5.425,8.287,2.2,10.735-3.163,2.4-6.934,3.286-9.766,5.439-1.369,1.041-4.25-.243-5.764.907-.262.2-1.122-.388-1.384-.188-4.788,3.64-6.944-10.111-9.618-8.078-3.174,2.413-6.928,2.041-10.206,4.533-1.509,1.147-2.006,4.116-4.039,4.809-2.553.87-7.85-3.794-8.887-5.158-1.058-1.391-17.618,1.481-18.639,2.257-1.1.834-1.372,3.029-2.5,3.89-1.983,1.508-12.59-.853-16.978,2.483-1.748,1.329-6.8-3.062-7.137-3.51-1.236-1.625-6.4-.261-7.64-1.886-.537-.707-2.472-3.333-2.984-2.944-3.788,2.88,1.209,4.324,1.94,6.469.686,2.015-1.1,9.77-2.3,10.686-.332.252-4.93-2.2-5.866-2.491-3.393-1.051-9.648-2.894-11.656-5.535-.881-1.158-5.156,1.708-6.482-.036-.211-.278-.091-5.144-.781-4.619-2.212,1.682-4.5,4.857-7.386,6.609l-1.12.976c-.99.752-1.671,1.643-2.731,2.449-1.009.767-2.266.73-3.152,1.4-.421.32-.7.963-1.139,1.114-1.5.51-3.2.1-4.739.624-2.659.906-5.6-3.189-7.992-1.37-1.137.864-2.835.791-4.2,1.826-1.489,1.132-3.144,2.994-4.9,3.846-3.319,1.614-8.06,1.557-11.364,2.683-4.216,1.436-7.927,3.312-12.592,2.375l-.692-.094c-1.784.337-6.678-2.618-8.584-1.169-.157.12-3.786,2.529-3.977,2.279-.23-.3-.22-1.269-.485-1.617-.577-.759-8.432.826-8.728.927-.4.138-1.6-.521-1.938-.264-2.635,2,.384,3.236-1.516,3.883-1.145.39-3.545-2.05-3.89-2.5-.182-.24-.77.036-.849.025-2.425-.33-2.848,1.09-6.639.083-.474-.126-2.99-1.326-3.543-.905-1.118.85-2.94.994-4.059,1.845-1.247.948-.886,1.688-2.416,2.209-1.145.39-3.714-1.4-4.55-.76-1.238.942-1.75,2.533-4.071,2.971-1.66.313-3.26-2.486-5.381-.874-.52.4-.914,1.91-1.724,2.3a31.234,31.234,0,0,1-4.323.681c-2.253,1.713-4.085,3.28-7.406,3.645-2.954.325-2.513-5.052-3.249-7.211-.3-.869.725-2.147.119-2.945-.249-.328-.633.177-.73.183-4.045.251-2.393,5.258-5.429,6.735-3.061,1.489-1.748-2.337-2.984-2.944-.9-.442-2.1,1.837-2.97,2.134-.666.227-1.945-.134-2.429.233-1.313,1,4.806,2.48,4.859,2.636.487,1.429-5.775,2.037-5.273,3.513.318.932,2.666.156,3.562.767a18.5,18.5,0,0,0,2.083,1.271c1.8.888,4.794.089,6.721.351.771.1,6.374,1.525,6.866,1.358,1.893-.645,6.09.17,7.665-.367,3.558-1.212,6.389.165,9.924.646,1.194.163,7.308-4.5,5.638-2.053-5.24,7.676-6.125,3.3-14.536,4.226-11.167,1.23-20.756-1.3-32.159-3.492-.813-.156-3.261-2.219-4.076-2.35-.993-.159-3.079,2.625-4.06,2.471l-.773,0-.5.031c-3.41.142-6.9-1.82-10.475-1.426-1.725.19-3.44.789-5.219.985a13.787,13.787,0,0,0-2.416.17c-.974.332-1.451,1.381-2.323,1.678-.9.308-2.534.064-3.306.846l-1.032.258c-2.14.89-5.645-.5-8.018.3-3.994,1.361-12.885,3.616-17.6.4-.826-.564-3.532.2-4.112-.56-.744-.978,3.25-1.947,3.675-2.092,1.129-.385,3.039.063,4.414-.2,3.86-.728,5.3-2.071,10.163-1.408,1.561.212,4.837-2.273,5.793-3,.454-.345,13.352-.147,13.83-.51.725-.552,1.774-2.192,2.527-2.448,3.245-1.106,12.9-2.476,13.481-6.74.84-6.172-4.7-4.816-9.212-7.038a19.4,19.4,0,0,1-7.869-6.655c-.119-.157-1.153-.157-1.371-.187-.414-.056-10.216.96-11.142,1.275-1.737.592-1.157,1.582-2.109,2.305-.153.117-5.647,2.21-6.3,2.333-1.567.3-7.57-1.089-8.748-.194-3.93,2.988,2.021,3.091,4.166,4.556,2.532,1.728-2.727,3.7,1.131,6.336.719.491,4.642,2.314,4.13,3.354-.529,1.076-1.556.832-2.394,1.469-5.226,3.974-8.027-2.81-10.244-2.392-2.477.467-1.623,2.638-2.883,3.6-.8.608-1.922.095-2.848.41-2.4.816-4.906,5.211-7.635,3.348l-1.513-.6c-4.531-.38-10.9-.251-13.3-3.406-1.071-1.408,6.082-4.878,2.5-6.64-2.607-1.282-6.958-2.686-8.527-4.751-2.8-3.678.18-12.96,2.408-16.224,1.282-1.879,2.991-2.5,4.164-4.219,1.2-1.759,1.424-8.806,2.285-9.461,1.474-1.121,3.062-3.206,4.582-4.362,1.536-1.168,4.337-.84,6.078-2.164,2.226-1.692,3.033-3.71,5.107-5.287,2.131-1.62,1.468-15.645,6.448-18.068l.329-.952c3.863-4.633,12.88-15.068,18.847-11,1.021.7,2-.237,2.937.4.732.5,3.451,1.636,3.676,2.3.409,1.2,4.081,8.833,5.528,7.733,3.142-2.389-5.409-8.7,1.723-14.124,1.379-1.049,1.514-1.19,3.515-.917,2.694.367,5.111.6,7.111,1.965,1.064.726,5.3.051,6.043,1.022,1.189,1.564,4.747,2.55,6.008,4.208,1.156,1.521,3.061,3.8,4.086,5.143.94,1.236,3-.7,2.109-2.305Z" transform="translate(2041.44 -110.587)" fill="#6798f4"/>
  <path id="path3028" d="M-1405.947,189.341c-3.579-.79-13.347.933-11.861,5.295.256.751,1.189.911,1.63,1.491,1.194,1.571.265,3.387,1.631,4.593,1.716,1.515,3.658-4.029,4.178-4.79a14.365,14.365,0,0,1,2.019-2.4c.466-.354,1.567-.074,2.032-.428,1.038-.789,2.206-1.8,3.165-2.53,1.069-.813-1.83-1.12-2.794-1.227Zm18.57-3.818c-.316.228-.912.2-1.183.4-.448.34-.254.833-.308,1.227-.047.349-.651.609-.446,1.208.73,2.145,3.478.351,3.687-1.19.094-.691-.433-1.164-1.75-1.648Zm57.045-33.692c-.223.593-1.427.589-1.969,1-.25.19-.234.674-.547.913-.876.666-6.627,1.3-7.564.662-.375-.256-2.2-1.232-2.675-1.069-.369.126-.48.613-.667.755-.294.224-1.855-1.444-2.555-.912-.494.376-1.111.721-1.712,1.177-1.284.976-.41,2.517-2.409,3.2-2.581.879-6.889-.69-6.96-.665-.456.155-4.046,7.308-3.68,8.383.913,2.679,5.755.151,7.193-.008.915-.1,1.29-.693,2.089-.844,1.65-.311,1.826,2.47,6.048.118,2.292-1.277,3.043-5,5.3-5.766,2.053-.7,6.191.257,8.055-1.16.375-.285,1.624.173,2.115.006,2.6-.887,4.179-1.69,4.63-5.01.044-.324.067-1.24-.227-1.441a11.823,11.823,0,0,0-5.123-.7c-.039.014,1.3.8.661,1.359Zm-255.3,175.5c.866-9.471,10.922-38.34,11.236-38.579-.066-.2-1.875.124-2.146-.232-.182-.24-2.706-1.257-3.386-1.025a11.166,11.166,0,0,0-3.171,1.542c-.053.04-.381.042-.434.082a5.323,5.323,0,0,0-1.158,1.253c0,.009-.949.389-1.045.422-.333.113-.861,1.02-1.139,1.114-.859.293-1.4.807-2.265,1.1-.493.168-4.8-.544-5.16-.421-.5.17-1.033-.03-1.561.069a4.07,4.07,0,0,0-1.673.9c-.122.092-.448.02-.573.063a6.872,6.872,0,0,0-.648.617c-.074.056-.2-.094-.277-.038-.218.166-.609.587-.805.736-.292.222-.319,1.8-.579,2.177a5.371,5.371,0,0,1-1.177,1.391c-.686.522-2.18.292-2.781.749-.111.084-.841-.044-.988.006-.1.034-.077.225-.176.258-.506.172-.969.066-1.441.227-.227.078-.255.483-.353.516a4.833,4.833,0,0,1-4.109.146,3,3,0,0,0-1.68-.088l-.868.164-1.894.447-1.7-29.986-3.675-5.6a38.118,38.118,0,0,0,7.547-1.069c1.356-.339,2.961-.169,3.549-1.209l.768-.46c2.087.284,9.229,3.919,10.674,3.427a16.756,16.756,0,0,1,8.747-1.065c2.327.317,5.467,2.386,7.917,1.924,2.645-.5,5.407-2.369,8.438-2.941,1.406-.265,2.78-1.738,4.077-1.983,4.658-.879,12.785,3.1,16.828,1.727a106.343,106.343,0,0,0,13.195-6.806c2.624-2,5.734-4.594,8.954-5.691.6-.205.9-1.664,1.787-1.731l.925-.579c2.027-.986,4.108-3.248,5.839-4.564.712-.541,1.022-1.894,1.9-2.562,1.228-.934,5.571-2.176,6.2-3.1.589-.862,2.805-3.542,3.75-3.72,3.074-.58,8.155-.243,10.421-1.966,2.572-1.956,2.45-6.7,4.825-8.509,1.7-1.292,4.023-1.107,5.877-1.738.94-.32,1.733.994,2.731.654a19.745,19.745,0,0,0,3.052-1.7c1.351-.46,3.05-.907,4.417-1.373,1.649-.562,1.483-2,2.334-2.644.448-.341,1.552-.435,2.089-.844.983-.747,1.91-2.321,2.963-3.122.926-.7,2.5-1.277,3.366-1.939,1.189-.9,2.189-3.1,3.152-4.506,1.14-1.669,4.447-3.133,5.625-4.029,1.644-1.25,5.678,1.7,7.319,1.137,1.322-.45,5.3-.806,6.274-1.543a16.267,16.267,0,0,1,3.643-1.9c1.335-.455,2.858-2.822,4.7-3.45,2.137-.728,2.1,3.048,4.343,2.283.487-.166,2.1.142,2.41-.1,1.066-.811,4.774-2.21,6.243-.278,1.252,1.646-3.518,4.093-4.234,5.205l-.629.478c-.924,6.789-6.646,8.1-12.338,10.871-.691.336-4.747.755-3.813.045,1-.761,9.973-6.473,9.318-7.333-.419-.551-1.095.373-1.775.6a18.661,18.661,0,0,1-4.48.8c-1.825.2-7.848-2.473-8.628-1.88a10.981,10.981,0,0,0-2.749,2.587c-1.01,1.479-.332,2.858-1.969,4.1-1.466,1.115-3.6.038-5.154.567-1.739.592-2.245,3.843-3.265,5.337-.433.634-1.7.8-2.284,1.24-1.356,1.031-2.118,2.868-3.41,4.33-2.333,2.642-4.889,1.111-5.9,1.877a14.645,14.645,0,0,0-2.233,2.939c-1.831,2.682-7.291.917-6.241,6.483.056.3-.361,1.158-.188,1.385.189.248.2,1.074.384,1.321,1.355,1.782,12.109-3.287,7.993,4.473l-.371.654c-.881,6.473-12.371-.026-13.039.481-1.046.8-6.572,1.663-6.833,3.582a13.035,13.035,0,0,0,.234,5.531c.647,1.9,6.228,3.105,4.929,7.3-.124.4-.379,1.9-.717,2.159-.675.513-1.879-2.635-2.254-3.127-.325-.427-1.263-.682-1.548-1.057-1.16-1.526-1.886-3.79-2.764-5.594a20.62,20.62,0,0,0-1.083-2.4c-.835.635-1.066,6.892-2.025,7.621-1.263.961-2.235,3.189-3.687,4.293-1.193.907-3.384-1.7-4.2-2.265-.362-.246-.165-1.359-.347-1.6-.091-.12-.935-.033-.988.006-.8.607-3.572,4.32-3.844,4.412-1.423.485-6.727,2.136-7.57,2.777-.922.7.579,3.531-.288,4.191a15.4,15.4,0,0,0-3.14,3.38c-1.857,2.721-3.859,5.54-7.481,7.3-2.334,1.135-14,1.21-14.454,1.558a12.75,12.75,0,0,0-2.957,4.11c-.573,1.165-1.213,3.221-.76,4.55.983,2.886,4.753-1.069,6.947-1.31,1.807-.2,2.065,1.561,3.078,2.252,1.55,1.058,4.541.524,6.117,1.679l1.007-.145c3.686,1.813,1.62-3.869,4.285-3.506a5.441,5.441,0,0,1,1.661.226c.8.545,2.1.471,2.656,1.208a32.037,32.037,0,0,0,7.773,7.122c1.184.808,3.736.064,4.921.106,1.21.043,3.574.137,4.443-.523,1.547-1.176,3.5-2.413,5.153-3.67.765-.582,1-2.387,1.919-2.7,1.77-.6,3.9,3.116,6.155,1.4,1.05-.8,1.286-4.348.458-5.437-.775-1.02-4.408-1.966-3.323-3.555,1.462-2.142,3.028-5.023,5.832-5.552,1.556-.293,4.84.54,6.123-.436a20.446,20.446,0,0,0,3.2-3.8c.327-.479.207-1.516.679-1.882,1.781-1.355,5.418-2.607,6.412-4.627.692-1.407.749-3.425,1.629-4.714,2.038-2.986,4.864-4.016,8.948-3.576l.693.094c.987.134,5.022,1.394,5.658.911s2.007-1.154,2.617-1.618c1.6-1.218,6.834,1.316,7.583,2.3.648.853,3.785,1.218,4.726.5.592-.45.62-1.462,1.151-2.241.444-.651,1.86.156,2.5-.787.431-.631.513-3.244,1.22-3.782s1.894.918,4.046-.718c.524-.4.4-2.962.49-3.6.073-.54,1.427-1.551.994-2.121-.536-.7-1.872-4.286-.706-5.173.222-.169,8.066,3.389,9.05,2.924l.516.352c-.564,4.143,6.579,1.678,7.66,4.85.529,1.553-3.122.719-2.775,1.737.576,1.69,1.784,3.105,2.525,5.279.3.87.461,3.416,1.291,3.983.243.166.574-.619.667-.755.911-1.335.479-2.918,1.258-4.059,1.484-2.174,2.316-4.172,1.792-6.948-.1-.553-1.184-2.575-.416-3.159l4.719-3.588c.206-.157.71.661.894.686,1.223.167,7.57,3.435,7.364,4.951-.1.768.377,3.313-.232,3.776-.489.372-2.66,1.726-1.8,2.857.756.994,2.976,1.048,4.122,1.83.578.395-.377,1.219-.125,1.957.358,1.05,1.686,3.144,2.612,3.6.672.33,3.424,4.471,4.116,3.945,1.262-.96,5.527-1.817,7.828-2.6s1.031-4.586,5.631-3.041l.951.27c2.811.383-.413,3.211.762,4.757.428.563,3.725.93,4.235,1,.152.021,1.132-7.935,1.7-8.37,1.415-1.076,4.241.126,5.94-1.165l4.876-3.708c.722-.549.828-1.878,1.346-2.637.71-1.041,2.8-1.76,3.719-2.455,1.429-1.087,3.839,1.673,5.123.7,1.7-1.292,2.634-3.253,3.7-5.419,1.124-2.286-1.958-3.624,3.422-5.457a6.671,6.671,0,0,1,3.241.018c5.771.786,1.181,5.875,4.659,8.249.289.2.742.605,1.208.447,1-.341,4.679-.188,4.833-1.316.452-3.322-.149-3.762-3.827-5.034-.575-.2-3.879-1.022-2.857-1.8.834-.634,2.759-.652,3.826-1.171.645-.314,1.215-1.544,1.667-1.888.4-.307,2.745.515,3.3.591,1.412.192,5.24,1.832,5.966,2.786.645.848,7.041.608,8.295,2.257.242.317.1,1.084.227,1.441a1.911,1.911,0,0,1-.088,1.68c-.964,1.412-4.594,6.318-5.706,6.7-.412.141-.97-.132-1.4-.05a35.83,35.83,0,0,0-6.664,2.336c-.74.563-7.151-1.141-8.439-.162-1.793,1.363-4.517,1.473-6.645,2.2-1.24.422-1.891,1.81-2.731,2.449-1.531,1.164-3.445,1.675-4.984,2.424-1.269.617-2.633,1.884-4.014,2.556a55.405,55.405,0,0,1-6.286,2.67c-1.5.511-3.21.438-4.657,1.058-1.163.5-1.861,1.521-3.209,1.819l-.808.242-2.945,1.432c-.748.364-1.888.272-2.624.63a22.567,22.567,0,0,1-5.412,1.943c-2.594.489-5.543.558-7.985,1.169-1.358.34-2.745.743-4.084,1a7.52,7.52,0,0,0-1.281.6c-2.14.918-4.355,1.687-6.355,2.66-1.362.662-2.952.431-4.32,1.175l-.375.16c-1.749.851-3.936,2.463-5.927,3.141a14.492,14.492,0,0,0-3.429,1.366c-.582.443-11.395,3.583-13.29,4.4-1.083.465-3.933-7.559-5.162-6.625-.9.688-.82,4.568-.477,5.576.276.811,1.361.973,1.769,1.51.119.157-.206.777-.251.812-.923.7-2.072,1.824-2.869,2.43-1.84,1.4-4.463.911-6.387,2.374-.738.561-1.772,2.056-2.869,2.43a75.359,75.359,0,0,0-8.457,3.079c-3.432,1.669-7.063,4.7-10.993,5.131-4.94.544,1.134-4.409,1.176-4.493.544-1.106-.741-2.933-1.209-3.549-.367-.483-.045-3.814-.6-3.889s-1.835,3.754-2.56,4.3c-.332.253-3.395,3.37-3.177,3.657,1.182,1.555.615.42,2.064,1.409.339.231.295,1.04.365,1.46l.673.233c-2.176,1.654-5.545,1.857-7.507,3.349a19.479,19.479,0,0,1-5.216,3.1,27.7,27.7,0,0,1-6.809,1.329c-.412.026-2.521-.317-2.807-.1a14.585,14.585,0,0,1-2.284,1.24c-.531.228-3.7,1.337-4.008.441-.294-.862,1.542-3.038,1.673-4,.031-.228.045-2.641-.705-2.07-2.357,1.792.155,4.1-.383,4.883-.343.5-.626,2.089-1.031,2.4-2.123,1.614-4.4,1.9-6.859,2.733-.724.247-9.78,1.829-10.068,1.45-.085-.111.111-.815.131-.969.017-.131.017-.759.113-.831.406-.309,1.551-.062,2.032-.428,2.962-2.252,9.756-1.657,12.3-5.377.906-1.328-.8-2.216-1.618-2.618-.615-.3-.82-1.191-1.353-1.453-2.042-1-3.971-1.756-6.1-2.805-.953-.469-4.28,1.228-4.978.309-.759-1-3.666-.932-4.588-.484-1.406.684.031,10.386.128,10.453a16.74,16.74,0,0,1,4.374,4.121c1,1.321-3.121,3.366-3.611,3.739-6.271,4.768-14.449,4.459-20.469,9.482l-1.164.265c-1.519.739-3.335,2.456-4.92,3-3.282,1.118-7.095-.356-10.547.82-2.406.82-8.266-.417-9.993.9-1.916,1.456-6.792-.3-8.923,1.323-5.1,3.88-12.182,3.314-16.982,6.3l-.509-4.132a13.7,13.7,0,0,0,4.591-1.673l.887-.3c.8-.152,13.743-1.51,13.743-1.513a30.512,30.512,0,0,1,5.481-1.933c1.219-.134,2.868.475,3.933.112,1.186-.4,1.6-1.2,2.756-1.6,1.439-.49,5.927,1.079,7.174.131.95-.722,2.794-1.38,3.662-2.04.676-.514.725-1.668,1.428-2.2,1.972-1.5,9.111-5.81,12.434-5.358,2.576.351,5.913-1.766,7.45-2.934,1.038-.789,3.573-.235,4.657-1.058.8-.611.094-1.717.182-2.372.066-.483,1.253-1.617.975-1.983-.364-.479-1.461-.546-2-.837a4.7,4.7,0,0,1-1.133-1c-.016,0-.05.518-.075.554a1.457,1.457,0,0,1-.906.441c-.6.066-4.2.353-4.506-.049-.716-.941,1.552-4.309-.016-5.078-2.682-1.319-2.76,2.269-3.75,3.72-.85,1.246-1.514,3.288-2.762,3.713-1.551.528-3.68-1.174-5.06-.125-.9.682-.646,2.941-1.4,4.04-1.52,2.227-3.114,4.672-4.6,6.848-.413.6.064,1.6-.025,2.253-.244,1.794-9.7,3.9-10.893,2.324-.79-1.039,3.32-8.811,0-7.193-1.158.563-2.386.955-2.63,2.744-.5,3.675,5.516,3.377,1.524,6.412-.352.268-1.034-.165-1.542-.069a6.288,6.288,0,0,1-6.457-2.289c-.386-.508-2.849.356-3.266-.868-.569-1.673,1.037-3.7-.133-5.236-.32-.421-2.836,3.739-3.252,4.211-.836.946-3.126-.85-4.072-.131-.98.745-2.009,1.031-3.071,1.838-.182.138-1.339-.323-1.642-.365-7.172-.976-4.5-7.38-7.534-6.807m201-80.229c-4.939.434-3.85-6.089-2.45-8.935.431-.876.183-3.6.069-4.644-.03-.262-.512-3.678-.618-3.75-.276-.188-6.083-1.533-6.551-1.6a10.026,10.026,0,0,1-2.2-.44c-2.1-2.763,1.748-4.8,3.516-6.149.733-.557-.654-2.854.038-3.379.26-.2,1.139,1.057,1.252,1.158.956.844,2.724.906,3.707,1.774a39.823,39.823,0,0,0,4.255,3.964c3.761,2.567,4.354,8.645,2.6,13.045-.285.712-1.254.923-1.371,1.788-.17,1.25.662,4.709,0,5.217a8.538,8.538,0,0,0-2.24,1.951h-.01Zm-67.131,11.449c-2.518-.294-2.676-2.429-3.349-4.4-.622-1.826-3.506-3.253-3.179-5.65.294-2.159.421-2.058,2.712-2.31.605-.067,2.715-1.1,3.077-.85C-1449.088,248.564-1447.25,256.107-1452.381,259.026Zm-2.8-13.636c.448-.956-.985-.014-.837-1.1.291-2.141-3.477-4.163-5.3-3.542-1.072.365-.9,1.8-1.585,2.322-.328.249-4.793-.427-5.1-.836-.886-1.166-1.615-3.593-2.462-4.707-.43-.566.669-1.719.458-2.335-.078-.228-2.632-2.219-1.719-2.913,1.052-.8,3.681-.073,4.556-1.354.947-1.388,1.333-4.861,2.629-5.847.5-.381,1.8-.006,2.309-.391.845-.642,1.351-2.069,2.271-3.216.85-1.061,2.176-1.53,2.97-2.134,1.46-1.11,3.144,1.845,3.77,2.346,1.846,1.479,3.1,3.6,5.212,5.222,3.362,2.579,5.477,2.633,7.823,5.719.866,1.139-1.4,1.5-2.026,1.416-1.34-.182-7.176-3.729-7.729-3.308-.693.527-2.915,3.512-1.805,4.972.863,1.134,3.893.258,5.1-.152.881-.3,2.911,1.164,3.745,1.5,1.649.659,5.936-.1,5.608,2.315a2.622,2.622,0,0,1-1.233,1.806c-.905.688-.612,5.333-.433,6.287.253,1.342,1.554,3.535.857,4.065-1.579,1.2-7.754-2.027-8.263-3.522-.165-.484.256-1.187.088-1.68-.606-1.779-1.116-1.794-2.115-3.108-.128-.169-.913-.055-1.108-.151-2.394-1.177-2.985.657-4.631,1.908,0,0-2.077.2-1.045.422h0Zm-42.021,24.837c-.385-1.07-1.235-1.271-2.136-1.886-.852-.582-4.513-2.128-4.98-.778a2.242,2.242,0,0,0-.106.783,14.381,14.381,0,0,0,1.829,1.944c.454.4.565,1.321.948,1.824.712.937,1.675,1.972,2.395,2.919,1.734,2.281,2.978-.85,2.429-2.461-.185-.544-.077-1.348-.379-2.345h0Z" transform="translate(2041.44 -110.587)" fill="#6798f4"/>
  <path id="path3019" d="M-1913.292,380.1c.274-2.013-.13-3.225-.9-4.051l.9-1.248,4.281-1.844,4.188-2.125.469-2.812,1.375-1.406,1.875-2.469.969-1.094.109-4.315.707-8.75.707-8.043,1.1-4.817,3.978-1.635.928-1.1,1.458-.53,1.016-2.784.574-3.138-.663-2.917-7.469-6.519-.994-2.873-1.945-1.989-1.48-1.237-1.989-.265-.177-.6a1.728,1.728,0,0,0-.207-.631h-.01c-.548-.721-1.083-7.011-1.2-8.739l.665-.831c1.806-.341,1.462-12.33,3.78-11.19.4.195.508.994.68,1.221.334.439,1.242.654,1.548,1.057.358.471-.421,2.059-.081,2.668,1.138,2.042,4.041.245,6.036,4.347a10.127,10.127,0,0,1,.586,5.015c-.042.308-.2,2.511.077,2.549a1.114,1.114,0,0,0,.749-.321c1.074-.817,1.415-3.434,2.56-4.3.47-.357.321-2.359.673-2.87.958-1.4,2.069-2.367,3.234-4.072.754-1.1-.889-2.312-1.3-2.857-.259-.341-1.963.537-2.347.668-4.687,1.6-6.168.69-7.37-2.837-.484-1.42,1.558-2.171,1.919-2.7,1.293-1.894-.956-5.107,1.358-6.866,2.7-2.051,6.262.971,8.49,1.861.807.323,2.67.084,3.147.71,1.057,1.39,2.84,2.718,3.368,4.266a28.421,28.421,0,0,0,4.621,8.526c1.4,1.845.452,5.166,1.147,6.079.12.159,1.96-5.343,2.239-5.054l-.183-.73c.122-.892-.713-1.253-.271-2.152s2.717-5.783,2.547-6.281a9.185,9.185,0,0,0-1.618-2.618c-1.822-2.4-.29-8,1.257-10.264,2.83-4.146,4.54-3.159,9.816-3.74.513-.056,1.566.175,1.995-.151,5.051-3.841,10.639-6.79,17.657-4.365,1.727.6,3.13.362,4.021,1.535.509.669,2.762.53,3.827,1.931,1.327,1.745-5.694.025-5.79.058-.61.208-1.205.682-1.913.586-.157-.021-5.573,2.29-5.871,2.726-.795,1.164,1.084,2.4.668,2.347-.125-.017,1.643-.038,2.108-.982a2.4,2.4,0,0,1,2.7-1.184,7.929,7.929,0,0,1,2.342,1.447,11.231,11.231,0,0,0,1.567.918c1.327.905.095,3.391.938,4.5.4.523,1.639.223,2.077.283s1.165.068,1.366.327l.849-.025c.495.067,2.486,1.337,3.128.849,3.258-2.477,2.6-9.1,7.405-6.748l.46.768c.114.607,2.126,7.2,4.482,5.4a1.108,1.108,0,0,0,.333-.887l.592,1.323,4.265,9.413,1.551,84.374c-2.144-.29-6.156-2.443-7.839-1.164-.157.12-3.786,2.529-3.977,2.279-.23-.3-.22-1.269-.485-1.617-.577-.759-8.432.826-8.728.927-.4.138-1.6-.521-1.938-.264-2.635,2,.384,3.236-1.516,3.883-1.145.39-3.545-2.05-3.89-2.5-.182-.24-.77.036-.849.025-2.425-.33-2.848,1.09-6.639.083-.474-.126-2.99-1.326-3.543-.905-1.118.85-2.94.994-4.059,1.845-1.247.948-.886,1.688-2.416,2.209-1.145.39-3.714-1.4-4.55-.76-1.238.942-1.75,2.533-4.071,2.971-1.66.313-3.26-2.486-5.381-.874-.52.4-.914,1.91-1.724,2.3a31.236,31.236,0,0,1-4.323.681c-2.253,1.713-4.085,3.28-7.406,3.645-2.954.325-2.513-5.052-3.249-7.211-.3-.869.725-2.147.119-2.945-.249-.328-.633.177-.73.183-4.045.251-2.393,5.258-5.429,6.735-3.061,1.489-1.748-2.337-2.984-2.944-.9-.442-2.1,1.837-2.97,2.134-.666.226-1.945-.134-2.429.233-1.313,1,4.806,2.48,4.859,2.636.487,1.429-5.775,2.037-5.273,3.513.318.932,2.666.156,3.562.767a18.5,18.5,0,0,0,2.083,1.271c1.8.888,4.794.089,6.721.351.771.1,6.374,1.525,6.866,1.358,1.893-.645,6.09.17,7.665-.367,3.558-1.212,6.389.165,9.924.646,1.194.163,7.308-4.5,5.638-2.053-5.24,7.676-6.125,3.3-14.536,4.226-11.167,1.23-20.756-1.3-32.159-3.492-.813-.156-3.261-2.219-4.076-2.35l1.106-1.606-.6-4.419-.994-2.166-2.7-.575-1.525-1.7Zm83.426-102.52c-2.816.153-1.064-3.908.088-4.783,2.347-1.785-3.865-6.473-.071-7.766,1.7-.578,8.416,6.137,4.231,9.319-1.246.947-2.6,1.269-4.247,3.229Zm22.722,111.937a27.044,27.044,0,0,0-3.6.376l-.573.063a118.846,118.846,0,0,1-13.177,3.565c-1.054.2-1.853-.24-2.945-.119-3.531.389-6.426.539-9.376,1.544-.777.265-2.243-.3-3.065-.276-5.834.174-9.16-1.6-13.485,1.689-1.407,1.07,4.95,2.507,5.708,2.61l1.07.428c1.57-.521,3.246.12,4.8-.051a49.6,49.6,0,0,0,9.785-2.475c2.271-.774,5.753.623,8.3.143,5.37-1.013,11.308-.963,16.645-2.583Z" transform="translate(2041.44 -110.587)" fill="#eba77e"/>
  <path id="path3046" d="M-1907.334,391.343c-.993-.159-3.079,2.625-4.06,2.471l-.773,0-.5.031c-3.41.142-6.9-1.82-10.475-1.426-1.725.19-3.44.789-5.219.985a13.787,13.787,0,0,0-2.416.17c-.974.332-1.451,1.381-2.323,1.678-.9.308-2.534.064-3.306.846l-1.032.258c-2.14.89-5.645-.5-8.018.3-3.994,1.361-12.885,3.616-17.6.4-.826-.564-3.532.2-4.112-.56-.744-.978,3.25-1.947,3.675-2.092,1.129-.385,3.039.063,4.414-.2,3.86-.728,5.3-2.071,10.163-1.408,1.561.212,4.837-2.273,5.793-3,.454-.345,13.352-.147,13.83-.51.725-.552,1.774-2.192,2.527-2.448,3.245-1.106,12.9-2.477,13.481-6.74l1.977.983.906,1.656,1.969.313,1.25.5,1.125,6.281Zm-29.167-7.822c-.82,1.152-5.762,1.523-4.561-.92a46.781,46.781,0,0,1,4.235-4.01c.882-.67-1.166-5.2,2.054-6.3,1.119-.381,3.155,2.6,3.235,3.332.135,1.225.838,4.249,1.71,5.019a1.951,1.951,0,0,1,.69.792c.7,2.059-3.755,3.8-5.264,2.773a2.213,2.213,0,0,0-2.1-.685Zm22.253-7.445c-1.707-1.646-5.213-1.519-8.256-3.015a19.4,19.4,0,0,1-7.869-6.655c-.119-.157-1.153-.157-1.371-.187-.414-.056-10.216.96-11.142,1.275-1.737.592-1.157,1.582-2.109,2.305-.153.117-5.647,2.21-6.3,2.333-1.567.3-7.57-1.089-8.748-.194-3.93,2.988,2.021,3.091,4.166,4.556,2.532,1.728-2.727,3.7,1.131,6.336.719.491,4.642,2.314,4.13,3.354-.529,1.076-1.556.832-2.394,1.469-5.226,3.974-8.027-2.81-10.244-2.392-2.477.467-1.623,2.638-2.883,3.6-.8.608-1.922.095-2.848.41-2.4.816-4.906,5.211-7.635,3.348l-1.513-.6c-4.531-.38-10.9-.251-13.3-3.406-1.071-1.408,6.082-4.878,2.5-6.64-2.607-1.282-6.958-2.686-8.527-4.751-2.8-3.678.18-12.96,2.408-16.224,1.282-1.879,2.991-2.5,4.164-4.219,1.2-1.759,1.424-8.806,2.285-9.461,1.474-1.121,3.062-3.206,4.582-4.362,1.536-1.168,4.337-.84,6.078-2.164,2.226-1.692,3.033-3.71,5.107-5.287,2.131-1.62,1.468-15.645,6.448-18.068l.329-.952c3.863-4.633,12.88-15.068,18.847-11,1.021.7,2-.237,2.937.4.732.5,3.451,1.636,3.676,2.3.409,1.2,4.081,8.833,5.528,7.733,3.142-2.389-5.409-8.7,1.723-14.124,1.379-1.049,1.514-1.19,3.515-.917,2.694.367,5.111.6,7.111,1.965,1.064.726,5.3.051,6.043,1.022,1.189,1.564,4.747,2.55,6.008,4.208,1.156,1.521,3.061,3.8,4.086,5.143.818,1.076,2.489-.253,2.316-1.675l1.393.4,1.967,1.569,2.077,1.9.442,2.011,4.176,3.977,3.889,3.513.42,4.861-1.149,4.375-1.657.442-4.173,2.342-1.062,2.25-1.375,9.563-.187,7.813-.562,3.75-.661,2.236-.95,2.939-2.74,2.652-.265,2.431-7.027,3.292-1.944,1.5Z" transform="translate(2041.44 -110.587)" fill="#c4c7c8"/>
  <path id="path2852" d="M-1936.5,383.521c-.82,1.152-5.762,1.523-4.561-.92a46.781,46.781,0,0,1,4.235-4.01c.882-.67-1.166-5.2,2.054-6.3,1.119-.381,3.155,2.6,3.235,3.332.135,1.225.838,4.249,1.71,5.019a1.951,1.951,0,0,1,.69.792c.7,2.059-3.755,3.8-5.264,2.773a2.213,2.213,0,0,0-2.1-.685Zm439.3-113.295c-.385-1.07-1.235-1.271-2.136-1.886-.852-.582-4.513-2.128-4.98-.778a2.242,2.242,0,0,0-.106.783,14.381,14.381,0,0,0,1.829,1.944c.454.4.565,1.321.948,1.824.712.937,1.675,1.972,2.395,2.919,1.734,2.281,2.978-.85,2.429-2.461-.185-.544-.077-1.348-.379-2.345h0Zm42.021-24.837c.448-.956-.985-.014-.837-1.1.291-2.141-3.477-4.163-5.3-3.542-1.072.365-.9,1.8-1.585,2.322-.328.249-4.793-.427-5.1-.836-.886-1.166-1.615-3.593-2.462-4.707-.43-.566.669-1.719.458-2.335-.078-.228-2.632-2.219-1.719-2.913,1.052-.8,3.681-.073,4.556-1.354.947-1.388,1.333-4.861,2.629-5.847.5-.381,1.8-.006,2.309-.391.845-.642,1.351-2.069,2.271-3.216.85-1.061,2.176-1.53,2.97-2.134,1.46-1.11,3.144,1.845,3.77,2.346,1.846,1.479,3.1,3.6,5.212,5.222,3.362,2.579,5.477,2.633,7.823,5.719.866,1.139-1.4,1.5-2.026,1.416-1.34-.182-7.176-3.729-7.729-3.308-.693.527-2.915,3.512-1.805,4.972.863,1.134,3.893.258,5.1-.152.881-.3,2.911,1.164,3.745,1.5,1.649.659,5.936-.1,5.608,2.315a2.622,2.622,0,0,1-1.233,1.806c-.905.688-.612,5.333-.433,6.287.253,1.342,1.554,3.535.857,4.065-1.579,1.2-7.754-2.027-8.263-3.522-.165-.484.256-1.187.088-1.68-.606-1.779-1.116-1.794-2.115-3.108-.128-.169-.913-.055-1.108-.151-2.394-1.177-2.985.657-4.631,1.908,0,0-2.077.2-1.045.422Zm2.8,13.636c-2.518-.294-2.676-2.429-3.349-4.4-.622-1.826-3.506-3.253-3.179-5.65.294-2.159.421-2.058,2.712-2.31.605-.067,2.715-1.1,3.077-.85C-1449.086,248.564-1447.249,256.107-1452.38,259.026Zm67.131-11.449c-4.939.434-3.85-6.089-2.45-8.935.431-.876.183-3.6.069-4.644-.03-.262-.512-3.678-.618-3.75-.276-.188-6.083-1.533-6.551-1.6a10.026,10.026,0,0,1-2.2-.44c-2.1-2.763,1.748-4.8,3.516-6.149.733-.557-.654-2.854.038-3.379.26-.2,1.139,1.057,1.252,1.158.956.844,2.724.906,3.707,1.774a39.823,39.823,0,0,0,4.255,3.964c3.761,2.567,4.354,8.645,2.6,13.045-.285.712-1.254.923-1.371,1.788-.17,1.25.662,4.709,0,5.217a8.538,8.538,0,0,0-2.24,1.951Zm54.917-95.747c-.223.593-1.427.589-1.969,1-.25.19-.234.674-.547.913-.876.666-6.627,1.3-7.564.662-.375-.256-2.2-1.232-2.675-1.069-.369.126-.48.613-.667.755-.294.224-1.855-1.444-2.555-.912-.494.376-1.111.721-1.712,1.177-1.284.976-.41,2.517-2.409,3.2-2.581.879-6.889-.69-6.96-.665-.456.155-4.046,7.308-3.68,8.383.913,2.679,5.755.151,7.193-.008.915-.1,1.29-.693,2.089-.844,1.65-.311,1.826,2.47,6.048.118,2.292-1.277,3.043-5,5.3-5.766,2.053-.7,6.191.257,8.055-1.16.375-.285,1.624.173,2.115.006,2.6-.887,4.179-1.69,4.63-5.01.044-.324.067-1.24-.227-1.441a11.823,11.823,0,0,0-5.123-.7c-.039.014,1.3.8.661,1.359Zm-57.045,33.692c-.316.228-.912.2-1.183.4-.448.34-.254.833-.308,1.227-.047.349-.651.609-.446,1.208.73,2.145,3.478.351,3.687-1.19.094-.691-.433-1.164-1.75-1.648h0Zm-18.57,3.818c-3.579-.79-13.347.933-11.861,5.295.256.751,1.189.911,1.63,1.491,1.194,1.571.265,3.387,1.631,4.593,1.716,1.515,3.658-4.029,4.178-4.79a14.365,14.365,0,0,1,2.019-2.4c.466-.354,1.567-.074,2.032-.428,1.038-.789,2.206-1.8,3.165-2.53,1.069-.813-1.83-1.12-2.794-1.227Zm-367.737,76.427c-2.553-.566-3.159-3.064-5.306-4.53a19.608,19.608,0,0,1-3.953-3.076c-.882-1.159-1.229-2.6-2.04-3.662-.326-.429-2.178.291-2.467.51-.816.621-3.226,10.938-3.188,10.988,2.224,2.925,6.513-1.295,7.853-1.751,1.648-.561,4.279,6.833,9.1,1.521Zm-56.181,11.812c-2.816.153-1.064-3.908.088-4.783,2.347-1.785-3.865-6.473-.071-7.766,1.7-.578,8.416,6.137,4.231,9.319-1.246.947-2.6,1.269-4.247,3.229Zm77.627,99.972a13.187,13.187,0,0,0-11.226,2.7c-.271.206-1,.138-1.321.384-.865.658-3.089-1.374-4-.685-1.285.977-9.005.493-10.427.978-2.242.764-3.47,2.334-5.531,3.336-1.784.868-4.757.142-6.236,1.266a21.328,21.328,0,0,1-2.85,2.291c-2.15,1.046-5.135.114-7.407.543-.824.156-1.556.819-2.523.926-2.292.252-4.646.157-6.991.6l-.573.063a118.846,118.846,0,0,1-13.177,3.565c-1.054.2-1.853-.24-2.945-.119-3.531.389-6.426.539-9.376,1.544-.777.265-2.243-.3-3.065-.276-5.834.174-9.16-1.6-13.485,1.689-1.407,1.07,4.95,2.507,5.708,2.61l1.07.428c1.57-.521,3.246.12,4.8-.051a49.6,49.6,0,0,0,9.785-2.475c2.271-.774,5.753.623,8.3.143,5.641-1.064,11.911-.955,17.45-2.842,2.261-.77,5.239.2,7.406-.543a87.2,87.2,0,0,0,9.8-3.6c2.647-1.288,4.66-2.9,7.23-3.387,1.378-.26,4.492-.809,5.581-1.637.965-.734,5.215-.72,6.356-1.109,1.3-.443,3.267,1.065,4.569.622,2.716-.925,5.962,1.079,8.955.514a20.438,20.438,0,0,0,2.7-1.184,8.557,8.557,0,0,0,2.662-.907c.457-.348.458-1.465.956-1.844.316-.24,1.579-.4,1.4-.938-.248-.727-2.9-2.134-3.594-2.6Zm-152.24-66.648c-.548-.721-1.083-7.011-1.2-8.739l.665-.831c1.806-.341,1.462-12.33,3.78-11.19.4.195.508.994.68,1.221.334.439,1.242.654,1.548,1.057.358.471-.421,2.059-.081,2.668,1.138,2.042,4.041.245,6.036,4.347a10.123,10.123,0,0,1,.586,5.015c-.042.308-.2,2.511.077,2.549a1.114,1.114,0,0,0,.749-.321c1.074-.817,1.415-3.434,2.56-4.3.47-.357.321-2.359.673-2.87.958-1.4,2.069-2.367,3.234-4.072.754-1.1-.889-2.312-1.3-2.857-.259-.341-1.963.537-2.347.668-4.687,1.6-6.168.69-7.37-2.837-.484-1.42,1.558-2.171,1.919-2.7,1.293-1.894-.956-5.107,1.358-6.866,2.7-2.051,6.262.971,8.49,1.861.807.323,2.67.084,3.147.71,1.057,1.39,2.84,2.718,3.368,4.266a28.421,28.421,0,0,0,4.621,8.526c1.4,1.845.452,5.166,1.147,6.079.12.159,1.96-5.343,2.239-5.054l-.183-.73c.122-.892-.713-1.253-.271-2.152s2.717-5.783,2.547-6.281a9.185,9.185,0,0,0-1.618-2.618c-1.822-2.4-.29-8,1.257-10.264,2.83-4.146,4.54-3.159,9.816-3.74.513-.056,1.566.175,1.995-.151,5.051-3.841,10.639-6.79,17.657-4.365,1.727.6,3.13.362,4.021,1.535.509.669,2.762.53,3.827,1.931,1.327,1.745-5.693.025-5.79.058-.61.208-1.205.682-1.913.586-.157-.021-5.573,2.29-5.871,2.726-.795,1.164,1.084,2.4.668,2.347-.125-.017,1.643-.038,2.108-.982a2.4,2.4,0,0,1,2.7-1.184,7.929,7.929,0,0,1,2.342,1.447,11.231,11.231,0,0,0,1.567.918c1.327.905.095,3.391.938,4.5.4.523,1.639.223,2.077.283s1.165.068,1.366.327l.849-.025c.495.067,2.486,1.337,3.128.849,3.258-2.477,2.6-9.1,7.405-6.748l.46.768c.114.607,2.126,7.2,4.482,5.4.494-.375.2-1.1.522-1.762a4.883,4.883,0,0,0,.6-2.316c-.086-1.373.213-2.985-.58-4.027-2.186-2.875-7.368-7.05-4.011-11.968.507-.743.016-2.13.534-2.889,1.022-1.5.424-3.673,1.767-4.695.477-.363,3.073,1.1,3.329,1.44.383.5-.3,1.725,0,2.114a8.472,8.472,0,0,0,1.07.428c3.874,1.029,8.442.542,11.618,2.71.4.27.4,1.177.642,1.5.039.052.229.819,0,.988-.692.526-1.162,1.876-1.881,2.423-1.293.983-3.373.827-4.613,1.769-1.726,1.313,3.926,2.8,4.677,5.008.467,1.372-1.982,2.252-2.63,2.744-.427.325,2.64,1.839,2.82,2.076.936,1.232-2.511,3.96.2,5.808.576.393,1.655-.057,2.253.025.652.089.953-.476,1.378-.8.13-.1,1.312-1.05,1.038-1.41-.432-.568-2.991-5.776-1.285-6.1a30.135,30.135,0,0,0,4.87-1.593c1.814-.618,4.213-.218,6.243-.278.975-.029,1.964-1.534,3.2-.693a7.494,7.494,0,0,1,1.787,1.371c.373.49,1.839,6.173,2.94,5.336,1.009-.767-.735-5.4.59-6.406a12.19,12.19,0,0,0,2.818-4.129l.51-.636a17.871,17.871,0,0,1,2.495-2.269c.344-.262,10.288.332,11.623.6l.346.047c1.278.174,1.825,1.284,2.769,1.928,1.145.782,4.56,1.834,5.265,2.761.474.623,1.009,1.991,2,2.388a6.031,6.031,0,0,1,1.577.849c.07.091.625.085.761.1a17.639,17.639,0,0,1,5.4,1.229,6.92,6.92,0,0,1,2.574,2.325,14.071,14.071,0,0,0,.834,2.158c.187.246-.031.775.146,1.007.636.837,3.11.911,4.062,1.752a7.1,7.1,0,0,1,1.045,1.129c.044.058-.033.356.016.425.8,1.055,2.09,1.951,2.7,2.976l.29.462,2.008,2.6c.673-2.027-2.2-9.19-4.31-10.035-.788-.315-4.657-1.548-2.845-2.926.333-.253.571-1.251,1.038-1.41,3.275-1.116,7.08-1.026,10.6-2.224.945-.322,1.97-1.87,2.731-2.449a12.577,12.577,0,0,1,4.751-1.75c.541-.135,3.365-2.913,3.864-1.448.275.806-1.44,2.009-1.844,2.146a9.177,9.177,0,0,0-2.5,1.775c-.854.865-3.242,1.6-4.272,2.38-.928.706-.734,2.916-1.459,3.468a3.646,3.646,0,0,0-.5,2.612c.684,2.007,2.681,1.06,3.556-.221.6-.873.378-2.522,1.126-3.09,1.586-1.206,8.034-5.29,6.939-8.5-.088-.254.331-1.033.17-1.246a11.679,11.679,0,0,1-1.681-3.19c-.4-1.185,1.6-2.26.886-3.4l.232-.673c-.46-.826-3.87-4.38-3.45-4.7.162-.123.23-.67.39-.793,2.549-1.938,5.289,1.895,8.049.955,3.286-1.119.965-2.223,2.271-3.216.96-.73,3.009.1,4.128-.284,1.473-.5,3.822,1.1,4.575,1.61.229.156.1.9.542,1.2.172.117.723.38.516.352-.231-.031-.632.312-.491.5.287.378,1.358.382,1.422-.088.061-.448-1.688-.261-1.9-.541-1.986-2.612-5.285-2.311-7.533-.6-.863.656-.4,3.226-.075,3.656.821,1.079,4.535-.4,5.4.735.837,1.1-3.026,3.2-1.667,4.991.259.34.784.541,1.013.843.325.428,2.88-1.509,3.329-1.662,1.851-.631,2.741,1.639,4.783.087a17.818,17.818,0,0,0-.486-4.72c-.373-.491-2.742-3.555-.838-4.2,1.612-.549,2.228,1.44,3.392,2.013.654.322,1.464.422,2.159.717.538.229,9.242,5.26,9.3,5.215s1.256-.47,1.082-.7a8.708,8.708,0,0,1-.957-1.258c.507-.385,2.135-.043,2.844-.177a49.058,49.058,0,0,1,16.456-.721c14.8,2.015,29.028,8.731,43.586,5.088,1.356-.339,2.961-.169,3.549-1.209l.768-.46c2.087.284,9.229,3.919,10.674,3.427a16.757,16.757,0,0,1,8.747-1.065c2.327.317,5.467,2.386,7.917,1.924,2.645-.5,5.407-2.369,8.438-2.941,1.406-.265,2.78-1.738,4.077-1.983,4.658-.879,12.785,3.1,16.828,1.727a106.343,106.343,0,0,0,13.195-6.806c2.624-2,5.734-4.594,8.954-5.691.6-.205.9-1.663,1.787-1.731l.925-.579c2.027-.986,4.108-3.248,5.839-4.564.712-.541,1.022-1.894,1.9-2.562,1.228-.934,5.571-2.176,6.2-3.1.589-.862,2.805-3.542,3.75-3.72,3.074-.58,8.155-.243,10.421-1.966,2.572-1.956,2.45-6.7,4.825-8.509,1.7-1.292,4.023-1.107,5.877-1.738.94-.32,1.733.994,2.731.654a19.752,19.752,0,0,0,3.052-1.7c1.351-.46,3.05-.907,4.417-1.373,1.649-.562,1.483-2,2.334-2.644.448-.341,1.552-.435,2.089-.844.983-.747,1.91-2.321,2.963-3.122.926-.7,2.5-1.277,3.366-1.939,1.189-.9,2.189-3.1,3.152-4.506,1.14-1.669,4.447-3.133,5.625-4.029,1.644-1.25,5.678,1.7,7.319,1.137,1.322-.45,5.3-.806,6.274-1.543a16.267,16.267,0,0,1,3.643-1.9c1.335-.455,2.858-2.822,4.7-3.45,2.137-.728,2.1,3.048,4.343,2.283.487-.166,2.1.142,2.41-.1,1.066-.811,4.774-2.21,6.243-.278,1.252,1.646-3.518,4.093-4.234,5.205l-.629.478c-.924,6.789-6.646,8.1-12.338,10.871-.691.336-4.747.755-3.813.045,1-.761,9.973-6.473,9.318-7.333-.419-.551-1.095.373-1.775.6a18.661,18.661,0,0,1-4.48.8c-1.825.2-7.848-2.473-8.628-1.88a10.981,10.981,0,0,0-2.749,2.587c-1.01,1.479-.332,2.858-1.969,4.1-1.466,1.115-3.6.038-5.154.567-1.739.592-2.245,3.843-3.265,5.337-.433.634-1.7.8-2.284,1.24-1.356,1.031-2.118,2.868-3.41,4.33-2.333,2.642-4.889,1.111-5.9,1.877a14.645,14.645,0,0,0-2.233,2.939c-1.831,2.682-7.291.917-6.241,6.483.056.3-.361,1.158-.188,1.385.189.248.2,1.074.384,1.321,1.355,1.782,12.109-3.287,7.993,4.473l-.371.654c-.881,6.473-12.371-.026-13.039.481-1.046.8-6.572,1.663-6.833,3.582a13.035,13.035,0,0,0,.234,5.531c.647,1.9,6.228,3.105,4.929,7.3-.124.4-.379,1.9-.717,2.159-.675.513-1.879-2.635-2.254-3.127-.325-.427-1.263-.682-1.548-1.057-1.16-1.526-1.886-3.79-2.764-5.594a20.683,20.683,0,0,0-1.083-2.4c-.835.635-1.066,6.892-2.025,7.621-1.263.961-2.235,3.189-3.687,4.293-1.193.907-3.384-1.7-4.2-2.265-.361-.246-.165-1.359-.347-1.6-.091-.12-.935-.033-.988.006-.8.607-3.572,4.32-3.844,4.412-1.423.485-6.727,2.136-7.57,2.777-.922.7.579,3.531-.288,4.191a15.4,15.4,0,0,0-3.14,3.38c-1.857,2.721-3.859,5.54-7.481,7.3-2.334,1.135-14,1.21-14.454,1.558a12.75,12.75,0,0,0-2.957,4.11c-.573,1.165-1.213,3.221-.76,4.55.983,2.886,4.753-1.069,6.947-1.31,1.807-.2,2.065,1.561,3.078,2.252,1.55,1.058,4.541.524,6.117,1.679l1.007-.145c3.686,1.813,1.62-3.869,4.285-3.506a5.441,5.441,0,0,1,1.661.226c.8.545,2.1.471,2.656,1.208a32.037,32.037,0,0,0,7.773,7.122c1.184.808,3.736.064,4.921.106,1.21.043,3.574.137,4.443-.523,1.547-1.176,3.5-2.413,5.153-3.67.765-.582,1-2.387,1.919-2.7,1.77-.6,3.9,3.116,6.155,1.4,1.05-.8,1.286-4.348.458-5.437-.775-1.02-4.408-1.966-3.323-3.555,1.462-2.142,3.028-5.023,5.832-5.552,1.556-.293,4.84.54,6.123-.436a20.446,20.446,0,0,0,3.2-3.8c.327-.479.207-1.516.679-1.882,1.781-1.355,5.418-2.607,6.412-4.627.692-1.407.749-3.425,1.629-4.714,2.038-2.986,4.864-4.016,8.948-3.576l.693.094c.987.134,5.022,1.394,5.658.911s2.007-1.154,2.617-1.618c1.6-1.218,6.834,1.316,7.583,2.3.648.853,3.785,1.218,4.726.5.592-.45.62-1.462,1.151-2.241.444-.651,1.86.156,2.5-.787.431-.631.513-3.244,1.22-3.782s1.894.918,4.046-.718c.525-.4.4-2.962.49-3.6.073-.54,1.427-1.551.994-2.121-.536-.7-1.872-4.286-.706-5.173.222-.169,8.066,3.389,9.05,2.924l.516.352c-.564,4.143,6.579,1.678,7.66,4.85.529,1.553-3.122.719-2.775,1.737.576,1.69,1.784,3.105,2.525,5.279.3.87.461,3.416,1.291,3.983.243.166.574-.619.667-.755.911-1.335.479-2.918,1.258-4.059,1.484-2.174,2.316-4.172,1.792-6.948-.1-.553-1.184-2.575-.416-3.159l4.719-3.588c.206-.157.71.661.894.686,1.223.167,7.57,3.435,7.364,4.951-.1.768.377,3.313-.232,3.776-.489.372-2.66,1.726-1.8,2.857.756.994,2.976,1.048,4.122,1.83.578.395-.377,1.219-.125,1.957.358,1.05,1.686,3.144,2.612,3.6.672.33,3.424,4.471,4.116,3.945,1.262-.96,5.527-1.817,7.828-2.6s1.031-4.586,5.631-3.041l.951.27c2.811.383-.413,3.211.762,4.757.428.563,3.725.93,4.235,1,.152.021,1.132-7.935,1.7-8.37,1.415-1.076,4.241.126,5.94-1.165l4.876-3.708c.722-.549.828-1.878,1.346-2.637.71-1.041,2.8-1.76,3.719-2.455,1.429-1.087,3.839,1.673,5.123.7,1.7-1.292,2.634-3.253,3.7-5.419,1.124-2.286-1.958-3.624,3.422-5.457a6.671,6.671,0,0,1,3.241.018c5.771.786,1.181,5.875,4.659,8.249.289.2.742.605,1.208.447,1-.341,4.679-.188,4.833-1.316.452-3.322-.149-3.762-3.827-5.034-.575-.2-3.879-1.022-2.857-1.8.834-.634,2.759-.652,3.826-1.171.645-.314,1.215-1.544,1.667-1.888.4-.307,2.745.515,3.3.591,1.412.192,5.24,1.832,5.966,2.786.645.848,7.041.608,8.295,2.257.241.317.1,1.084.227,1.441a1.911,1.911,0,0,1-.088,1.68c-.964,1.412-4.594,6.318-5.706,6.7-.412.141-.97-.132-1.4-.05a35.83,35.83,0,0,0-6.664,2.336c-.74.563-7.151-1.141-8.439-.162-1.793,1.363-4.517,1.473-6.645,2.2-1.24.422-1.891,1.81-2.731,2.449-1.531,1.164-3.445,1.675-4.984,2.424-1.269.617-2.633,1.884-4.014,2.556a55.405,55.405,0,0,1-6.286,2.67c-1.5.511-3.21.438-4.657,1.058-1.163.5-1.861,1.521-3.209,1.819l-.808.242-2.945,1.432c-.748.364-1.888.272-2.624.63a22.567,22.567,0,0,1-5.412,1.943c-2.594.489-5.543.558-7.985,1.169-1.358.34-2.745.743-4.084,1a7.52,7.52,0,0,0-1.281.6c-2.14.918-4.355,1.687-6.355,2.66-1.362.662-2.952.431-4.32,1.175l-.375.16c-1.749.851-3.936,2.463-5.927,3.141a14.492,14.492,0,0,0-3.429,1.366c-.582.443-11.395,3.583-13.29,4.4-1.083.465-3.933-7.559-5.162-6.625-.9.688-.82,4.568-.477,5.576.276.811,1.361.973,1.769,1.51.119.157-.205.777-.251.812-.923.7-2.072,1.824-2.869,2.43-1.84,1.4-4.463.911-6.387,2.374-.738.561-1.772,2.056-2.869,2.43a75.359,75.359,0,0,0-8.457,3.079c-3.432,1.669-7.063,4.7-10.993,5.131-4.94.544,1.134-4.409,1.176-4.493.544-1.106-.741-2.933-1.209-3.549-.367-.483-.045-3.814-.6-3.889s-1.835,3.754-2.56,4.3c-.332.253-3.395,3.37-3.177,3.657,1.182,1.555.615.42,2.064,1.409.338.231.294,1.04.365,1.46l.673.233c-2.176,1.654-5.545,1.857-7.507,3.349a19.479,19.479,0,0,1-5.216,3.1,27.691,27.691,0,0,1-6.809,1.329c-.412.026-2.521-.317-2.807-.1a14.585,14.585,0,0,1-2.284,1.24c-.531.228-3.7,1.337-4.008.441-.294-.862,1.542-3.038,1.673-4,.031-.228.045-2.641-.705-2.07-2.357,1.792.155,4.1-.383,4.883-.343.5-.626,2.089-1.031,2.4-2.123,1.614-4.4,1.9-6.859,2.733-.724.247-9.78,1.829-10.068,1.45-.085-.111.111-.815.131-.969.017-.131.017-.759.113-.831.406-.309,1.551-.062,2.032-.428,2.962-2.252,9.756-1.657,12.3-5.377.906-1.328-.8-2.216-1.618-2.618-.615-.3-.82-1.191-1.353-1.453-2.042-1-3.971-1.756-6.1-2.805-.953-.469-4.28,1.228-4.978.309-.759-1-3.666-.932-4.588-.484-1.406.684.031,10.386.128,10.453a16.74,16.74,0,0,1,4.374,4.121c1,1.321-3.121,3.366-3.611,3.739-6.271,4.768-14.449,4.459-20.469,9.482l-1.164.265c-1.519.739-3.335,2.456-4.92,3-3.282,1.118-7.095-.356-10.547.82-2.406.82-8.266-.417-9.993.9-1.916,1.456-6.792-.3-8.923,1.323-5.48,4.167-13.181,3.32-17.858,6.876-3.509,2.668-11.31-.833-14.612,1.677-6.477,4.925-20.621,5.5-24.88,8.74-1.263.96-4.723-.381-6,.593-6.089,4.63-14.98,4.443-22.087,6.864-10.215,3.48-16.136,10.514-25.559,13.724-5.414,1.844-35.915,4.47-37.744,5.861-3.715,2.824-10.818.781-15.556,2.395-4.606,1.569-8.51,2.5-13.252,4.118-4.156,1.416-23.562-.178-24.644-3.355-.3-.892,10.591-.814,12.485-.557.378.052,18.471-1.275,19.395-1.59,4.96-1.69,10.12-2.25,15.618-4.924,2.538-1.235,6.549.938,9.011.1,3.993-1.36,8.165-1.593,11.956-2.885,2.02-.688,4.782.747,6.759.074,2.219-.756,7.208-.267,8.961-1.6,3.834-2.916,9.084-2.191,12.811-5.025,1.507-1.146,2.379-2.554,3.574-3.462,1.685-1.281,3.5-1.082,5.047-1.851l1.535-.919c2.127-.4,3.562-2.006,5.437-2.644,2.912-.992,7.564.544,10.409-.839a69.015,69.015,0,0,1,8.432-3.929c1.071-.365,2.378-.018,3.436-.378,1.286-.438,2.169-1.4,3.625-1.763a13.723,13.723,0,0,1,2.114.006c2.008-.221,3.716-1.568,5.6-1.776a36.7,36.7,0,0,0,7.381-1.392,22.112,22.112,0,0,0,5.1-2.267c1.5-1.138,3.11-2.842,5.134-3.531.868-.3,3.173.194,3.851-.322s1.957-.122,2.624-.63c3.55-2.7,14.626-1.977,19-4.888l.887-.3c.8-.152,13.743-1.51,13.743-1.513a30.509,30.509,0,0,1,5.481-1.933c1.219-.134,2.868.475,3.933.112,1.186-.4,1.6-1.2,2.756-1.6,1.439-.49,5.927,1.079,7.174.131.95-.722,2.794-1.38,3.662-2.04.676-.514.725-1.668,1.428-2.2,1.972-1.5,9.111-5.81,12.434-5.358,2.576.351,5.913-1.766,7.45-2.934,1.038-.789,3.573-.235,4.657-1.058.8-.611.094-1.717.182-2.372.066-.483,1.253-1.617.975-1.983-.364-.479-1.461-.546-2-.837a4.7,4.7,0,0,1-1.133-1c-.016,0-.05.517-.075.554a1.457,1.457,0,0,1-.906.441c-.6.066-4.2.353-4.506-.049-.716-.941,1.552-4.309-.016-5.078-2.682-1.319-2.76,2.269-3.75,3.72-.85,1.246-1.514,3.288-2.762,3.713-1.551.528-3.68-1.174-5.06-.125-.9.682-.646,2.941-1.4,4.04-1.52,2.227-3.114,4.672-4.6,6.848-.413.6.064,1.6-.025,2.253-.244,1.794-9.7,3.9-10.893,2.324-.79-1.039,3.32-8.811,0-7.193-1.158.563-2.386.955-2.63,2.744-.5,3.675,5.516,3.377,1.524,6.412-.352.268-1.034-.165-1.542-.069a6.288,6.288,0,0,1-6.457-2.289c-.386-.508-2.849.356-3.266-.868-.569-1.673,1.037-3.7-.133-5.236-.32-.421-2.836,3.739-3.252,4.211-.836.946-3.126-.85-4.072-.131-.98.745-2.009,1.031-3.071,1.838-.182.138-1.339-.323-1.642-.365-7.172-.976-4.5-7.38-7.534-6.807-1.455.275-2.341,3.393-3.548,4.311a14.825,14.825,0,0,1-2.976,1.146c-.215.163.279.442.044.711l.182.73c.227,1.206.731.961,1.435,1.888,1.774,2.333-5.709,3.844-6.217,4.23-1.125.855-5.15-2.538-5.941-1.937-.573.435-6.051,3.469-7.3,1.827-1.7-2.231-1.731-3.452-4.1-5.071a2.205,2.205,0,0,0-1.7.051c-4.7,1.6,5.425,8.287,2.2,10.735-3.163,2.4-6.934,3.286-9.766,5.439-1.369,1.041-4.25-.243-5.764.907-.262.2-1.122-.388-1.384-.188-4.788,3.64-6.944-10.111-9.618-8.078-3.174,2.413-6.928,2.041-10.206,4.533-1.509,1.147-2.006,4.116-4.039,4.809-2.553.87-7.85-3.794-8.887-5.158-1.058-1.391-17.618,1.481-18.639,2.257-1.1.834-1.372,3.029-2.5,3.89-1.983,1.508-12.59-.853-16.978,2.483-1.748,1.329-6.8-3.062-7.137-3.51-1.236-1.625-6.4-.261-7.64-1.886-.537-.707-2.472-3.333-2.984-2.944-3.788,2.88,1.209,4.324,1.94,6.469.686,2.015-1.1,9.77-2.3,10.686-.332.252-4.93-2.2-5.866-2.491-3.393-1.051-9.648-2.894-11.656-5.535-.881-1.158-5.156,1.708-6.482-.036-.211-.278-.091-5.144-.781-4.619-2.212,1.682-4.5,4.857-7.386,6.609l-1.12.976c-.99.752-1.671,1.643-2.731,2.449-1.009.767-2.266.73-3.152,1.4-.421.32-.7.963-1.139,1.114-1.5.51-3.2.1-4.739.624-2.659.906-5.6-3.189-7.992-1.37-1.137.864-2.835.791-4.2,1.826-1.489,1.132-3.144,2.994-4.9,3.846-3.319,1.614-8.06,1.557-11.364,2.683-4.216,1.436-7.927,3.312-12.592,2.375l-.692-.094c-1.784.337-6.678-2.618-8.584-1.169-.157.12-3.786,2.529-3.977,2.279-.23-.3-.22-1.269-.485-1.617-.577-.759-8.432.826-8.728.927-.4.138-1.6-.521-1.938-.264-2.635,2,.384,3.236-1.516,3.883-1.145.39-3.545-2.05-3.89-2.5-.182-.24-.77.036-.849.025-2.425-.33-2.848,1.09-6.639.083-.474-.126-2.99-1.326-3.543-.905-1.118.85-2.94.994-4.059,1.845-1.247.948-.886,1.688-2.416,2.209-1.145.39-3.714-1.4-4.55-.76-1.238.942-1.75,2.533-4.071,2.971-1.66.313-3.26-2.486-5.381-.874-.52.4-.914,1.91-1.724,2.3a31.234,31.234,0,0,1-4.323.681c-2.253,1.713-4.085,3.28-7.406,3.645-2.954.325-2.513-5.052-3.249-7.211-.3-.869.725-2.147.119-2.945-.249-.328-.633.177-.73.183-4.045.251-2.393,5.258-5.429,6.735-3.061,1.489-1.748-2.337-2.984-2.944-.9-.442-2.1,1.837-2.97,2.134-.666.227-1.945-.134-2.429.233-1.313,1,4.806,2.48,4.859,2.636.487,1.429-5.775,2.037-5.273,3.513.318.932,2.666.156,3.562.767a18.5,18.5,0,0,0,2.083,1.271c1.8.888,4.794.089,6.721.351.771.1,6.374,1.525,6.866,1.358,1.893-.645,6.09.17,7.665-.367,3.558-1.212,6.389.165,9.924.646,1.194.163,7.308-4.5,5.638-2.053-5.24,7.676-6.125,3.3-14.536,4.226-11.167,1.23-20.756-1.3-32.159-3.492-.813-.156-3.261-2.219-4.076-2.35-.993-.159-3.079,2.625-4.06,2.471l-.773,0-.5.031c-3.41.142-6.9-1.82-10.475-1.426-1.725.19-3.44.789-5.219.985a13.787,13.787,0,0,0-2.416.17c-.974.332-1.451,1.381-2.323,1.678-.9.308-2.534.064-3.306.846l-1.032.258c-2.14.89-5.645-.5-8.018.3-3.994,1.361-12.885,3.616-17.6.4-.826-.564-3.532.2-4.112-.56-.744-.978,3.25-1.947,3.675-2.092,1.129-.385,3.039.063,4.414-.2,3.86-.728,5.3-2.071,10.163-1.408,1.561.212,4.837-2.273,5.793-3,.454-.345,13.352-.147,13.83-.51.725-.552,1.774-2.192,2.527-2.448,3.245-1.106,12.9-2.476,13.481-6.74.84-6.172-4.7-4.816-9.212-7.038a19.4,19.4,0,0,1-7.869-6.655c-.119-.157-1.153-.157-1.371-.187-.414-.056-10.216.96-11.142,1.275-1.737.592-1.157,1.582-2.109,2.305-.153.117-5.647,2.21-6.3,2.333-1.567.3-7.57-1.089-8.748-.194-3.93,2.988,2.021,3.091,4.166,4.556,2.532,1.728-2.727,3.7,1.131,6.336.719.491,4.642,2.314,4.13,3.354-.529,1.076-1.556.832-2.394,1.469-5.226,3.974-8.027-2.81-10.244-2.392-2.477.467-1.623,2.638-2.883,3.6-.8.608-1.922.095-2.848.41-2.4.816-4.906,5.211-7.635,3.348l-1.513-.6c-4.531-.38-10.9-.251-13.3-3.406-1.071-1.408,6.082-4.878,2.5-6.64-2.607-1.282-6.958-2.686-8.527-4.751-2.8-3.678.18-12.96,2.408-16.224,1.282-1.879,2.991-2.5,4.164-4.219,1.2-1.759,1.424-8.806,2.285-9.461,1.474-1.121,3.062-3.206,4.582-4.362,1.536-1.168,4.337-.84,6.078-2.164,2.226-1.692,3.033-3.71,5.107-5.287,2.131-1.62,1.468-15.645,6.448-18.068l.329-.952c3.863-4.633,12.88-15.068,18.847-11,1.021.7,2-.237,2.937.4.732.5,3.451,1.636,3.676,2.3.409,1.2,4.081,8.833,5.528,7.733,3.142-2.389-5.409-8.7,1.723-14.124,1.379-1.049,1.514-1.19,3.515-.917,2.694.367,5.111.6,7.111,1.965,1.064.726,5.3.051,6.043,1.022,1.189,1.564,4.747,2.55,6.008,4.208,1.156,1.521,3.061,3.8,4.086,5.143.94,1.236,3-.7,2.109-2.305Z" transform="translate(2041.44 -110.587)" fill="none" stroke="#000" stroke-width="1"/>
  <path id="path2931" d="M-1875.348,397.24l.335-2.914M-1829,393.4l-.34,3.266m-13.341-66.4-49.254,4.435m-1.816,57.99-.359,2.773m23.9-98.135,2.02.7,26.135,28.659.02,9.169,16.236,1.928.68,31.257-1.132,2.1-1.214,1.668.069,1.561.227,1.441m-30.82-104.035,2.588,8.954,5.123,3.8.341,3.713-7.709-.344-6.4,3.5.019-3.241-3.619-.352M-1706.6,309.52l-1.582,1.265-31.408.237-.92,5.727-19.734.98m-48.242,17.193,47.126-9.519m315.824-61.778,8.988,20.472-1.775.6,5.1,10.685m-153.135,47.841.381,4.393m11.334-58.563s-10.125,28.8-10.992,38.27m47.8-71.407,10.858,21.321m-22.763,10.13c-.547.186-2.061-.17-2.253-.025-.586.445-2.307-.232-2.687.057a3.407,3.407,0,0,1-.749.321c-.434.148-1.089-.355-1.523-.207a13.331,13.331,0,0,0-3.19,1.681c-.142.108-.663-.17-.831-.113a13.478,13.478,0,0,1-1.579.208c-1.173.221-1.743-.585-2.4-1.032-.077-.052-.221.036-.277-.038-.078-.1,0-.329-.081-.434-.1-.136-2.1-.885-2.454-.616s-.81.368-1.221.68c-.1.08-.448-.155-.554-.075-1.006.765-2.773.612-4.48.8-.38.042-2.259.294-2.53-.062-.182-.24-2.706-1.257-3.386-1.025a11.166,11.166,0,0,0-3.171,1.542c-.053.04-.381.042-.434.082a5.323,5.323,0,0,0-1.158,1.253c0,.009-.948.389-1.045.422-.333.113-.861,1.02-1.139,1.114-.859.293-1.4.807-2.265,1.1-.493.168-4.8-.544-5.16-.421-.5.17-1.033-.03-1.561.069a4.07,4.07,0,0,0-1.673.9c-.122.092-.447.02-.573.063a6.851,6.851,0,0,0-.648.617c-.074.056-.2-.094-.277-.038-.218.166-.609.587-.805.736-.292.222-.319,1.8-.579,2.177a5.371,5.371,0,0,1-1.177,1.391c-.686.522-2.18.292-2.781.749-.111.084-.841-.044-.988.006-.1.034-.077.225-.176.258-.506.172-.969.066-1.441.227-.228.078-.255.483-.353.516a4.833,4.833,0,0,1-4.109.146,3,3,0,0,0-1.68-.088l-.868.164-1.894.447-1.7-29.986-3.613-5.568m-98.865,115.651.737,5.65m6.88-113.8c-.084-.111.117.1.135.118.031.04.03.154.071.209l.254.334c.02.026-.033.072-.016.1s.077-.013.1.014c.028.045,0,.157.024.2.106.139.165.274.289.438.084.108-.02.422.025.552.016.035.124-.042.091.062a1,1,0,0,0,.136.467c.061.079-.016.22.016.3.071.217,0-.052.091.062.03.039-.016.213.016.251.218.287.249.722.844.763l.189.076,4.128,32.669a5.327,5.327,0,0,1,1.255,3.96,1.869,1.869,0,0,1-.08.587c-.183.269-.29.346-.485.632s-.2.767-.427.939c-.127.1-.892,3.735-.978,4.254l.449.36,23.232-.726.229,9.3-1.713,22.1.713,2.091m-72.546,34.989-.434,4.684m1.456-15.713-.757,8.171m-.069-116.665-.578,1.317-.458.436c-.385.464-2.3,2.976-1.454,4.09.714.939.975,4.231,1.505,5.789.455,1.337,3.371,4.859,2.071,6.763a34.576,34.576,0,0,0-1.97,4.219c-.238.483-1.049,9.777-1.039,9.83l-.525.926c-.515,4.523-.817,8.933-1.421,13.367-.793,5.828-1.25,12.111-2.114,18.458-.075.555.471,2.626-.016,2.99-3.57,2.714-5.555,7.114-6.236,12.114-.49,3.6-2,12.765-1.545,15.744" transform="translate(2041.44 -110.587)" fill="none" stroke="#000" stroke-width="1"/>
  <path id="path2877" d="M-1938.094,366.652l-.152-1.816-.116-.614c-1.534-1.865-.412-4.206-.825-6.394a13.769,13.769,0,0,0-.748-3.293c-.111-.147.17-.6.106-.783a13.9,13.9,0,0,1-.125-2.011,5.1,5.1,0,0,0-2.844-3.279l-.841-.414c-.753.151-1.823-.593-2.545-.347-7.973,2.716-7-2.286-10.441-6.806-.945-1.243-2.2-2.438-3.267-3.835-1.251-1.646-.745-4.674-1.942-6.247-1.636-2.151-4.917-6.453-7.842-6.851m62.525,67.343.734-1,.262-.463c-.514-1.315-.44-5.312-1.229-6.35-.651-.856-2.695-.543-3.222-1.236a5.825,5.825,0,0,0-2.541-1.842m9.343-68.627,2.256,1.005.592.779c2.123.965,1.813,2.731,3,4.3,1.328,1.747,7.144,6.035,7.58,7.314a24,24,0,0,1,.37,3.141,3.825,3.825,0,0,1-.191,2.866c-.4.59-.036,2.221-.556,2.617-.2.149-.919.126-1.228.232-.485.165-.992,1.017-1.486,1.393-.808.615-2.6.837-3.608,1.6-1.147.872-1.931,9.79-2.094,10.983v1.5c-.5,5.953-.152,14.685-4.882,18.281-.6.46-.327,2.531-1.014,3.053-3.125,2.376-6.483,2.291-8.854,4.977m106.732,13.741.1,4.844m-6.742-113.389,4.6,10.647,1.75,84.07" transform="translate(2041.44 -110.587)" fill="none" stroke="#000" stroke-width="2"/>
</svg>
